<?xml version="1.0" encoding="UTF-8" standalone="no"?>
<svg
   xmlns:dc="http://purl.org/dc/elements/1.1/"
   xmlns:cc="http://creativecommons.org/ns#"
   xmlns:rdf="http://www.w3.org/1999/02/22-rdf-syntax-ns#"
   xmlns:svg="http://www.w3.org/2000/svg"
   xmlns="http://www.w3.org/2000/svg"
   xmlns:sodipodi="http://sodipodi.sourceforge.net/DTD/sodipodi-0.dtd"
   xmlns:inkscape="http://www.inkscape.org/namespaces/inkscape"
   width="10.16mm"
   height="128.5mm"
   viewBox="0 0 10.16 128.5"
   version="1.1"
   id="svg8"
   inkscape:version="1.0 (4035a4fb49, 2020-05-01)"
   sodipodi:docname="fizz.svg">
  <defs
     id="defs2" />
  <sodipodi:namedview
     inkscape:snap-grids="false"
     id="base"
     pagecolor="#ffffff"
     bordercolor="#666666"
     borderopacity="1.0"
     inkscape:pageopacity="0.0"
     inkscape:pageshadow="2"
     inkscape:zoom="2.8"
     inkscape:cx="97.925998"
     inkscape:cy="267.93692"
     inkscape:document-units="mm"
     inkscape:current-layer="layer1"
     showgrid="true"
     inkscape:window-width="2560"
     inkscape:window-height="1361"
     inkscape:window-x="-9"
     inkscape:window-y="-9"
     inkscape:window-maximized="1"
     inkscape:pagecheckerboard="true"
     inkscape:snap-to-guides="true"
     showguides="true"
     inkscape:guide-bbox="true"
     inkscape:snap-page="true"
     inkscape:snap-bbox="true"
     inkscape:snap-bbox-edge-midpoints="false"
     inkscape:snap-bbox-midpoints="true"
     inkscape:snap-object-midpoints="true"
     inkscape:snap-others="false"
     inkscape:object-nodes="false"
     inkscape:snap-nodes="true"
     inkscape:measure-start="-12.2321,122.857"
     inkscape:measure-end="-11.6964,83.125"
     inkscape:bbox-paths="false"
     inkscape:document-rotation="0">
    <inkscape:grid
       type="xygrid"
       id="grid5221"
       units="mm"
       originx="0"
       originy="0"
       spacingx="0.1"
       spacingy="0.1"
       enabled="true"
       visible="true" />
    <sodipodi:guide
       position="5.1000002,27.000001"
       orientation="1,0"
       id="guide5243"
       inkscape:locked="false" />
    <sodipodi:guide
       position="0.50000004,53.750004"
       orientation="1,0"
       id="guide5245"
       inkscape:locked="false" />
    <sodipodi:guide
       position="7.5000003,122.5"
       orientation="0,1"
       id="guide5258"
       inkscape:locked="false" />
    <sodipodi:guide
       position="10.500001,10"
       orientation="0,1"
       id="guide1037"
       inkscape:locked="false" />
  </sodipodi:namedview>
  <metadata
     id="metadata5">
    <rdf:RDF>
      <cc:Work
         rdf:about="">
        <dc:format>image/svg+xml</dc:format>
        <dc:type
           rdf:resource="http://purl.org/dc/dcmitype/StillImage" />
        <dc:title />
      </cc:Work>
    </rdf:RDF>
  </metadata>
  <g
     inkscape:label="Layer 1"
     inkscape:groupmode="layer"
     id="layer1"
     transform="translate(0,-168.5)"
     style="display:inline">
    <g
       id="g6612"
       transform="translate(0,168.51192)"
       style="fill:#a5d6a7">
      <g
         style="display:inline;fill:#a5d6a7"
         transform="translate(0,-168.5)"
         id="layer1-1"
         inkscape:label="Layer 1">
        <rect
           y="168.49998"
           x="0"
           height="128.5"
           width="10.16"
           id="rect5223"
           style="opacity:1;fill:#a5d6a7;fill-opacity:1;stroke-width:0.734802" />
      </g>
      <g
         style="display:inline;fill:#a5d6a7"
         inkscape:label="components"
         id="layer2-0">
        <g
           id="g2142"
           transform="matrix(0.99921929,0.03927901,-0.03927938,0.99922866,-20.964313,-68.54917)"
           style="fill:#a5d6a7" />
      </g>
    </g>
    <g
       style="display:inline;fill:#388e3c"
       id="g1162">
      <path
         id="rect182"
         d="M 1.8529411,276 H 8.3470588 C 9.0965881,276 9.7,276.70085 9.7,277.57143 v 7.85714 C 9.7,286.29915 9.0965881,287 8.3470588,287 H 1.8529411 c -0.7495293,0 -1.35294108,-0.70085 -1.35294108,-1.57143 v -7.85714 C 0.50000002,276.70085 1.1034118,276 1.8529411,276 Z"
         style="fill:#388e3c;fill-opacity:1;stroke-width:0.29162"
         inkscape:connector-curvature="0" />
    </g>
    <g
       style="font-size:2.82223px;line-height:1.25;font-family:'Londrina Solid';-inkscape-font-specification:'Londrina Solid, Normal';letter-spacing:0px;word-spacing:0px;fill:#388e3c;stroke-width:0.264583"
       id="text6521"
       aria-label="iL"
       transform="translate(-3.1750001,6.3500003)">
      <path
         id="path941"
         style="fill:#388e3c;stroke-width:0.264583"
         d="m 4.7594991,288.56443 q -0.090311,0.003 -0.1552227,0 -0.064911,-0.003 -0.1016003,-0.006 -0.014111,0 -0.042333,-0.003 -0.0254,-0.003 -0.036689,0 v 0.003 q -0.016933,0.16651 -0.016933,0.34431 0,0.17498 0.00564,0.35561 0.00564,0.18062 0.00564,0.36406 0.00282,0.18345 -0.011289,0.36125 0.019756,-0.006 0.079022,-0.003 0.059267,0.003 0.1241782,0.003 0.067734,0.003 0.1241781,0 0.056445,0 0.070556,-0.0169 -0.019756,-0.34149 -0.011289,-0.6971 0.011289,-0.3556 0.014111,-0.69709 v -0.008 z m -0.3471343,-0.61525 q -0.00282,0.12982 0.00282,0.22013 0.00847,0.0875 0.00847,0.16934 0.053622,-0.003 0.1157114,0.003 0.062089,0.003 0.1157115,0.006 0.056445,0 0.095956,-0.006 0.042333,-0.006 0.053622,-0.0226 0,-0.0423 -0.00282,-0.096 0,-0.0564 -0.00282,-0.10725 0,-0.0536 -0.00282,-0.0959 0,-0.0452 0,-0.0621 z" />
      <path
         id="path943"
         style="fill:#388e3c;stroke-width:0.264583"
         d="m 6.1876357,289.72719 q -0.00282,-0.0226 -0.00282,-0.0508 0.00282,-0.0311 0.00564,-0.0593 0.00282,-0.031 0.00282,-0.0621 -0.022578,0.003 -0.081845,0.003 -0.056445,-0.003 -0.1326448,-0.006 -0.073378,-0.003 -0.1580449,-0.006 -0.081845,-0.006 -0.1552227,-0.008 -0.073378,-0.003 -0.1298225,-0.003 -0.053622,-0.003 -0.073378,0.003 v -0.003 q 0.00282,-0.18062 0,-0.37253 0,-0.19473 -0.00282,-0.38947 -0.00282,-0.19473 -0.00564,-0.38664 0,-0.19474 0.00564,-0.37818 -0.039511,-0.0169 -0.1044226,-0.0254 -0.064911,-0.008 -0.1326448,-0.008 -0.067733,0 -0.1270003,0.008 -0.059267,0.006 -0.087489,0.0169 0.00282,0.19756 0.00564,0.36125 0.00282,0.16086 0.00564,0.3048 0.00282,0.14393 0.00282,0.28222 0,0.13829 -0.00282,0.28787 0,0.14675 -0.00564,0.31891 -0.00564,0.16933 -0.014111,0.381 v 0.0508 q 0.3414899,0.006 0.5446905,0.006 0.2060228,0 0.3217342,-0.003 0.1185336,-0.003 0.1665116,-0.006 0.0508,-0.003 0.081845,0 0.031045,0 0.047978,0 0.016933,-0.003 0.022578,-0.0254 0.00847,-0.0254 0.00847,-0.0762 0,-0.0536 -0.00564,-0.15522 z" />
    </g>
    <g
       transform="translate(-4.4062437e-6,32.999737)"
       style="font-size:2.82223px;line-height:1.25;font-family:'Londrina Solid';-inkscape-font-specification:'Londrina Solid, Normal';letter-spacing:0px;word-spacing:0px;stroke-width:0.264583"
       id="text6546"
       aria-label="fine" />
    <g
       aria-label="out"
       id="text907"
       style="font-size:2.82223px;line-height:1.25;font-family:'Londrina Solid';-inkscape-font-specification:'Londrina Solid, Normal';letter-spacing:0px;word-spacing:0px;fill:#ffffff;stroke-width:0.264583">
      <path
         d="m 3.391397,285.46956 q -0.00847,0.031 -0.0254,0.0847 -0.016933,0.0508 -0.019756,0.0818 -0.00847,0.0536 -0.011289,0.10443 -0.00282,0.048 -0.00282,0.0988 0.00847,0.0931 0.00282,0.20602 -0.00282,0.11289 0.00282,0.22578 0.00564,0.11006 0.033867,0.21166 0.028222,0.1016 0.1044225,0.16934 0.098778,0.0988 0.2427118,0.12418 0.079022,0 0.1749783,0.006 0.095956,0.008 0.1862672,0 0.090311,-0.006 0.1665115,-0.0339 0.079022,-0.0282 0.1270004,-0.096 0.028222,-0.0282 0.042333,-0.10442 0.016933,-0.0762 0.0254,-0.17216 0.011289,-0.096 0.014111,-0.20038 0.00564,-0.10442 0.00847,-0.18627 -0.00282,-0.0931 -0.00564,-0.18062 -0.00282,-0.0903 -0.014111,-0.16369 -0.011289,-0.0762 -0.033867,-0.13264 -0.022578,-0.0565 -0.062089,-0.0819 -0.059267,-0.0564 -0.1411115,-0.0847 -0.081845,-0.031 -0.172156,-0.0367 -0.059267,-0.006 -0.1128892,0 -0.0508,0.003 -0.1072448,-0.003 -0.067734,0 -0.135467,0.008 -0.064911,0.008 -0.1241781,0.031 -0.056445,0.0197 -0.1016003,0.0508 -0.042334,0.031 -0.062089,0.0734 z m 0.3527788,0.33303 q 0.036689,-0.0452 0.095956,-0.0621 0.110067,-0.0254 0.1778005,0.0197 0.067733,0.0452 0.081845,0.14394 0.016933,0.0818 0.00847,0.17498 -0.00564,0.0903 -0.016933,0.18062 -0.016933,0.0705 -0.064911,0.0931 -0.036689,0.0198 -0.093134,0.0282 -0.056445,0.006 -0.110067,-0.006 -0.0508,-0.0141 -0.087489,-0.048 -0.036689,-0.0367 -0.033867,-0.1016 0.00564,-0.0988 0.00564,-0.18627 0,-0.0903 0.011289,-0.18062 0.00847,-0.0452 0.0254,-0.0564 z"
         style="fill:#ffffff;stroke-width:0.264583"
         id="path910" />
      <path
         d="m 5.3197299,286.6041 q 0.00282,0.0395 0,0.0706 0,0.031 0.00564,0.079 0,0.008 0.022578,0.008 0.022578,0.003 0.0508,0 0.028222,-0.003 0.056445,-0.006 0.028222,-0.006 0.039511,-0.006 0.033867,-0.003 0.056445,-0.003 0.022578,-0.003 0.042333,-0.003 0.019756,0 0.042333,0.003 0.022578,0 0.056445,0.003 0.011289,-0.37254 0.00282,-0.71967 -0.00564,-0.34714 -0.00564,-0.69427 -0.067733,0.006 -0.1128892,0.003 -0.045156,-0.003 -0.081845,-0.003 -0.036689,-0.003 -0.073378,0 -0.033867,0.003 -0.081845,0.0169 v 0.0113 q -0.014111,0.0931 -0.014111,0.18627 0.00282,0.0931 0.00564,0.18909 0.00564,0.0931 0.00847,0.18909 0.00282,0.0959 -0.00282,0.19191 -0.00564,0.0762 -0.039511,0.11571 -0.033867,0.0367 -0.0762,0.0508 -0.042333,0.0113 -0.087489,0.006 -0.042333,-0.008 -0.064911,-0.0197 -0.00282,-0.003 -0.00564,-0.003 -0.00282,0 -0.00564,-0.003 -0.022578,-0.0169 -0.036689,-0.048 -0.011289,-0.031 -0.019756,-0.0706 -0.00564,-0.0395 -0.00847,-0.079 -0.00282,-0.0423 -0.00564,-0.0762 -0.00564,-0.0762 -0.00847,-0.16369 0,-0.0875 0,-0.17498 0.00282,-0.0875 0.00282,-0.16933 0,-0.0818 -0.00564,-0.14676 -0.098778,0 -0.1778005,0 -0.0762,-0.003 -0.1749783,0.0113 0.00564,0.096 0.00282,0.22296 -0.00282,0.127 -0.00564,0.26529 -0.00282,0.13546 -0.00564,0.27093 0,0.13264 0.00282,0.24553 0.00564,0.11289 0.019756,0.19474 0.016933,0.079 0.045156,0.10442 0.059267,0.0508 0.1326448,0.0706 0.073378,0.0197 0.1495782,0.0169 0.079022,-0.003 0.1524004,-0.0282 0.073378,-0.0254 0.1326448,-0.0677 0.014111,-0.0113 0.033867,-0.0226 0.022578,-0.0113 0.036689,-0.0198 z"
         style="fill:#ffffff;stroke-width:0.264583"
         id="path912" />
      <path
         d="m 6.4012612,284.82609 q -0.047978,0.006 -0.095956,0.003 -0.047978,-0.003 -0.095956,-0.006 -0.047978,-0.006 -0.093134,-0.008 -0.042333,-0.003 -0.079022,0.003 -0.00564,0.0536 -0.00847,0.12135 0,0.0677 0,0.14112 0,0.0734 0.00282,0.14675 0.00282,0.0706 0.00282,0.13265 -0.045156,0 -0.095956,0 -0.047978,0 -0.1044225,-0.003 l -0.00847,0.34432 q 0.059267,0 0.1072447,0 0.0508,0 0.095956,-0.003 -0.00282,0.20603 0.00282,0.40076 0.00564,0.19191 0.042333,0.40922 0.036689,0.0875 0.1185337,0.13829 0.084667,0.0508 0.1919116,0.0762 0.1072448,0.0254 0.2286007,0.0339 0.1213559,0.006 0.2342451,0 0.014111,-0.0423 0.016933,-0.0931 0.00564,-0.0508 0.00282,-0.1016 -0.00282,-0.0508 -0.00847,-0.0988 -0.00564,-0.048 -0.011289,-0.0875 -0.047978,0.003 -0.1128892,0 -0.062089,-0.003 -0.1241781,-0.0141 -0.062089,-0.0141 -0.1157115,-0.0367 -0.053622,-0.0226 -0.081845,-0.0621 -0.00282,-0.127 -0.00282,-0.27093 0,-0.14676 0,-0.29916 h 0.4374457 q -0.00564,-0.0367 -0.00282,-0.0875 0.00564,-0.0536 0.00847,-0.10442 0.00282,-0.0508 0,-0.0931 -0.00282,-0.0451 -0.022578,-0.0677 -0.1439337,0.008 -0.2427118,0.0141 -0.095956,0.006 -0.1834449,0.008 0,-0.0423 -0.00282,-0.0819 0,-0.0395 0,-0.0762 z"
         style="fill:#ffffff;stroke-width:0.264583"
         id="path914" />
    </g>
    <g
       style="font-size:11.2889px;line-height:1.25;font-family:'Londrina Solid';-inkscape-font-specification:'Londrina Solid, Normal';letter-spacing:0px;word-spacing:0px;fill:#388e3c;stroke-width:0.264583"
       id="text880"
       transform="rotate(90)"
       aria-label="fizz">
      <path
         id="path919"
         style="font-size:11.2889px;fill:#388e3c;stroke-width:0.264583"
         d="m 177.09915,-5.0520222 q 0.34996,0.011289 0.73378,0.033867 0.39511,0.022578 0.97085,0.056444 0.0226,-0.2144891 0.0339,-0.338667 0.0113,-0.1241779 0.0113,-0.2032002 0.0113,-0.079022 0.0113,-0.1467557 0,-0.079022 0,-0.2032002 0.0113,-0.1580446 0,-0.2709336 -0.0113,-0.124178 0.0113,-0.2483559 h -1.7272 q -0.0564,-0.2822225 0,-0.4967116 0.0677,-0.225778 0.32738,-0.2709336 0.15804,-0.022578 0.34995,-0.045156 0.19191,-0.033867 0.38383,-0.056444 0.19191,-0.022578 0.36124,-0.033867 0.18062,-0.011289 0.31609,0 0.0226,-0.1580446 0.0452,-0.3499559 0.0226,-0.1919113 0.0339,-0.3951115 0.0113,-0.2032002 -0.0113,-0.4064004 -0.0113,-0.2032002 -0.0677,-0.3725337 -0.53058,-0.022578 -1.09502,0.022578 -0.55316,0.033867 -1.02729,0.1919113 -0.38383,0.1241779 -0.62089,0.3838226 -0.23707,0.2483558 -0.37254,0.564445 -0.12417,0.3048003 -0.15804,0.6321784 -0.0339,0.3273781 -0.0113,0.6096006 -0.18062,-0.011289 -0.38382,-0.011289 -0.19191,0 -0.42898,0 l 0.0339,1.3772459 q 0.22577,-0.011289 0.41769,-0.011289 0.2032,0 0.38382,0 0,0.1693335 -0.0113,0.4854227 0,0.3160892 -0.0113,0.7224896 0,0.3951115 0,0.8240898 0,0.4289782 0,0.8240897 0.0113,0.3838226 0.0113,0.6999118 0.0113,0.3048003 0.0339,0.4402671 0.14675,0.022578 0.31608,0.011289 0.18063,-0.011289 0.37254,-0.022578 0.19191,-0.022578 0.38382,-0.033867 0.19191,-0.011289 0.38382,0.011289 v -1.5127126 z" />
      <path
         id="path921"
         style="font-size:11.2889px;fill:#388e3c;stroke-width:0.264583"
         d="m 180.72183,-6.7114906 q -0.36124,0.011289 -0.62089,0 -0.25964,-0.011289 -0.4064,-0.022578 -0.0564,0 -0.16933,-0.011289 -0.1016,-0.011289 -0.14676,0 v 0.011289 q -0.0677,0.6660452 -0.0677,1.3772459 0,0.6999118 0.0226,1.4224014 0.0226,0.7224896 0.0226,1.4562682 0.0113,0.7337785 -0.0452,1.4449792 0.079,-0.022578 0.31609,-0.011289 0.23707,0.011289 0.49671,0.011289 0.27093,0.011289 0.49671,0 0.22578,0 0.28222,-0.067733 -0.079,-1.3659569 -0.0451,-2.7883584 0.0451,-1.4224014 0.0564,-2.7883584 v -0.033867 z m -1.38853,-2.4609803 q -0.0113,0.5192895 0.0113,0.8805343 0.0339,0.3499559 0.0339,0.677334 0.21449,-0.011289 0.46285,0.011289 0.24835,0.011289 0.46284,0.022578 0.22578,0 0.38383,-0.022578 0.16933,-0.022578 0.21448,-0.090311 0,-0.1693335 -0.0113,-0.3838226 0,-0.225778 -0.0113,-0.4289782 0,-0.2144891 -0.0113,-0.3838226 0,-0.1806224 0,-0.2483558 z" />
      <path
         id="path923"
         style="font-size:11.2889px;fill:#388e3c;stroke-width:0.264583"
         d="m 186.17472,-6.6437572 q -0.0452,-0.022578 -0.24835,-0.011289 -0.19191,0 -0.42898,0.011289 -0.23707,0 -0.46285,0.011289 -0.21448,0 -0.3048,-0.022578 -0.6096,0 -1.4224,0.011289 -0.80151,0 -1.71591,0 0.0113,0.2483558 0,0.4289782 -0.0113,0.1806225 -0.0226,0.3612449 0,0.1693335 0,0.3838226 0,0.2144891 0.0226,0.5192894 0.24836,-0.033867 0.55316,-0.067733 0.31609,-0.033867 0.65475,-0.056445 0.33867,-0.022578 0.67734,-0.033867 0.33866,-0.011289 0.63218,-0.022578 -0.28223,0.338667 -0.62089,0.6660451 -0.33867,0.3160892 -0.68863,0.6434673 -0.34995,0.3160892 -0.67733,0.6547562 -0.32738,0.3273782 -0.59831,0.6773341 -0.0113,0.1693335 -0.0113,0.2935114 0.0113,0.1241779 0.0226,0.2709336 0.0113,0.1467557 0.0113,0.3499559 0.0113,0.2032002 0,0.5305783 0.54187,0 1.12889,0 0.58703,-0.011289 1.18534,-0.022578 0.59831,-0.011289 1.17404,-0.022578 0.58703,-0.011289 1.10632,-0.022578 0,-0.3951115 -0.0113,-0.8015119 -0.0113,-0.4064004 -0.0113,-0.7676452 -0.6096,0.090311 -1.25307,0.056445 -0.63218,-0.033867 -1.19662,0.011289 0.57573,-0.6434674 1.25307,-1.2643569 0.67733,-0.6321784 1.25306,-1.2530679 -0.0452,-0.3725337 -0.0226,-0.7224896 0.0226,-0.3612449 0.0226,-0.7902231 z" />
      <path
         id="path925"
         style="font-size:11.2889px;fill:#388e3c;stroke-width:0.264583"
         d="m 191.31206,-6.6437572 q -0.0452,-0.022578 -0.24836,-0.011289 -0.19191,0 -0.42898,0.011289 -0.23707,0 -0.46284,0.011289 -0.21449,0 -0.3048,-0.022578 -0.6096,0 -1.4224,0.011289 -0.80152,0 -1.71592,0 0.0113,0.2483558 0,0.4289782 -0.0113,0.1806225 -0.0226,0.3612449 0,0.1693335 0,0.3838226 0,0.2144891 0.0226,0.5192894 0.24836,-0.033867 0.55316,-0.067733 0.31609,-0.033867 0.65475,-0.056445 0.33867,-0.022578 0.67734,-0.033867 0.33867,-0.011289 0.63218,-0.022578 -0.28223,0.338667 -0.62089,0.6660451 -0.33867,0.3160892 -0.68863,0.6434673 -0.34995,0.3160892 -0.67733,0.6547562 -0.32738,0.3273782 -0.59831,0.6773341 -0.0113,0.1693335 -0.0113,0.2935114 0.0113,0.1241779 0.0226,0.2709336 0.0113,0.1467557 0.0113,0.3499559 0.0113,0.2032002 0,0.5305783 0.54186,0 1.12889,0 0.58702,-0.011289 1.18533,-0.022578 0.59831,-0.011289 1.17405,-0.022578 0.58702,-0.011289 1.10631,-0.022578 0,-0.3951115 -0.0113,-0.8015119 -0.0113,-0.4064004 -0.0113,-0.7676452 -0.6096,0.090311 -1.25307,0.056445 -0.63218,-0.033867 -1.19662,0.011289 0.57573,-0.6434674 1.25307,-1.2643569 0.67733,-0.6321784 1.25307,-1.2530679 -0.0452,-0.3725337 -0.0226,-0.7224896 0.0226,-0.3612449 0.0226,-0.7902225 z" />
    </g>
    <g
       transform="translate(36.203635,26.293113)"
       style="font-size:2.82223px;line-height:1.25;font-family:'Londrina Solid';-inkscape-font-specification:'Londrina Solid, Normal';letter-spacing:0px;word-spacing:0px;display:inline;fill:#388e3c;stroke-width:0.264583"
       id="text938-6"
       aria-label="V/oct">
      <path
         id="path940-9"
         style="fill:#388e3c;stroke-width:0.264583"
         d="m -32.744108,246.56959 q -0.04798,-0.008 -0.1016,-0.008 -0.0508,-0.003 -0.104422,-0.003 -0.0508,0 -0.101601,0 -0.0508,-0.003 -0.09878,-0.0141 -0.0056,0 -0.0056,0.006 -0.03104,0.11853 -0.05362,0.254 -0.02258,0.13547 -0.04798,0.29633 -0.0254,0.16087 -0.05927,0.35278 -0.03387,0.18909 -0.08749,0.41769 -0.05645,-0.2286 -0.08467,-0.44309 -0.0254,-0.21449 -0.03669,-0.39229 -0.01129,-0.1778 -0.01411,-0.3048 -0.0028,-0.127 -0.01411,-0.18344 -0.02258,-0.006 -0.08184,-0.008 -0.05927,-0.003 -0.124178,0 -0.06491,0 -0.121356,0.008 -0.05644,0.008 -0.07338,0.0282 v 0.003 q 0.03951,0.48825 0.121356,0.97085 0.08184,0.47978 0.208845,0.93698 0.04516,0.0141 0.107244,0.0169 0.06491,0.006 0.127001,0.006 0.05927,0 0.107244,-0.006 0.04798,-0.006 0.07056,-0.006 0.06773,-0.24554 0.129823,-0.4826 0.06209,-0.23989 0.121356,-0.47696 0.05927,-0.23707 0.112889,-0.47696 0.05644,-0.23989 0.104422,-0.49107 z" />
      <path
         id="path942-0"
         style="fill:#388e3c;stroke-width:0.264583"
         d="m -32.310542,248.07384 q 0.01693,-0.0423 0.03104,-0.0847 0.01693,-0.0423 0.03104,-0.0847 0.05644,-0.1524 0.104422,-0.3048 0.0508,-0.1524 0.104423,-0.30762 0.0254,-0.0762 0.05362,-0.1524 0.02822,-0.079 0.05645,-0.15805 0.05644,-0.18627 0.08467,-0.27658 0.02822,-0.0931 0.03951,-0.13264 0.0056,-0.0169 0.0085,-0.0254 0.0028,-0.0113 0.0085,-0.0254 -0.03387,-0.0169 -0.08184,-0.0198 -0.04798,-0.003 -0.09878,0 -0.0508,0.003 -0.1016,0.006 -0.0508,0 -0.09031,-0.008 -0.01976,0.079 -0.04233,0.15522 -0.02258,0.0762 -0.04516,0.13829 -0.01976,0.0593 -0.03387,0.0988 -0.01411,0.0395 -0.01693,0.0451 -0.02822,0.0819 -0.05362,0.16369 -0.02258,0.0819 -0.05362,0.16369 -0.08467,0.2286 -0.135467,0.36407 -0.0508,0.13547 -0.07902,0.21167 -0.0254,0.0762 -0.03669,0.10724 -0.0085,0.031 -0.01411,0.0508 -0.02822,0.0621 -0.0508,0.12418 -0.01976,0.0621 -0.03951,0.12418 -0.0028,0.0113 -0.01976,0.0536 -0.01693,0.0395 -0.03387,0.0847 -0.01411,0.0452 -0.02258,0.0818 -0.0085,0.0367 0.0028,0.0367 h 0.0028 q 0.09596,-0.003 0.155223,-0.003 0.06209,0 0.09878,0 0.03951,0 0.05927,0 0.02258,-0.003 0.03951,-0.006 0.0028,-0.003 0.0085,-0.0141 z" />
      <path
         id="path944-0"
         style="fill:#388e3c;stroke-width:0.264583"
         d="m -31.706717,247.21306 q -0.0085,0.031 -0.0254,0.0847 -0.01693,0.0508 -0.01975,0.0818 -0.0085,0.0536 -0.01129,0.10443 -0.0028,0.048 -0.0028,0.0988 0.0085,0.0931 0.0028,0.20602 -0.0028,0.11289 0.0028,0.22578 0.0056,0.11006 0.03387,0.21166 0.02822,0.1016 0.104422,0.16934 0.09878,0.0988 0.242712,0.12418 0.07902,0 0.174978,0.006 0.09596,0.008 0.186268,0 0.09031,-0.006 0.166511,-0.0339 0.07902,-0.0282 0.127001,-0.096 0.02822,-0.0282 0.04233,-0.10443 0.01693,-0.0762 0.0254,-0.17215 0.01129,-0.096 0.01411,-0.20038 0.0056,-0.10442 0.0085,-0.18627 -0.0028,-0.0931 -0.0056,-0.18062 -0.0028,-0.0903 -0.01411,-0.16369 -0.01129,-0.0762 -0.03387,-0.13264 -0.02258,-0.0565 -0.06209,-0.0819 -0.05927,-0.0564 -0.141112,-0.0847 -0.08184,-0.031 -0.172156,-0.0367 -0.05927,-0.006 -0.112889,0 -0.0508,0.003 -0.107245,-0.003 -0.06773,0 -0.135467,0.008 -0.06491,0.008 -0.124178,0.031 -0.05645,0.0198 -0.1016,0.0508 -0.04233,0.031 -0.06209,0.0734 z m 0.352778,0.33303 q 0.03669,-0.0452 0.09596,-0.0621 0.110067,-0.0254 0.177801,0.0197 0.06773,0.0452 0.08184,0.14394 0.01693,0.0818 0.0085,0.17497 -0.0056,0.0903 -0.01693,0.18063 -0.01693,0.0705 -0.06491,0.0931 -0.03669,0.0198 -0.09313,0.0282 -0.05645,0.006 -0.110067,-0.006 -0.0508,-0.0141 -0.08749,-0.048 -0.03669,-0.0367 -0.03387,-0.1016 0.0056,-0.0988 0.0056,-0.18627 0,-0.0903 0.01129,-0.18062 0.0085,-0.0452 0.0254,-0.0564 z" />
      <path
         id="path946-0"
         style="fill:#388e3c;stroke-width:0.264583"
         d="m -29.383272,247.95813 q -0.03104,-0.008 -0.07902,-0.008 -0.04798,-0.003 -0.1016,0 -0.05362,0.003 -0.1016,0.006 -0.04798,0 -0.0762,-0.003 -0.0085,0.0367 -0.0254,0.0847 -0.01411,0.0452 -0.04233,0.0649 -0.03387,0.0226 -0.09031,0.031 -0.05645,0.006 -0.110067,-0.006 -0.05362,-0.0141 -0.09313,-0.0508 -0.03669,-0.0367 -0.03104,-0.1016 0.0056,-0.0988 0.0056,-0.18909 0,-0.0903 0.01129,-0.1778 0.0085,-0.0452 0.0254,-0.0565 0.03669,-0.0451 0.09596,-0.0621 0.110067,-0.0282 0.1778,0.0282 0.06773,0.0536 0.08185,0.1524 0.03669,0.006 0.08185,0.0113 0.04798,0.006 0.09596,0.008 0.0508,0.003 0.09596,0.003 0.04798,0 0.08467,-0.008 -0.0028,-0.0931 -0.0056,-0.17216 0,-0.0819 -0.01129,-0.14676 -0.01129,-0.0649 -0.03387,-0.11289 -0.01976,-0.048 -0.05927,-0.0762 -0.05927,-0.0564 -0.141111,-0.0847 -0.08184,-0.0282 -0.172156,-0.0339 -0.05927,-0.006 -0.11289,0 -0.0508,0.003 -0.107244,-0.003 -0.06773,0 -0.135467,0.008 -0.06491,0.008 -0.124178,0.031 -0.05645,0.0198 -0.101601,0.0508 -0.04233,0.031 -0.06209,0.0734 -0.0085,0.0282 -0.0254,0.0818 -0.01693,0.0536 -0.01975,0.0847 -0.01693,0.1016 -0.01693,0.2032 0.01129,0.0931 0.0056,0.20602 -0.0028,0.11289 0.0028,0.22578 0.0056,0.11007 0.03387,0.21167 0.02822,0.1016 0.104422,0.16933 0.09878,0.0988 0.242712,0.12418 0.07902,0 0.174978,0.006 0.09596,0.008 0.186267,0 0.09031,-0.006 0.166512,-0.0339 0.07902,-0.0282 0.127,-0.096 0.01976,-0.0197 0.03105,-0.0621 0.01411,-0.0452 0.02258,-0.10442 0.0085,-0.0621 0.01411,-0.13264 0.0056,-0.0706 0.01129,-0.14394 z" />
      <path
         id="path948-5"
         style="fill:#388e3c;stroke-width:0.264583"
         d="m -28.718902,246.56959 q -0.04798,0.006 -0.09596,0.003 -0.04798,-0.003 -0.09596,-0.006 -0.04798,-0.006 -0.09313,-0.008 -0.04233,-0.003 -0.07902,0.003 -0.0056,0.0536 -0.0085,0.12135 0,0.0677 0,0.14112 0,0.0734 0.0028,0.14675 0.0028,0.0706 0.0028,0.13265 -0.04515,0 -0.09596,0 -0.04798,0 -0.104423,-0.003 l -0.0085,0.34432 q 0.05927,0 0.107245,0 0.0508,0 0.09596,-0.003 -0.0028,0.20603 0.0028,0.40076 0.0056,0.19191 0.04233,0.40922 0.03669,0.0875 0.118533,0.13829 0.08467,0.0508 0.191912,0.0762 0.107245,0.0254 0.228601,0.0339 0.121355,0.006 0.234245,0 0.01411,-0.0423 0.01693,-0.0931 0.0056,-0.0508 0.0028,-0.1016 -0.0028,-0.0508 -0.0085,-0.0988 -0.0056,-0.048 -0.01129,-0.0875 -0.04798,0.003 -0.11289,0 -0.06209,-0.003 -0.124178,-0.0141 -0.06209,-0.0141 -0.115711,-0.0367 -0.05362,-0.0226 -0.08184,-0.0621 -0.0028,-0.127 -0.0028,-0.27093 0,-0.14676 0,-0.29916 h 0.437446 q -0.0056,-0.0367 -0.0028,-0.0875 0.0056,-0.0536 0.0085,-0.10442 0.0028,-0.0508 0,-0.0931 -0.0028,-0.0452 -0.02258,-0.0677 -0.143933,0.008 -0.242712,0.0141 -0.09596,0.006 -0.183445,0.008 0,-0.0423 -0.0028,-0.0819 0,-0.0395 0,-0.0762 z" />
    </g>
    <g
       style="font-size:2.82223px;line-height:1.25;font-family:'Londrina Solid';-inkscape-font-specification:'Londrina Solid, Normal';letter-spacing:0px;word-spacing:0px;fill:#388e3c;stroke-width:0.264583"
       id="text1561"
       aria-label="gate">
      <path
         id="path1563"
         style="fill:#388e3c;stroke-width:0.264583"
         d="m 2.9726339,259.03682 q 0,-0.0282 0,-0.0536 0,-0.0282 0.00564,-0.0564 0.011289,-0.0649 0.039511,-0.12135 0.031045,-0.0593 0.073378,-0.10725 0.033867,-0.0282 0.0762,-0.0395 0.045156,-0.0141 0.090311,-0.008 0.045156,0.006 0.081845,0.031 0.039511,0.0226 0.056445,0.0649 0.028222,0.10724 0.031045,0.22578 0.00564,0.11571 0.00564,0.2286 -0.00282,0.0254 -0.00847,0.0536 -0.00282,0.0254 -0.011289,0.0508 -0.00847,0.0226 -0.022578,0.0423 -0.014111,0.0169 -0.039511,0.0254 -0.073378,0.0226 -0.1580448,0.0113 -0.084667,-0.0141 -0.1354671,-0.0762 -0.084667,-0.1016 -0.084667,-0.24553 z m 0.4882458,1.23331 q 0.033867,-0.003 0.073378,-0.0113 0.039511,-0.008 0.079022,-0.031 0.039511,-0.0197 0.079023,-0.0564 0.042333,-0.0367 0.081845,-0.0988 0.028222,-0.0452 0.0254,-0.11289 -0.00282,-0.0649 0,-0.13265 0.016933,-0.4064 0.014111,-0.79022 0,-0.38665 -0.011289,-0.73942 -0.095956,0 -0.1919117,-0.003 -0.095956,-0.006 -0.1890894,0.006 -0.00847,0.0141 -0.00847,0.0395 0.00282,0.0226 0.00282,0.048 0.00282,0.0226 0,0.0395 0,0.0141 -0.011289,0.008 -0.033867,-0.079 -0.1128892,-0.10724 -0.0762,-0.031 -0.1665116,-0.0254 -0.1806227,0.0113 -0.2765785,0.10442 -0.095956,0.0903 -0.1411115,0.22578 -0.042333,0.13265 -0.047978,0.28505 -0.00564,0.1524 -0.00564,0.28504 0.00564,0.0875 0.022578,0.17216 0.016933,0.0818 0.056445,0.15804 0.0254,0.0536 0.064911,0.0875 0.039511,0.0339 0.087489,0.0536 0.0508,0.0198 0.1044225,0.0282 0.056445,0.008 0.110067,0.008 0.039511,-0.003 0.084667,-0.003 0.045156,0 0.087489,-0.006 0.045156,-0.006 0.081845,-0.0198 0.039511,-0.0141 0.067733,-0.0452 -0.00564,0.0508 0,0.0988 0.00282,0.0226 0,0.0508 -0.00282,0.031 -0.00564,0.0593 -0.016933,0.079 -0.073378,0.11289 -0.053622,0.0339 -0.1128892,0.0282 -0.056445,-0.006 -0.1044225,-0.0508 -0.045156,-0.0423 -0.045156,-0.11571 -0.033867,-0.006 -0.084667,-0.0113 -0.047978,-0.003 -0.1016002,-0.006 -0.0508,0 -0.098778,0.003 -0.047978,0.006 -0.0762,0.0169 -0.00282,0.0226 -0.00282,0.0536 0.00282,0.031 0.00847,0.0649 0.00847,0.0339 0.016933,0.0649 0.011289,0.0339 0.022578,0.0536 0.064911,0.096 0.1693338,0.1524 0.1044225,0.0564 0.2370673,0.0564 0.1157114,0 0.1890894,0.003 0.073378,0.003 0.1016003,-0.003 z" />
      <path
         id="path1565"
         style="fill:#388e3c;stroke-width:0.264583"
         d="m 5.1480001,258.30022 q -0.090311,-0.006 -0.1608672,-0.008 -0.067734,-0.003 -0.1157114,-0.006 -0.00847,0 -0.031045,0 -0.022578,0 -0.045156,0 -0.022578,-0.003 -0.042333,0 -0.016933,0 -0.016933,0.003 0,0.0339 -0.00847,0.0677 -0.00564,0.0311 -0.00282,0.0762 -0.019756,-0.048 -0.047978,-0.0734 -0.028222,-0.0282 -0.064911,-0.0395 -0.036689,-0.0141 -0.081845,-0.0141 -0.042333,-0.003 -0.093134,-0.003 -0.098778,0.003 -0.1862672,0.0536 -0.087489,0.048 -0.1524004,0.13547 -0.062089,0.0847 -0.098778,0.2032 -0.036689,0.11853 -0.036689,0.25965 0,0.11288 0.022578,0.24553 0.0254,0.13264 0.0762,0.24553 0.0508,0.11289 0.1270003,0.18909 0.079023,0.0762 0.1890894,0.0762 0.098778,0 0.2003784,-0.048 0.1044225,-0.048 0.172156,-0.11572 0,0.0282 -0.00564,0.048 -0.00564,0.0198 -0.00564,0.0508 0,0.0226 0.00564,0.0395 0.00847,0.0169 0.028222,0.0226 0.031045,0 0.059267,-0.003 0.031045,-0.006 0.062089,-0.006 0.045156,0 0.090311,0.006 0.047978,0.003 0.093134,0.003 h 0.033867 q 0.033867,-0.006 0.033867,-0.0423 0.00282,-0.0367 0.00282,-0.0734 0.019756,-0.30198 0.00847,-0.59549 -0.011289,-0.29634 -0.00282,-0.60114 v -0.0282 q 0,-0.0169 -0.00282,-0.0339 0,-0.0169 -0.00282,-0.0339 z m -0.821269,0.56162 q 0.014111,-0.0705 0.079022,-0.12418 0.067734,-0.0564 0.183445,-0.0564 0.059267,0 0.087489,0.008 0.031045,0.008 0.042333,0.0395 0.014111,0.031 0.014111,0.0903 0.00282,0.0564 0.00282,0.15522 0,0.079 -0.00282,0.14393 0,0.0621 -0.016933,0.10725 -0.014111,0.0423 -0.0508,0.0677 -0.033867,0.0226 -0.1044225,0.0226 -0.1185337,0 -0.1862672,-0.0875 -0.064911,-0.0903 -0.064911,-0.21731 0,-0.0367 0.00282,-0.0734 0.00282,-0.0395 0.014111,-0.0762 z" />
      <path
         id="path1567"
         style="fill:#388e3c;stroke-width:0.264583"
         d="m 5.8607897,257.77528 q -0.047978,0.006 -0.095956,0.003 -0.047978,-0.003 -0.095956,-0.006 -0.047978,-0.006 -0.093134,-0.008 -0.042333,-0.003 -0.079022,0.003 -0.00564,0.0536 -0.00847,0.12135 0,0.0677 0,0.14111 0,0.0734 0.00282,0.14676 0.00282,0.0706 0.00282,0.13264 -0.045156,0 -0.095956,0 -0.047978,0 -0.1044225,-0.003 l -0.00847,0.34431 q 0.059267,0 0.1072448,0 0.0508,0 0.095956,-0.003 -0.00282,0.20602 0.00282,0.40076 0.00564,0.19191 0.042333,0.40922 0.036689,0.0875 0.1185336,0.13829 0.084667,0.0508 0.1919117,0.0762 0.1072447,0.0254 0.2286006,0.0339 0.1213559,0.006 0.2342451,0 0.014111,-0.0423 0.016933,-0.0931 0.00564,-0.0508 0.00282,-0.1016 -0.00282,-0.0508 -0.00847,-0.0988 -0.00564,-0.048 -0.011289,-0.0875 -0.047978,0.003 -0.1128892,0 -0.062089,-0.003 -0.1241781,-0.0141 -0.062089,-0.0141 -0.1157114,-0.0367 -0.053622,-0.0226 -0.081845,-0.0621 -0.00282,-0.127 -0.00282,-0.27094 0,-0.14675 0,-0.29915 H 6.306702 q -0.00564,-0.0367 -0.00282,-0.0875 0.00564,-0.0536 0.00847,-0.10442 0.00282,-0.0508 0,-0.0931 -0.00282,-0.0451 -0.022578,-0.0677 -0.1439337,0.008 -0.2427117,0.0141 -0.095956,0.006 -0.183445,0.008 0,-0.0423 -0.00282,-0.0818 0,-0.0395 0,-0.0762 z" />
      <path
         id="path1569"
         style="fill:#388e3c;stroke-width:0.264583"
         d="m 6.7856873,258.99731 q 0.028222,0.006 0.090311,0.008 0.062089,0.003 0.1382892,0.003 0.079022,0 0.1636894,-0.003 0.084667,-0.003 0.1580449,-0.008 0.0762,-0.006 0.1298226,-0.0113 0.056445,-0.006 0.0762,-0.0113 0.00847,-0.11853 0,-0.23424 -0.00847,-0.11572 -0.0508,-0.21167 -0.039511,-0.096 -0.1185336,-0.16369 -0.079023,-0.0677 -0.2088451,-0.0903 -0.1016002,-0.0254 -0.208845,-0.0226 -0.1072447,0.003 -0.2032006,0.0339 -0.095956,0.0282 -0.172156,0.0875 -0.0762,0.0564 -0.1128892,0.13829 -0.033867,0.0931 -0.045156,0.19191 -0.00847,0.096 -0.016933,0.20038 -0.00564,0.11571 0.00564,0.23142 0.011289,0.11571 0.042333,0.22013 0.031045,0.1016 0.081845,0.18909 0.0508,0.0847 0.1270004,0.13829 0.067734,0.0395 0.1467559,0.0508 0.079022,0 0.1721561,0.006 0.095956,0.006 0.1862672,0 0.090311,-0.006 0.1665115,-0.0339 0.0762,-0.0282 0.1241782,-0.096 0.019756,-0.0169 0.031045,-0.0593 0.014111,-0.0452 0.022578,-0.10443 0.00847,-0.0621 0.014111,-0.13264 0.00564,-0.0706 0.011289,-0.14394 -0.031045,-0.008 -0.079022,-0.008 -0.047978,-0.003 -0.1016003,0 -0.0508,0.003 -0.098778,0.006 -0.047978,0 -0.0762,-0.003 0.00564,0.11571 -0.036689,0.17498 -0.039511,0.0564 -0.098778,0.0677 -0.059267,0.0113 -0.1213559,-0.0197 -0.062089,-0.031 -0.095956,-0.096 -0.031045,-0.0508 -0.036689,-0.10442 -0.00282,-0.0536 -0.00564,-0.13829 z m 0.3414898,-0.43745 q 0.0508,0.0254 0.079022,0.0762 0.031045,0.0508 0.031045,0.10725 0,0.0226 0,0.031 0,0.006 -0.016933,0.008 -0.014111,0 -0.0508,-0.003 -0.036689,-0.003 -0.110067,-0.003 -0.1072447,0 -0.1636893,0.003 -0.053622,0 -0.079022,-0.003 -0.0254,-0.006 -0.028222,-0.0169 0,-0.0141 0.00564,-0.0452 0.00564,-0.0367 0.016933,-0.0706 0.014111,-0.0339 0.039511,-0.0593 0.0254,-0.0254 0.067734,-0.0395 0.042333,-0.0141 0.110067,-0.0141 0.031045,0 0.053622,0.008 0.022578,0.006 0.045156,0.0197 z" />
    </g>
    <g
       transform="translate(0,1.5875)"
       style="font-size:2.82223px;line-height:1.25;font-family:'Londrina Solid';-inkscape-font-specification:'Londrina Solid, Normal';letter-spacing:0px;word-spacing:0px;fill:#388e3c;stroke-width:0.264583"
       id="text1604"
       aria-label="vel">
      <path
         id="path1606"
         style="fill:#388e3c;stroke-width:0.264583"
         d="m 4.0281901,243.38211 q -0.090311,-0.0113 -0.1919117,-0.003 -0.098778,0.006 -0.2003783,-0.006 0.090311,0.33303 0.1636893,0.69992 0.073378,0.36689 0.1298226,0.71967 0.053622,0 0.1213559,0 0.070556,0.003 0.1411115,0.003 0.073378,0.003 0.1411115,0 0.070556,0 0.1270004,-0.008 0.047978,-0.1778 0.087489,-0.35842 0.039511,-0.18345 0.079022,-0.36407 0.039511,-0.18062 0.081845,-0.35278 0.045156,-0.17498 0.1044225,-0.33584 -0.059267,-0.003 -0.1072447,-0.003 -0.047978,0 -0.093134,0.003 -0.045156,0.003 -0.087489,0.006 -0.042333,0.003 -0.090311,0.003 -0.033867,0.0847 -0.062089,0.21449 -0.028222,0.12983 -0.053622,0.26811 -0.022578,0.13829 -0.047978,0.26812 -0.0254,0.127 -0.056445,0.21166 -0.031045,-0.0847 -0.056445,-0.20602 -0.0254,-0.12418 -0.047978,-0.25964 -0.022578,-0.13547 -0.042333,-0.26529 -0.019756,-0.13265 -0.039511,-0.23425 z" />
      <path
         id="path1608"
         style="fill:#388e3c;stroke-width:0.264583"
         d="m 5.2192152,244.07638 q 0.028222,0.006 0.090311,0.008 0.062089,0.003 0.1382893,0.003 0.079022,0 0.1636893,-0.003 0.084667,-0.003 0.1580449,-0.008 0.0762,-0.006 0.1298226,-0.0113 0.056445,-0.006 0.0762,-0.0113 0.00847,-0.11853 0,-0.23424 -0.00847,-0.11571 -0.0508,-0.21167 -0.039511,-0.096 -0.1185337,-0.16369 -0.079022,-0.0677 -0.208845,-0.0903 -0.1016003,-0.0254 -0.208845,-0.0226 -0.1072448,0.003 -0.2032006,0.0339 -0.095956,0.0282 -0.172156,0.0875 -0.0762,0.0564 -0.1128893,0.13829 -0.033867,0.0931 -0.045156,0.19191 -0.00847,0.0959 -0.016933,0.20038 -0.00564,0.11571 0.00564,0.23142 0.011289,0.11571 0.042333,0.22013 0.031045,0.1016 0.081845,0.18909 0.0508,0.0847 0.1270003,0.13829 0.067734,0.0395 0.146756,0.0508 0.079022,0 0.172156,0.006 0.095956,0.006 0.1862672,0 0.090311,-0.006 0.1665116,-0.0339 0.0762,-0.0282 0.1241781,-0.096 0.019756,-0.0169 0.031045,-0.0593 0.014111,-0.0452 0.022578,-0.10443 0.00847,-0.0621 0.014111,-0.13264 0.00564,-0.0706 0.011289,-0.14393 -0.031045,-0.008 -0.079022,-0.008 -0.047978,-0.003 -0.1016003,0 -0.0508,0.003 -0.098778,0.006 -0.047978,0 -0.0762,-0.003 0.00564,0.11571 -0.036689,0.17498 -0.039511,0.0564 -0.098778,0.0677 -0.059267,0.0113 -0.1213559,-0.0198 -0.062089,-0.031 -0.095956,-0.096 -0.031044,-0.0508 -0.036689,-0.10442 -0.00282,-0.0536 -0.00564,-0.13829 z m 0.3414899,-0.43745 q 0.0508,0.0254 0.079022,0.0762 0.031045,0.0508 0.031045,0.10725 0,0.0226 0,0.031 0,0.006 -0.016933,0.008 -0.014111,0 -0.0508,-0.003 -0.036689,-0.003 -0.1100669,-0.003 -0.1072448,0 -0.1636894,0.003 -0.053622,0 -0.079022,-0.003 -0.0254,-0.006 -0.028222,-0.0169 0,-0.0141 0.00564,-0.0452 0.00564,-0.0367 0.016933,-0.0706 0.014111,-0.0339 0.039511,-0.0593 0.0254,-0.0254 0.067734,-0.0395 0.042333,-0.0141 0.1100669,-0.0141 0.031045,0 0.053622,0.008 0.022578,0.006 0.045156,0.0197 z" />
      <path
         id="path1610"
         style="fill:#388e3c;stroke-width:0.264583"
         d="m 6.1402765,242.733 q -0.0254,0.25682 -0.0254,0.51364 0.00282,0.25683 0.011289,0.51365 0.00847,0.25682 0.011289,0.51365 0.00564,0.25682 -0.014111,0.51082 0.019756,-0.006 0.079023,-0.003 0.059267,0.003 0.1241781,0.003 0.067734,0.003 0.1241781,0 0.056445,0 0.070556,-0.0169 -0.00564,-0.11289 -0.00847,-0.27376 -0.00282,-0.16369 -0.00282,-0.34996 0,-0.18626 0,-0.38664 0.00282,-0.20038 0.00564,-0.38665 0.00282,-0.18626 0.00564,-0.34995 0.00282,-0.16369 0.00282,-0.27941 z" />
    </g>
  </g>
  <g
     inkscape:groupmode="layer"
     id="layer2"
     inkscape:label="components"
     style="display:none">
    <circle
       cy="84.216965"
       cx="5.0999999"
       id="circle164-0"
       style="display:inline;fill:#00ff00;stroke-width:0.249078"
       inkscape:label="_b"
       r="4.25" />
    <circle
       transform="translate(0,-168.5)"
       style="display:inline;fill:#0000ff;stroke-width:0.249078"
       id="circle166"
       cx="5.0999999"
       cy="280.5"
       inkscape:label="_mix"
       r="4.25" />
    <circle
       r="4.25"
       inkscape:label="_b"
       style="display:inline;fill:#00ff00;stroke-width:0.249078"
       id="circle6493"
       cx="5.0999999"
       cy="98.524254" />
  </g>
  <g
     style="display:none"
     transform="translate(-87.347613,-38.212433)"
     id="layer1-4"
     inkscape:label="Layer 1">
    <path
       style="fill:#eeeeee;fill-opacity:1;fill-rule:nonzero;stroke:#424242;stroke-width:0.229573;stroke-miterlimit:4;stroke-dasharray:none;stroke-opacity:1"
       d="m 92.447612,126.75672 c -2.052551,0 -3.721671,-1.66911 -3.721671,-3.72168 0,-2.05252 1.66912,-3.72166 3.721671,-3.72166 2.052549,0 3.721672,1.66914 3.721672,3.72166 0,2.05257 -1.669123,3.72168 -3.721672,3.72168"
       id="path7255"
       inkscape:connector-curvature="0" />
    <path
       style="fill:#f5f5f5;fill-opacity:1;fill-rule:nonzero;stroke:#424242;stroke-width:0.229573;stroke-miterlimit:4;stroke-dasharray:none;stroke-opacity:1"
       d="m 92.447612,125.71528 c -1.478038,0 -2.680211,-1.2022 -2.680211,-2.68024 0,-1.47802 1.202173,-2.68019 2.680211,-2.68019 1.47804,0 2.680209,1.20217 2.680209,2.68019 0,1.47804 -1.202169,2.68024 -2.680209,2.68024"
       id="path7261"
       inkscape:connector-curvature="0" />
    <path
       style="fill:#212121;fill-opacity:1;fill-rule:nonzero;stroke:none;stroke-width:0.323954"
       d="m 94.100282,123.03504 c 0,0.91239 -0.740286,1.65269 -1.65267,1.65269 -0.912386,0 -1.652672,-0.7403 -1.652672,-1.65269 0,-0.91237 0.740286,-1.65264 1.652672,-1.65264 0.912384,0 1.65267,0.74027 1.65267,1.65264"
       id="path7265"
       inkscape:connector-curvature="0" />
  </g>
</svg>
