<?xml version="1.0" encoding="UTF-8" standalone="no"?>
<svg
   xmlns:dc="http://purl.org/dc/elements/1.1/"
   xmlns:cc="http://creativecommons.org/ns#"
   xmlns:rdf="http://www.w3.org/1999/02/22-rdf-syntax-ns#"
   xmlns:svg="http://www.w3.org/2000/svg"
   xmlns="http://www.w3.org/2000/svg"
   xmlns:sodipodi="http://sodipodi.sourceforge.net/DTD/sodipodi-0.dtd"
   xmlns:inkscape="http://www.inkscape.org/namespaces/inkscape"
   sodipodi:docname="pricetag.svg"
   inkscape:version="1.0 (4035a4fb49, 2020-05-01)"
   id="svg8"
   version="1.1"
   viewBox="0 0 25.4 128.5"
   height="128.5mm"
   width="25.4mm">
  <defs
     id="defs2" />
  <sodipodi:namedview
     inkscape:window-maximized="1"
     inkscape:window-y="-9"
     inkscape:window-x="-9"
     inkscape:window-height="1361"
     inkscape:window-width="2560"
     showgrid="false"
     inkscape:document-rotation="0"
     inkscape:current-layer="layer1"
     inkscape:document-units="mm"
     inkscape:cy="255.09454"
     inkscape:cx="-41.003813"
     inkscape:zoom="1.979899"
     inkscape:pageshadow="2"
     inkscape:pageopacity="0.0"
     borderopacity="1.0"
     bordercolor="#666666"
     pagecolor="#ffffff"
     id="base" />
  <metadata
     id="metadata5">
    <rdf:RDF>
      <cc:Work
         rdf:about="">
        <dc:format>image/svg+xml</dc:format>
        <dc:type
           rdf:resource="http://purl.org/dc/dcmitype/StillImage" />
        <dc:title></dc:title>
      </cc:Work>
    </rdf:RDF>
  </metadata>
  <g
     id="layer1"
     inkscape:groupmode="layer"
     inkscape:label="Layer 1">
    <rect
       inkscape:transform-center-y="-29.309011"
       inkscape:transform-center-x="60.019077"
       inkscape:label="background fill"
       y="0"
       x="0"
       height="128.44171"
       width="25.35759"
       id="rect837"
       style="display:inline;fill:#90a4ae;stroke:none;stroke-width:0.98712" />
    <rect
       inkscape:transform-center-y="29.443487"
       inkscape:transform-center-x="59.976669"
       style="display:inline;fill:#37474f;fill-opacity:1;stroke:none;stroke-width:1.99139"
       id="rect1002"
       width="25.35759"
       height="11.053303"
       x="0.042409543"
       y="117.4467" />
    <rect
       inkscape:transform-center-y="-86.03327"
       inkscape:transform-center-x="60.019077"
       y="0"
       x="0"
       height="14.993196"
       width="25.35759"
       id="rect1488"
       style="display:inline;fill:#37474f;fill-opacity:1;stroke:none;stroke-width:2.31929" />
    <g
       inkscape:transform-center-y="29.362808"
       inkscape:transform-center-x="60.019075"
       style="font-size:4.23333px;line-height:1.25;font-family:'Londrina Solid';-inkscape-font-specification:'Londrina Solid, Normal';letter-spacing:0px;word-spacing:0px;display:inline;fill:#eceff1;stroke-width:0.264583"
       id="text6945"
       aria-label="iggy.labs"
       transform="matrix(0.99833035,0,0,0.99954636,0.0424086,0.00536793)">
      <path
         id="path6947"
         style="font-size:4.23333px;fill:#eceff1;stroke-width:0.264583"
         d="m 6.202784,121.92612 q -0.1354665,0.004 -0.2328331,0 -0.097367,-0.004 -0.1523999,-0.008 -0.021167,0 -0.0635,-0.004 -0.0381,-0.004 -0.055033,0 v 0.004 q -0.0254,0.24976 -0.0254,0.51646 0,0.26247 0.00847,0.5334 0.00847,0.27094 0.00847,0.5461 0.00423,0.27517 -0.016933,0.54187 0.029633,-0.008 0.1185332,-0.004 0.0889,0.004 0.1862665,0.004 0.1015999,0.004 0.1862665,0 0.084667,0 0.1058333,-0.0254 -0.029633,-0.51223 -0.016933,-1.04563 0.016933,-0.5334 0.021167,-1.04564 v -0.0127 z m -0.5206996,-0.92286 q -0.00423,0.19473 0.00423,0.3302 0.0127,0.13123 0.0127,0.254 0.080433,-0.004 0.1735665,0.004 0.093133,0.004 0.1735665,0.008 0.084667,0 0.1439332,-0.008 0.0635,-0.008 0.080433,-0.0339 0,-0.0635 -0.00423,-0.14393 0,-0.0847 -0.00423,-0.16087 0,-0.0804 -0.00423,-0.14393 0,-0.0677 0,-0.0931 z" />
      <path
         id="path6949"
         style="font-size:4.23333px;fill:#eceff1;stroke-width:0.264583"
         d="m 6.981849,123.05219 q 0,-0.0423 0,-0.0804 0,-0.0423 0.00847,-0.0847 0.016933,-0.0974 0.059267,-0.18203 0.046567,-0.0889 0.1100666,-0.16087 0.0508,-0.0423 0.1142999,-0.0593 0.067733,-0.0212 0.1354665,-0.0127 0.067733,0.008 0.1227666,0.0466 0.059267,0.0339 0.084667,0.0974 0.042333,0.16086 0.046567,0.33866 0.00847,0.17357 0.00847,0.3429 -0.00423,0.0381 -0.0127,0.0804 -0.00423,0.0381 -0.016933,0.0762 -0.0127,0.0339 -0.033867,0.0635 -0.021167,0.0254 -0.059267,0.0381 -0.1100666,0.0339 -0.2370665,0.0169 -0.1269999,-0.0212 -0.2031998,-0.1143 -0.1269999,-0.1524 -0.1269999,-0.3683 z m 0.7323661,1.84996 q 0.0508,-0.004 0.1100665,-0.0169 0.059267,-0.0127 0.1185333,-0.0466 0.059267,-0.0296 0.1185332,-0.0847 0.0635,-0.055 0.1227666,-0.14817 0.042333,-0.0677 0.0381,-0.16933 -0.00423,-0.0974 0,-0.19897 0.0254,-0.6096 0.021167,-1.18533 0,-0.57997 -0.016933,-1.10913 -0.1439333,0 -0.2878665,-0.004 -0.1439332,-0.008 -0.2836331,0.008 -0.0127,0.0212 -0.0127,0.0593 0.00423,0.0339 0.00423,0.072 0.00423,0.0339 0,0.0593 0,0.0212 -0.016933,0.0127 -0.0508,-0.11853 -0.1693332,-0.16087 -0.1142999,-0.0466 -0.2497665,-0.0381 -0.2709331,0.0169 -0.4148663,0.15664 -0.1439332,0.13546 -0.2116665,0.33866 -0.0635,0.19897 -0.071967,0.42757 -0.00847,0.2286 -0.00847,0.42757 0.00847,0.13123 0.033867,0.25823 0.0254,0.12277 0.084667,0.23707 0.0381,0.0804 0.097367,0.13123 0.059267,0.0508 0.1312332,0.0804 0.0762,0.0296 0.1566332,0.0423 0.084667,0.0127 0.1650998,0.0127 0.059267,-0.004 0.1269999,-0.004 0.067733,0 0.1312333,-0.008 0.067733,-0.008 0.1227665,-0.0296 0.059267,-0.0212 0.1015999,-0.0677 -0.00847,0.0762 0,0.14817 0.00423,0.0339 0,0.0762 -0.00423,0.0466 -0.00847,0.0889 -0.0254,0.11853 -0.1100666,0.16933 -0.080433,0.0508 -0.1693332,0.0423 -0.084667,-0.008 -0.1566332,-0.0762 -0.067733,-0.0635 -0.067733,-0.17356 -0.0508,-0.008 -0.1269999,-0.0169 -0.071967,-0.004 -0.1523998,-0.008 -0.0762,0 -0.1481666,0.004 -0.071967,0.008 -0.1142999,0.0254 -0.00423,0.0339 -0.00423,0.0804 0.00423,0.0466 0.0127,0.0974 0.0127,0.0508 0.0254,0.0974 0.016933,0.0508 0.033867,0.0804 0.097367,0.14393 0.2539998,0.2286 0.1566332,0.0847 0.3555997,0.0847 0.1735665,0 0.2836331,0.004 0.1100666,0.004 0.1523999,-0.004 z" />
      <path
         id="path6951"
         style="font-size:4.23333px;fill:#eceff1;stroke-width:0.264583"
         d="m 8.9579541,123.05219 q 0,-0.0423 0,-0.0804 0,-0.0423 0.00847,-0.0847 0.016933,-0.0974 0.059267,-0.18203 0.046567,-0.0889 0.1100666,-0.16087 0.0508,-0.0423 0.1142999,-0.0593 0.067733,-0.0212 0.1354665,-0.0127 0.067733,0.008 0.1227666,0.0466 0.059267,0.0339 0.084667,0.0974 0.042333,0.16086 0.046567,0.33866 0.00847,0.17357 0.00847,0.3429 -0.00423,0.0381 -0.0127,0.0804 -0.00423,0.0381 -0.016933,0.0762 -0.0127,0.0339 -0.033867,0.0635 -0.021167,0.0254 -0.059267,0.0381 -0.1100666,0.0339 -0.2370665,0.0169 -0.1269999,-0.0212 -0.2031998,-0.1143 -0.1269999,-0.1524 -0.1269999,-0.3683 z m 0.7323661,1.84996 q 0.0508,-0.004 0.1100665,-0.0169 0.059267,-0.0127 0.1185333,-0.0466 0.059267,-0.0296 0.118533,-0.0847 0.0635,-0.055 0.122767,-0.14817 0.04233,-0.0677 0.0381,-0.16933 -0.0042,-0.0974 0,-0.19897 0.0254,-0.6096 0.02117,-1.18533 0,-0.57997 -0.01693,-1.10913 -0.143933,0 -0.2878664,-0.004 -0.1439332,-0.008 -0.2836331,0.008 -0.0127,0.0212 -0.0127,0.0593 0.00423,0.0339 0.00423,0.072 0.00423,0.0339 0,0.0593 0,0.0212 -0.016933,0.0127 -0.0508,-0.11853 -0.1693332,-0.16087 -0.1142999,-0.0466 -0.2497665,-0.0381 -0.2709331,0.0169 -0.4148663,0.15664 -0.1439332,0.13546 -0.2116665,0.33866 -0.0635,0.19897 -0.071967,0.42757 -0.00847,0.2286 -0.00847,0.42757 0.00847,0.13123 0.033867,0.25823 0.0254,0.12277 0.084667,0.23707 0.0381,0.0804 0.097367,0.13123 0.059267,0.0508 0.1312332,0.0804 0.0762,0.0296 0.1566332,0.0423 0.084667,0.0127 0.1650998,0.0127 0.059267,-0.004 0.1269999,-0.004 0.067733,0 0.1312333,-0.008 0.067733,-0.008 0.1227665,-0.0296 0.059267,-0.0212 0.1015999,-0.0677 -0.00847,0.0762 0,0.14817 0.00423,0.0339 0,0.0762 -0.00423,0.0466 -0.00847,0.0889 -0.0254,0.11853 -0.1100666,0.16933 -0.080433,0.0508 -0.1693332,0.0423 -0.084667,-0.008 -0.1566332,-0.0762 -0.067733,-0.0635 -0.067733,-0.17356 -0.0508,-0.008 -0.1269999,-0.0169 -0.071967,-0.004 -0.1523998,-0.008 -0.0762,0 -0.1481666,0.004 -0.071967,0.008 -0.1142999,0.0254 -0.00423,0.0339 -0.00423,0.0804 0.00423,0.0466 0.0127,0.0974 0.0127,0.0508 0.0254,0.0974 0.016933,0.0508 0.033867,0.0804 0.097367,0.14393 0.2539998,0.2286 0.1566332,0.0847 0.3555997,0.0847 0.1735665,0 0.2836331,0.004 0.1100666,0.004 0.1523999,-0.004 z" />
      <path
         id="path6953"
         style="font-size:4.23333px;fill:#eceff1;stroke-width:0.264583"
         d="m 11.001793,121.95152 q -0.135467,-0.0169 -0.3048,-0.004 -0.169333,0.008 -0.321733,-0.008 0.131233,0.47837 0.2667,0.9906 0.135466,0.51224 0.224366,1.02447 0.02117,0.1397 -0.0254,0.2032 -0.04233,0.0635 -0.127,0.0804 -0.08467,0.0212 -0.194733,0.0127 -0.105833,-0.008 -0.207433,-0.008 -0.02117,0.11853 -0.01693,0.27516 0,0.16087 0.04233,0.28787 0.359833,0.0212 0.605366,-0.055 0.249766,-0.0762 0.414866,-0.22436 0.169333,-0.14394 0.270933,-0.3429 0.1016,-0.19897 0.1651,-0.4191 0.06773,-0.22013 0.110067,-0.44873 0.04657,-0.2286 0.1016,-0.43604 0.0508,-0.22013 0.1016,-0.44873 0.05503,-0.23283 0.122766,-0.48683 -0.1778,-0.0127 -0.325966,-0.004 -0.148167,0.008 -0.2921,0.004 -0.0508,0.127 -0.08467,0.33443 -0.03387,0.20743 -0.0635,0.4318 -0.0254,0.22437 -0.05503,0.4318 -0.02963,0.20743 -0.0762,0.33443 -0.04657,-0.127 -0.09313,-0.32173 -0.04657,-0.19897 -0.0889,-0.41487 -0.04233,-0.2159 -0.08043,-0.42333 -0.0381,-0.21167 -0.06773,-0.36407 z" />
      <path
         id="path6955"
         style="font-size:4.23333px;fill:#eceff1;stroke-width:0.264583"
         d="m 12.783693,124.05549 v -0.004 -0.004 q 0,-0.0296 0.0042,-0.11006 0.0042,-0.0804 0.0085,-0.1651 0.0042,-0.0847 0.0085,-0.14817 0.0042,-0.0677 0.0042,-0.072 -0.02963,-0.0127 -0.101599,-0.0169 -0.06773,-0.008 -0.148167,-0.008 -0.08043,0 -0.160867,0.008 -0.0762,0.008 -0.118533,0.0254 0,0.0296 -0.0042,0.0931 0,0.0635 -0.0042,0.13547 0,0.072 0,0.14393 0.0042,0.072 0.0127,0.11854 h 0.0127 l 0.478366,0.004 z" />
      <path
         id="path6957"
         style="font-size:4.23333px;fill:#eceff1;stroke-width:0.264583"
         d="m 13.107345,120.97786 q -0.0381,0.38523 -0.0381,0.77046 0.0042,0.38524 0.01693,0.77047 0.0127,0.38523 0.01693,0.77047 0.0085,0.38523 -0.02117,0.76623 0.02963,-0.008 0.118533,-0.004 0.0889,0.004 0.186267,0.004 0.1016,0.004 0.186266,0 0.08467,0 0.105833,-0.0254 -0.0085,-0.16933 -0.0127,-0.41063 -0.0042,-0.24554 -0.0042,-0.52494 0,-0.2794 0,-0.57996 0.0042,-0.30057 0.0085,-0.57997 0.0042,-0.2794 0.0085,-0.52493 0.0042,-0.24554 0.0042,-0.4191 z" />
      <path
         id="path6959"
         style="font-size:4.23333px;fill:#eceff1;stroke-width:0.264583"
         d="m 15.66884,121.94729 q -0.135467,-0.008 -0.2413,-0.0127 -0.1016,-0.004 -0.173566,-0.008 -0.0127,0 -0.04657,0 -0.03387,0 -0.06773,0 -0.03387,-0.004 -0.0635,0 -0.0254,0 -0.0254,0.004 0,0.0508 -0.0127,0.1016 -0.0085,0.0466 -0.0042,0.1143 -0.02963,-0.072 -0.07197,-0.11007 -0.04233,-0.0423 -0.09737,-0.0593 -0.05503,-0.0212 -0.122766,-0.0212 -0.0635,-0.004 -0.1397,-0.004 -0.148167,0.004 -0.2794,0.0804 -0.131233,0.072 -0.2286,0.2032 -0.09313,0.127 -0.148166,0.3048 -0.05503,0.1778 -0.05503,0.38946 0,0.16934 0.03387,0.3683 0.0381,0.19897 0.1143,0.3683 0.0762,0.16934 0.1905,0.28364 0.118533,0.1143 0.283633,0.1143 0.148166,0 0.300566,-0.072 0.156633,-0.072 0.258233,-0.17357 0,0.0423 -0.0085,0.072 -0.0085,0.0296 -0.0085,0.0762 0,0.0339 0.0085,0.0593 0.0127,0.0254 0.04233,0.0339 0.04657,0 0.0889,-0.004 0.04657,-0.008 0.09313,-0.008 0.06773,0 0.135467,0.008 0.07197,0.004 0.1397,0.004 h 0.0508 q 0.0508,-0.008 0.0508,-0.0635 0.0042,-0.055 0.0042,-0.11006 0.02963,-0.45297 0.0127,-0.89324 -0.01693,-0.4445 -0.0042,-0.9017 v -0.0423 q 0,-0.0254 -0.0042,-0.0508 0,-0.0254 -0.0042,-0.0508 z m -1.231899,0.84243 q 0.02117,-0.10583 0.118533,-0.18626 0.1016,-0.0847 0.275167,-0.0847 0.0889,0 0.131233,0.0127 0.04657,0.0127 0.0635,0.0593 0.02117,0.0466 0.02117,0.13546 0.0042,0.0847 0.0042,0.23284 0,0.11853 -0.0042,0.2159 0,0.0931 -0.0254,0.16086 -0.02117,0.0635 -0.0762,0.1016 -0.0508,0.0339 -0.156633,0.0339 -0.1778,0 -0.279399,-0.13123 -0.09737,-0.13547 -0.09737,-0.32597 0,-0.055 0.0042,-0.11007 0.0042,-0.0593 0.02117,-0.1143 z" />
      <path
         id="path6961"
         style="font-size:4.23333px;fill:#eceff1;stroke-width:0.264583"
         d="m 16.534821,121.07946 q 0,-0.004 -0.05927,-0.008 -0.05503,-0.008 -0.1397,-0.008 -0.08043,-0.004 -0.173566,0 -0.09313,0 -0.160867,0.0127 v 0.2794 q 0,0.35137 -0.0085,0.70274 -0.0085,0.35136 -0.01693,0.69426 -0.0042,0.33867 -0.0085,0.66887 0,0.32597 0.0085,0.63077 0.131233,0 0.287867,0.004 0.156633,0.008 0.283633,-0.008 0.0042,-0.008 0.0042,-0.0296 0,-0.0423 0,-0.0677 0.0042,-0.0254 0.0042,-0.072 0.0085,-0.0212 0.01693,-0.0296 0.0127,-0.0127 0.0254,0.0127 0.0635,0.127 0.169333,0.1651 0.105833,0.0339 0.224366,0.0169 0.2413,-0.0169 0.381,-0.12277 0.1397,-0.11006 0.207433,-0.27516 0.07197,-0.16934 0.09313,-0.37677 0.02117,-0.20743 0.02963,-0.4191 0,-0.14817 -0.02117,-0.28787 -0.01693,-0.1397 -0.05927,-0.254 -0.0381,-0.11853 -0.105833,-0.19896 -0.0635,-0.0847 -0.156633,-0.11854 -0.1143,-0.0423 -0.254,-0.0508 -0.135466,-0.0127 -0.258233,0 -0.122766,0.008 -0.207433,0.0381 -0.08467,0.0296 -0.09313,0.0677 0.0042,-0.19897 0.0042,-0.32174 0,-0.12276 0,-0.19473 0,-0.0762 -0.0042,-0.1143 0,-0.0423 -0.0042,-0.0762 0,-0.0381 -0.0042,-0.0804 0,-0.0466 -0.0042,-0.13124 z m 0.656166,1.64253 q 0.02117,0.0593 0.0254,0.12277 0.0042,0.0635 0.0042,0.12276 0,0.10584 -0.0254,0.20744 -0.0254,0.0974 -0.0762,0.1778 -0.0508,0.0762 -0.122766,0.12276 -0.07197,0.0466 -0.160867,0.0466 -0.110066,0 -0.169333,-0.0466 -0.05927,-0.0466 -0.09313,-0.127 -0.02963,-0.0804 -0.0381,-0.1905 -0.0042,-0.1143 -0.0042,-0.24976 0,-0.1651 0.0042,-0.25824 0.0085,-0.0974 0.03387,-0.14816 0.0254,-0.0508 0.0762,-0.0635 0.05503,-0.0169 0.143933,-0.0169 0.173567,0 0.275167,0.0762 0.105833,0.0762 0.127,0.22437 z" />
      <path
         id="path6963"
         style="font-size:4.23333px;fill:#eceff1;stroke-width:0.264583"
         d="m 19.641424,122.59076 q 0,-0.2286 -0.08467,-0.41064 -0.08467,-0.18626 -0.283633,-0.27093 -0.110067,-0.0254 -0.2413,-0.0381 -0.131233,-0.0169 -0.262466,-0.0169 -0.131233,0 -0.249767,0.0127 -0.1143,0.0127 -0.194733,0.0339 -0.207433,0.055 -0.321733,0.21167 -0.110066,0.15663 -0.118533,0.3429 -0.0042,0.18203 0.1016,0.3556 0.110066,0.16933 0.347133,0.24977 0.118533,0.0508 0.2413,0.072 0.122766,0.0212 0.220133,0.0508 0.09737,0.0254 0.156633,0.0762 0.05927,0.0508 0.04657,0.1524 0.0042,0.12277 -0.0762,0.16934 -0.08043,0.0466 -0.1778,0.0381 -0.09737,-0.0127 -0.186267,-0.072 -0.08467,-0.0635 -0.0889,-0.16087 -0.131233,0 -0.309033,-0.004 -0.1778,-0.008 -0.317499,0.008 v 0.008 0.0127 q 0,0.16934 0.06773,0.3048 0.07197,0.13547 0.194733,0.2286 0.127,0.0931 0.300566,0.1397 0.173567,0.0466 0.389467,0.0381 0.245533,0.004 0.452966,-0.0847 0.207433,-0.0889 0.3048,-0.29634 0.08043,-0.23283 0.05927,-0.38946 -0.02117,-0.16087 -0.114299,-0.31327 -0.09737,-0.127 -0.3048,-0.18203 -0.207433,-0.0593 -0.4445,-0.0931 -0.09737,-0.0339 -0.148166,-0.1016 -0.0508,-0.0677 -0.0508,-0.13546 0,-0.0677 0.04657,-0.12277 0.0508,-0.0593 0.148167,-0.0762 0.05503,-0.004 0.110066,0.0169 0.05927,0.0169 0.1016,0.055 0.04657,0.0381 0.06773,0.0889 0.0254,0.0508 0.0127,0.1016 0.143933,0.0296 0.304799,0.0254 0.1651,-0.004 0.300567,-0.0254 z" />
    </g>
    <g
       style="font-size:6.35px;line-height:1.25;font-family:'Londrina Solid';-inkscape-font-specification:'Londrina Solid';letter-spacing:0px;word-spacing:0px;fill:#eceff1;stroke-width:0.264583"
       id="text2960"
       aria-label="pricetag">
      <path
         id="path2962"
         style="font-size:6.35px;fill:#eceff1;stroke-width:0.264583"
         d="m 3.4349739,11.99152 q 0.00635,-0.127 0.00635,-0.19685 0.00635,-0.0635 0.00635,-0.12065 0.00635,-0.0508 0.00635,-0.1143 0.00635,-0.05715 0.00635,-0.17145 0,-0.10795 0,-0.2921 0,-0.18415 -0.00635,-0.4826 0.0127,0.05715 0.1397,0.1016 0.127,0.04445 0.31115,0.05715 0.18415,0.01905 0.3873499,0 0.20955,-0.0127 0.381,-0.0762 0.1397,-0.0508 0.23495,-0.17145 0.1016,-0.127 0.15875,-0.29845 0.0635,-0.1778 0.0889,-0.3873502 0.03175,-0.20955 0.03175,-0.4318 -0.0127,-0.3175 -0.04445,-0.62865 -0.03175,-0.31115 -0.1397,-0.5588 -0.1016,-0.254 -0.31115,-0.41275 -0.20955,-0.1651 -0.5714999,-0.1905 -0.1778,-0.0254 -0.33655,0.03175 -0.15875,0.0508 -0.254,0.2413 -0.01905,0.0381 -0.0381,0.0254 -0.0127,-0.01905 -0.0254,-0.0508 0,-0.06985 -0.00635,-0.10795 0,-0.0381 0,-0.1016 0,-0.03175 -0.00635,-0.04445 -0.1905,-0.0254 -0.42545,-0.0127 -0.23495,0.00635 -0.4318,0.00635 -0.0127,0.4572 -0.0127,0.9525 0.00635,0.48895 0.0127,1.0033 0.0127,0.5080002 0.0254,1.0350502 0.0127,0.52705 0.0127,1.0541 v 0.4191 q 0.1016,0.01905 0.2413,0.01905 0.1397,0.0064 0.26035,0 0.127,0 0.20955,-0.0127 0.0889,-0.0064 0.0889,-0.0127 z M 4.4192238,9.5975698 q -0.03175,0.22225 -0.1904999,0.33655 -0.1524,0.1143002 -0.41275,0.1143002 -0.13335,0 -0.2159,-0.01905 -0.0762,-0.0254 -0.1143,-0.1016002 -0.0381,-0.0762 -0.0508,-0.2159 -0.00635,-0.14605 -0.00635,-0.3937 0,-0.19685 0.00635,-0.3683 0.0127,-0.17145 0.05715,-0.2921 0.0508,-0.12065 0.1397,-0.1905 0.0889,-0.06985 0.254,-0.06985 0.13335,0 0.2413,0.06985 0.10795,0.06985 0.1841499,0.1905 0.0762,0.1143 0.1143,0.2667 0.0381,0.14605 0.0381,0.3048 0,0.0889 -0.00635,0.18415 -0.00635,0.09525 -0.0381,0.18415 z" />
      <path
         id="path2964"
         style="font-size:6.35px;fill:#eceff1;stroke-width:0.264583"
         d="m 6.4248315,7.8195698 q 0,-0.04445 -0.00635,-0.0635 0,-0.01905 0,-0.03175 0,-0.01905 0,-0.04445 0,-0.0254 0,-0.0762 0,-0.0127 -0.05715,-0.0127 -0.0508,-0.00635 -0.127,0 -0.06985,0.00635 -0.1397,0.0127 -0.0635,0.00635 -0.0889,0.00635 -0.0762,0.00635 -0.127,0.0127 -0.0508,0 -0.09525,0 -0.04445,0 -0.09525,0 -0.0508,-0.00635 -0.127,-0.0127 -0.0254,0.8382 -0.0127,1.61925 0.01905,0.7810502 0.01905,1.5621002 0.1524,-0.0127 0.26035,-0.0064 0.1143,0.0064 0.20955,0.0064 0.09525,0.0063 0.18415,0 0.0889,-0.0064 0.19685,-0.0381 v -0.0254 q 0,-0.23495 -0.00635,-0.43815 0,-0.20955 0,-0.4064002 0,-0.2032 -0.00635,-0.40005 -0.00635,-0.19685 -0.0127,-0.4191 -0.00635,-0.1778 0.0508,-0.27305 0.05715,-0.09525 0.15875,-0.1397 0.10795,-0.04445 0.24765,-0.04445 0.14605,0 0.3175,0.01905 0.00635,0 0.08255,0.0127 0.08255,0.0127 0.15875,0.03175 0.03175,0.0127 0.0635,0.0254 0.0381,0.00635 0.06985,0.01905 l 0.05715,0.01905 q -0.00635,-0.09525 -0.00635,-0.2032 0,-0.10795 0,-0.23495 0,-0.13335 0,-0.29845 0.00635,-0.1651 0.00635,-0.381 0,-0.00635 -0.09525,-0.00635 -0.0889,-0.00635 -0.22225,0 -0.13335,0.00635 -0.28575,0.03175 -0.1524,0.01905 -0.27305,0.05715 -0.0889,0.03175 -0.18415,0.06985 -0.0889,0.0381 -0.1143,0.0508 z" />
      <path
         id="path2966"
         style="font-size:6.35px;fill:#eceff1;stroke-width:0.264583"
         d="m 8.661222,7.5782698 q -0.2032,0.00635 -0.34925,0 -0.14605,-0.00635 -0.2286,-0.0127 -0.03175,0 -0.09525,-0.00635 -0.05715,-0.00635 -0.08255,0 v 0.00635 q -0.0381,0.37465 -0.0381,0.7747 0,0.3937 0.0127,0.8001 0.0127,0.4064 0.0127,0.81915 0.00635,0.4127502 -0.0254,0.8128002 0.04445,-0.0127 0.1778,-0.0064 0.13335,0.0064 0.2794,0.0064 0.1524,0.0063 0.2794,0 0.127,0 0.15875,-0.0381 -0.04445,-0.7683502 -0.0254,-1.5684502 0.0254,-0.8001 0.03175,-1.56845 v -0.01905 z M 7.880172,6.1939699 q -0.00635,0.2921 0.00635,0.4953 0.01905,0.19685 0.01905,0.3809999 0.12065,-0.00635 0.26035,0.00635 0.1397,0.00635 0.26035,0.0127 0.127,0 0.2159,-0.0127 0.09525,-0.0127 0.12065,-0.0508 0,-0.09525 -0.00635,-0.2158999 0,-0.127 -0.00635,-0.2413 0,-0.12065 -0.00635,-0.2159 0,-0.1016 0,-0.1397 z" />
      <path
         id="path2968"
         style="font-size:6.35px;fill:#eceff1;stroke-width:0.264583"
         d="m 11.64592,9.5531198 q -0.06985,-0.01905 -0.1778,-0.01905 -0.10795,-0.00635 -0.2286,0 -0.12065,0.00635 -0.2286,0.0127 -0.10795,0 -0.17145,-0.00635 -0.01905,0.08255 -0.05715,0.1905 -0.03175,0.1016 -0.09525,0.14605 -0.0762,0.0508 -0.2032,0.06985 -0.127,0.0127 -0.24765,-0.0127 -0.12065,-0.03175 -0.20955,-0.1143 -0.08255,-0.08255 -0.06985,-0.2286 0.0127,-0.22225 0.0127,-0.42545 0,-0.2032 0.0254,-0.40005 0.01905,-0.1016 0.05715,-0.127 0.08255,-0.1016 0.2159,-0.1397 0.24765,-0.0635 0.40005,0.0635 0.1524,0.12065 0.18415,0.3429 0.08255,0.0127 0.18415,0.0254 0.10795,0.0127 0.2159,0.01905 0.1143,0.00635 0.2159,0.00635 0.10795,0 0.1905,-0.01905 -0.0064,-0.20955 -0.0127,-0.38735 0,-0.18415 -0.0254,-0.3302 -0.0254,-0.14605 -0.0762,-0.254 -0.04445,-0.10795 -0.13335,-0.17145 -0.13335,-0.127 -0.3175,-0.1905 -0.18415,-0.0635 -0.38735,-0.0762 -0.13335,-0.0127 -0.254,0 -0.1143,0.00635 -0.2413,-0.00635 -0.1524,0 -0.3047998,0.01905 -0.14605,0.01905 -0.2794,0.06985 -0.127,0.04445 -0.2286,0.1143 -0.09525,0.06985 -0.1397,0.1651 -0.01905,0.0635 -0.05715,0.18415 -0.0381,0.12065 -0.04445,0.1905 -0.0381,0.2286 -0.0381,0.4572 0.0254,0.20955 0.0127,0.46355 -0.00635,0.254 0.00635,0.508 0.0127,0.24765 0.0762,0.4762502 0.0635,0.2286 0.23495,0.381 0.22225,0.22225 0.5461,0.2794 0.1777998,0 0.3936998,0.0127 0.2159,0.01905 0.4191,0 0.2032,-0.0127 0.37465,-0.0762 0.1778,-0.0635 0.28575,-0.2159 0.04445,-0.04445 0.06985,-0.1397 0.03175,-0.1016 0.0508,-0.23495 0.01905,-0.1397 0.03175,-0.2984502 0.0127,-0.15875 0.0254,-0.32385 z" />
      <path
         id="path2970"
         style="font-size:6.35px;fill:#eceff1;stroke-width:0.264583"
         d="m 12.7661,9.1784698 q 0.0635,0.0127 0.2032,0.01905 0.1397,0.00635 0.31115,0.00635 0.1778,0 0.3683,-0.00635 0.1905,-0.00635 0.3556,-0.01905 0.17145,-0.0127 0.2921,-0.0254 0.127,-0.0127 0.17145,-0.0254 0.01905,-0.2667 0,-0.52705 -0.01905,-0.26035 -0.1143,-0.47625 -0.0889,-0.2159 -0.2667,-0.3683 -0.1778,-0.1524 -0.4699,-0.2032 -0.2286,-0.05715 -0.4699,-0.0508 -0.2413,0.00635 -0.4572,0.0762 -0.2159,0.0635 -0.38735,0.19685 -0.17145,0.127 -0.254,0.31115 -0.0762,0.20955 -0.1016,0.4318 -0.01905,0.2159 -0.0381,0.45085 -0.0127,0.26035 0.0127,0.5207 0.0254,0.26035 0.09525,0.4953 0.06985,0.2286002 0.18415,0.4254502 0.1143,0.1905 0.28575,0.31115 0.1524,0.0889 0.3302,0.1143 0.1778,0 0.38735,0.0127 0.2159,0.0127 0.4191,0 0.2032,-0.0127 0.37465,-0.0762 0.17145,-0.0635 0.2794,-0.2159 0.04445,-0.0381 0.06985,-0.13335 0.03175,-0.1016 0.0508,-0.23495 0.01905,-0.1397 0.03175,-0.2984502 0.0127,-0.15875 0.0254,-0.32385 -0.06985,-0.01905 -0.1778,-0.01905 -0.10795,-0.00635 -0.2286,0 -0.1143,0.00635 -0.22225,0.0127 -0.10795,0 -0.17145,-0.00635 0.0127,0.26035 -0.08255,0.3937 -0.0889,0.1270002 -0.22225,0.1524002 -0.13335,0.0254 -0.27305,-0.04445 -0.1397,-0.06985 -0.2159,-0.2159002 -0.06985,-0.1143 -0.08255,-0.23495 -0.0064,-0.12065 -0.0127,-0.31115 z m 0.76835,-0.98425 q 0.1143,0.05715 0.1778,0.17145 0.06985,0.1143 0.06985,0.2413 0,0.0508 0,0.06985 0,0.0127 -0.0381,0.01905 -0.03175,0 -0.1143,-0.00635 -0.08255,-0.00635 -0.24765,-0.00635 -0.2413,0 -0.3683,0.00635 -0.12065,0 -0.1778,-0.00635 -0.05715,-0.0127 -0.0635,-0.0381 0,-0.03175 0.0127,-0.1016 0.0127,-0.08255 0.0381,-0.15875 0.03175,-0.0762 0.0889,-0.13335 0.05715,-0.05715 0.1524,-0.0889 0.09525,-0.03175 0.24765,-0.03175 0.06985,0 0.12065,0.01905 0.0508,0.0127 0.1016,0.04445 z" />
      <path
         id="path2972"
         style="font-size:6.35px;fill:#eceff1;stroke-width:0.264583"
         d="m 15.931277,6.4289199 q -0.10795,0.0127 -0.2159,0.00635 -0.10795,-0.00635 -0.2159,-0.0127 -0.10795,-0.0127 -0.20955,-0.01905 -0.09525,-0.00635 -0.1778,0.00635 -0.0127,0.12065 -0.01905,0.27305 0,0.1524 0,0.3175 0,0.1650999 0.0064,0.3301999 0.0063,0.15875 0.0063,0.29845 -0.1016,0 -0.2159,0 -0.10795,0 -0.23495,-0.00635 l -0.01905,0.7747 q 0.13335,0 0.2413,0 0.1143,0 0.2159,-0.00635 -0.0063,0.46355 0.0064,0.9017 0.0127,0.4318 0.09525,0.9207502 0.08255,0.19685 0.2667,0.31115 0.1905,0.1143 0.4318,0.17145 0.2413,0.05715 0.51435,0.0762 0.27305,0.0127 0.52705,0 0.03175,-0.09525 0.0381,-0.20955 0.0127,-0.1143 0.0063,-0.2286 -0.0063,-0.1143 -0.01905,-0.22225 -0.0127,-0.10795 -0.0254,-0.1968502 -0.10795,0.00635 -0.254,0 -0.1397,-0.00635 -0.2794,-0.03175 -0.1397,-0.03175 -0.26035,-0.08255 -0.12065,-0.0508 -0.18415,-0.1397 -0.0064,-0.28575 -0.0064,-0.6096 0,-0.3302 0,-0.6731 h 0.98425 q -0.0127,-0.08255 -0.0064,-0.19685 0.0127,-0.12065 0.01905,-0.23495 0.0064,-0.1143 0,-0.20955 -0.0064,-0.1016 -0.0508,-0.1524 -0.32385,0.01905 -0.5461,0.03175 -0.2159,0.0127 -0.41275,0.01905 0,-0.09525 -0.0064,-0.18415 0,-0.0889 0,-0.17145 z" />
      <path
         id="path2974"
         style="font-size:6.35px;fill:#eceff1;stroke-width:0.264583"
         d="m 19.784537,7.6100198 q -0.2032,-0.0127 -0.36195,-0.01905 -0.1524,-0.00635 -0.26035,-0.0127 -0.01905,0 -0.06985,0 -0.0508,0 -0.1016,0 -0.0508,-0.00635 -0.09525,0 -0.0381,0 -0.0381,0.00635 0,0.0762 -0.01905,0.1524 -0.0127,0.06985 -0.0064,0.17145 -0.04445,-0.10795 -0.10795,-0.1651 -0.0635,-0.0635 -0.14605,-0.0889 -0.08255,-0.03175 -0.18415,-0.03175 -0.09525,-0.00635 -0.20955,-0.00635 -0.22225,0.00635 -0.4191,0.12065 -0.19685,0.10795 -0.3429,0.3048 -0.1397,0.1905 -0.22225,0.4572 -0.08255,0.2667 -0.08255,0.5842 0,0.254 0.0508,0.55245 0.05715,0.29845 0.17145,0.5524502 0.1143,0.254 0.28575,0.42545 0.1778,0.17145 0.42545,0.17145 0.22225,0 0.45085,-0.10795 0.23495,-0.10795 0.38735,-0.26035 0,0.0635 -0.0127,0.10795 -0.0127,0.04445 -0.0127,0.1143 0,0.0508 0.0127,0.0889 0.01905,0.0381 0.0635,0.0508 0.06985,0 0.13335,-0.0063 0.06985,-0.0127 0.1397,-0.0127 0.1016,0 0.2032,0.0127 0.10795,0.0063 0.20955,0.0063 h 0.0762 q 0.0762,-0.0127 0.0762,-0.09525 0.0064,-0.08255 0.0064,-0.1651 0.04445,-0.6794502 0.01905,-1.3398502 -0.0254,-0.66675 -0.0064,-1.35255 v -0.0635 q 0,-0.0381 -0.0063,-0.0762 0,-0.0381 -0.0064,-0.0762 z m -1.84785,1.26365 q 0.03175,-0.15875 0.1778,-0.2794 0.1524,-0.127 0.41275,-0.127 0.13335,0 0.19685,0.01905 0.06985,0.01905 0.09525,0.0889 0.03175,0.06985 0.03175,0.2032 0.0064,0.127 0.0064,0.34925 0,0.1778 -0.0064,0.32385 0,0.1397 -0.0381,0.2413 -0.03175,0.09525 -0.1143,0.1524 -0.0762,0.0508 -0.23495,0.0508 -0.2667,0 -0.4191,-0.19685 -0.14605,-0.2032 -0.14605,-0.48895 0,-0.08255 0.0064,-0.1651 0.0064,-0.0889 0.03175,-0.17145 z" />
      <path
         id="path2976"
         style="font-size:6.35px;fill:#eceff1;stroke-width:0.264583"
         d="m 20.880309,9.2673698 q 0,-0.0635 0,-0.12065 0,-0.0635 0.0127,-0.127 0.0254,-0.14605 0.0889,-0.27305 0.06985,-0.13335 0.1651,-0.2413 0.0762,-0.0635 0.17145,-0.0889 0.1016,-0.03175 0.2032,-0.01905 0.1016,0.0127 0.18415,0.06985 0.0889,0.0508 0.127,0.14605 0.0635,0.2413 0.06985,0.508 0.0127,0.26035 0.0127,0.51435 -0.0063,0.05715 -0.01905,0.12065 -0.0063,0.05715 -0.0254,0.1143 -0.01905,0.0508 -0.0508,0.09525 -0.03175,0.0381 -0.0889,0.05715 -0.1651,0.0508 -0.3556,0.0254 -0.1905,-0.03175 -0.3048,-0.1714518 -0.1905,-0.2286 -0.1905,-0.55245 z m 1.09855,2.7749502 q 0.0762,-0.0063 0.1651,-0.0254 0.0889,-0.01905 0.1778,-0.06985 0.0889,-0.04445 0.1778,-0.127 0.09525,-0.08255 0.18415,-0.22225 0.0635,-0.1016 0.05715,-0.254 -0.0064,-0.14605 0,-0.29845 0.0381,-0.9144 0.03175,-1.7780002 0,-0.86995 -0.0254,-1.6637 -0.2159,0 -0.4318,-0.00635 -0.2159,-0.0127 -0.42545,0.0127 -0.01905,0.03175 -0.01905,0.0889 0.0063,0.0508 0.0063,0.10795 0.0064,0.0508 0,0.0889 0,0.03175 -0.0254,0.01905 -0.0762,-0.1778 -0.254,-0.2413 -0.17145,-0.06985 -0.37465,-0.05715 -0.4064,0.0254 -0.6223,0.23495 -0.2159,0.2032 -0.3175,0.508 -0.09525,0.29845 -0.10795,0.64135 -0.0127,0.3429 -0.0127,0.64135 0.0127,0.19685 0.0508,0.3873502 0.0381,0.18415 0.127,0.3556 0.05715,0.12065 0.14605,0.19685 0.0889,0.0762 0.19685,0.12065 0.1143,0.04445 0.23495,0.0635 0.127,0.01905 0.24765,0.01905 0.0889,-0.0063 0.1905,-0.0063 0.1016,0 0.19685,-0.0127 0.1016,-0.0127 0.18415,-0.04445 0.0889,-0.03175 0.1524,-0.1016 -0.0127,0.1143 0,0.22225 0.0063,0.0508 0,0.1143 -0.0064,0.06985 -0.0127,0.13335 -0.0381,0.1778 -0.1651,0.254 -0.12065,0.0762 -0.254,0.0635 -0.127,-0.0127 -0.23495,-0.1143 -0.1016,-0.09525 -0.1016,-0.26035 -0.0762,-0.0127 -0.1905,-0.0254 -0.10795,-0.0063 -0.2286,-0.0127 -0.1143,0 -0.22225,0.0064 -0.10795,0.0127 -0.17145,0.0381 -0.0064,0.0508 -0.0064,0.12065 0.0064,0.06985 0.01905,0.14605 0.01905,0.0762 0.0381,0.14605 0.0254,0.0762 0.0508,0.12065 0.14605,0.2159 0.381,0.3429 0.23495,0.127 0.5334,0.127 0.26035,0 0.42545,0.0063 0.1651,0.0064 0.2286,-0.0063 z" />
    </g>
  </g>
</svg>
