<?xml version="1.0" encoding="UTF-8" standalone="no"?>
<svg
   xmlns:dc="http://purl.org/dc/elements/1.1/"
   xmlns:cc="http://creativecommons.org/ns#"
   xmlns:rdf="http://www.w3.org/1999/02/22-rdf-syntax-ns#"
   xmlns:svg="http://www.w3.org/2000/svg"
   xmlns="http://www.w3.org/2000/svg"
   xmlns:sodipodi="http://sodipodi.sourceforge.net/DTD/sodipodi-0.dtd"
   xmlns:inkscape="http://www.inkscape.org/namespaces/inkscape"
   width="25.4mm"
   height="128.5mm"
   viewBox="0 0 25.4 128.5"
   version="1.1"
   id="svg8"
   inkscape:version="1.0 (4035a4fb49, 2020-05-01)"
   sodipodi:docname="pricetag.svg">
  <defs
     id="defs2" />
  <sodipodi:namedview
     id="base"
     pagecolor="#ffffff"
     bordercolor="#666666"
     borderopacity="1.0"
     inkscape:pageopacity="0.0"
     inkscape:pageshadow="2"
     inkscape:zoom="1.4"
     inkscape:cx="-102.72628"
     inkscape:cy="175.28757"
     inkscape:document-units="mm"
     inkscape:current-layer="layer1"
     inkscape:document-rotation="0"
     showgrid="false"
     inkscape:window-width="2560"
     inkscape:window-height="1361"
     inkscape:window-x="-9"
     inkscape:window-y="-9"
     inkscape:window-maximized="1" />
  <metadata
     id="metadata5">
    <rdf:RDF>
      <cc:Work
         rdf:about="">
        <dc:format>image/svg+xml</dc:format>
        <dc:type
           rdf:resource="http://purl.org/dc/dcmitype/StillImage" />
        <dc:title />
      </cc:Work>
    </rdf:RDF>
  </metadata>
  <g
     inkscape:label="Layer 1"
     inkscape:groupmode="layer"
     id="layer1">
    <rect
       style="display:inline;fill:#90a4ae;stroke:none;stroke-width:0.98712"
       id="rect837"
       width="25.35759"
       height="128.44171"
       x="0"
       y="0"
       inkscape:label="background fill"
       inkscape:transform-center-x="60.019077"
       inkscape:transform-center-y="-29.309011" />
    <rect
       y="117.4467"
       x="0.042409543"
       height="11.053303"
       width="25.35759"
       id="rect1002"
       style="display:inline;fill:#37474f;fill-opacity:1;stroke:none;stroke-width:1.99139"
       inkscape:transform-center-x="59.976669"
       inkscape:transform-center-y="29.443487" />
    <rect
       style="display:inline;fill:#37474f;fill-opacity:1;stroke:none;stroke-width:2.31929"
       id="rect1488"
       width="25.35759"
       height="14.993196"
       x="0.021204948"
       y="0"
       inkscape:transform-center-x="60.019077"
       inkscape:transform-center-y="-86.03327" />
    <g
       transform="matrix(0.99833035,0,0,0.99954636,0.0424086,0.00536793)"
       aria-label="iggy.labs"
       id="text6945"
       style="font-size:4.23333px;line-height:1.25;font-family:'Londrina Solid';-inkscape-font-specification:'Londrina Solid, Normal';letter-spacing:0px;word-spacing:0px;display:inline;fill:#eceff1;stroke-width:0.264583"
       inkscape:transform-center-x="60.019075"
       inkscape:transform-center-y="29.362808">
      <path
         d="m 6.202784,121.92612 q -0.1354665,0.004 -0.2328331,0 -0.097367,-0.004 -0.1523999,-0.008 -0.021167,0 -0.0635,-0.004 -0.0381,-0.004 -0.055033,0 v 0.004 q -0.0254,0.24976 -0.0254,0.51646 0,0.26247 0.00847,0.5334 0.00847,0.27094 0.00847,0.5461 0.00423,0.27517 -0.016933,0.54187 0.029633,-0.008 0.1185332,-0.004 0.0889,0.004 0.1862665,0.004 0.1015999,0.004 0.1862665,0 0.084667,0 0.1058333,-0.0254 -0.029633,-0.51223 -0.016933,-1.04563 0.016933,-0.5334 0.021167,-1.04564 v -0.0127 z m -0.5206996,-0.92286 q -0.00423,0.19473 0.00423,0.3302 0.0127,0.13123 0.0127,0.254 0.080433,-0.004 0.1735665,0.004 0.093133,0.004 0.1735665,0.008 0.084667,0 0.1439332,-0.008 0.0635,-0.008 0.080433,-0.0339 0,-0.0635 -0.00423,-0.14393 0,-0.0847 -0.00423,-0.16087 0,-0.0804 -0.00423,-0.14393 0,-0.0677 0,-0.0931 z"
         style="font-size:4.23333px;fill:#eceff1;stroke-width:0.264583"
         id="path6947" />
      <path
         d="m 6.981849,123.05219 q 0,-0.0423 0,-0.0804 0,-0.0423 0.00847,-0.0847 0.016933,-0.0974 0.059267,-0.18203 0.046567,-0.0889 0.1100666,-0.16087 0.0508,-0.0423 0.1142999,-0.0593 0.067733,-0.0212 0.1354665,-0.0127 0.067733,0.008 0.1227666,0.0466 0.059267,0.0339 0.084667,0.0974 0.042333,0.16086 0.046567,0.33866 0.00847,0.17357 0.00847,0.3429 -0.00423,0.0381 -0.0127,0.0804 -0.00423,0.0381 -0.016933,0.0762 -0.0127,0.0339 -0.033867,0.0635 -0.021167,0.0254 -0.059267,0.0381 -0.1100666,0.0339 -0.2370665,0.0169 -0.1269999,-0.0212 -0.2031998,-0.1143 -0.1269999,-0.1524 -0.1269999,-0.3683 z m 0.7323661,1.84996 q 0.0508,-0.004 0.1100665,-0.0169 0.059267,-0.0127 0.1185333,-0.0466 0.059267,-0.0296 0.1185332,-0.0847 0.0635,-0.055 0.1227666,-0.14817 0.042333,-0.0677 0.0381,-0.16933 -0.00423,-0.0974 0,-0.19897 0.0254,-0.6096 0.021167,-1.18533 0,-0.57997 -0.016933,-1.10913 -0.1439333,0 -0.2878665,-0.004 -0.1439332,-0.008 -0.2836331,0.008 -0.0127,0.0212 -0.0127,0.0593 0.00423,0.0339 0.00423,0.072 0.00423,0.0339 0,0.0593 0,0.0212 -0.016933,0.0127 -0.0508,-0.11853 -0.1693332,-0.16087 -0.1142999,-0.0466 -0.2497665,-0.0381 -0.2709331,0.0169 -0.4148663,0.15664 -0.1439332,0.13546 -0.2116665,0.33866 -0.0635,0.19897 -0.071967,0.42757 -0.00847,0.2286 -0.00847,0.42757 0.00847,0.13123 0.033867,0.25823 0.0254,0.12277 0.084667,0.23707 0.0381,0.0804 0.097367,0.13123 0.059267,0.0508 0.1312332,0.0804 0.0762,0.0296 0.1566332,0.0423 0.084667,0.0127 0.1650998,0.0127 0.059267,-0.004 0.1269999,-0.004 0.067733,0 0.1312333,-0.008 0.067733,-0.008 0.1227665,-0.0296 0.059267,-0.0212 0.1015999,-0.0677 -0.00847,0.0762 0,0.14817 0.00423,0.0339 0,0.0762 -0.00423,0.0466 -0.00847,0.0889 -0.0254,0.11853 -0.1100666,0.16933 -0.080433,0.0508 -0.1693332,0.0423 -0.084667,-0.008 -0.1566332,-0.0762 -0.067733,-0.0635 -0.067733,-0.17356 -0.0508,-0.008 -0.1269999,-0.0169 -0.071967,-0.004 -0.1523998,-0.008 -0.0762,0 -0.1481666,0.004 -0.071967,0.008 -0.1142999,0.0254 -0.00423,0.0339 -0.00423,0.0804 0.00423,0.0466 0.0127,0.0974 0.0127,0.0508 0.0254,0.0974 0.016933,0.0508 0.033867,0.0804 0.097367,0.14393 0.2539998,0.2286 0.1566332,0.0847 0.3555997,0.0847 0.1735665,0 0.2836331,0.004 0.1100666,0.004 0.1523999,-0.004 z"
         style="font-size:4.23333px;fill:#eceff1;stroke-width:0.264583"
         id="path6949" />
      <path
         d="m 8.9579541,123.05219 q 0,-0.0423 0,-0.0804 0,-0.0423 0.00847,-0.0847 0.016933,-0.0974 0.059267,-0.18203 0.046567,-0.0889 0.1100666,-0.16087 0.0508,-0.0423 0.1142999,-0.0593 0.067733,-0.0212 0.1354665,-0.0127 0.067733,0.008 0.1227666,0.0466 0.059267,0.0339 0.084667,0.0974 0.042333,0.16086 0.046567,0.33866 0.00847,0.17357 0.00847,0.3429 -0.00423,0.0381 -0.0127,0.0804 -0.00423,0.0381 -0.016933,0.0762 -0.0127,0.0339 -0.033867,0.0635 -0.021167,0.0254 -0.059267,0.0381 -0.1100666,0.0339 -0.2370665,0.0169 -0.1269999,-0.0212 -0.2031998,-0.1143 -0.1269999,-0.1524 -0.1269999,-0.3683 z m 0.7323661,1.84996 q 0.0508,-0.004 0.1100665,-0.0169 0.059267,-0.0127 0.1185333,-0.0466 0.059267,-0.0296 0.118533,-0.0847 0.0635,-0.055 0.122767,-0.14817 0.04233,-0.0677 0.0381,-0.16933 -0.0042,-0.0974 0,-0.19897 0.0254,-0.6096 0.02117,-1.18533 0,-0.57997 -0.01693,-1.10913 -0.143933,0 -0.2878664,-0.004 -0.1439332,-0.008 -0.2836331,0.008 -0.0127,0.0212 -0.0127,0.0593 0.00423,0.0339 0.00423,0.072 0.00423,0.0339 0,0.0593 0,0.0212 -0.016933,0.0127 -0.0508,-0.11853 -0.1693332,-0.16087 -0.1142999,-0.0466 -0.2497665,-0.0381 -0.2709331,0.0169 -0.4148663,0.15664 -0.1439332,0.13546 -0.2116665,0.33866 -0.0635,0.19897 -0.071967,0.42757 -0.00847,0.2286 -0.00847,0.42757 0.00847,0.13123 0.033867,0.25823 0.0254,0.12277 0.084667,0.23707 0.0381,0.0804 0.097367,0.13123 0.059267,0.0508 0.1312332,0.0804 0.0762,0.0296 0.1566332,0.0423 0.084667,0.0127 0.1650998,0.0127 0.059267,-0.004 0.1269999,-0.004 0.067733,0 0.1312333,-0.008 0.067733,-0.008 0.1227665,-0.0296 0.059267,-0.0212 0.1015999,-0.0677 -0.00847,0.0762 0,0.14817 0.00423,0.0339 0,0.0762 -0.00423,0.0466 -0.00847,0.0889 -0.0254,0.11853 -0.1100666,0.16933 -0.080433,0.0508 -0.1693332,0.0423 -0.084667,-0.008 -0.1566332,-0.0762 -0.067733,-0.0635 -0.067733,-0.17356 -0.0508,-0.008 -0.1269999,-0.0169 -0.071967,-0.004 -0.1523998,-0.008 -0.0762,0 -0.1481666,0.004 -0.071967,0.008 -0.1142999,0.0254 -0.00423,0.0339 -0.00423,0.0804 0.00423,0.0466 0.0127,0.0974 0.0127,0.0508 0.0254,0.0974 0.016933,0.0508 0.033867,0.0804 0.097367,0.14393 0.2539998,0.2286 0.1566332,0.0847 0.3555997,0.0847 0.1735665,0 0.2836331,0.004 0.1100666,0.004 0.1523999,-0.004 z"
         style="font-size:4.23333px;fill:#eceff1;stroke-width:0.264583"
         id="path6951" />
      <path
         d="m 11.001793,121.95152 q -0.135467,-0.0169 -0.3048,-0.004 -0.169333,0.008 -0.321733,-0.008 0.131233,0.47837 0.2667,0.9906 0.135466,0.51224 0.224366,1.02447 0.02117,0.1397 -0.0254,0.2032 -0.04233,0.0635 -0.127,0.0804 -0.08467,0.0212 -0.194733,0.0127 -0.105833,-0.008 -0.207433,-0.008 -0.02117,0.11853 -0.01693,0.27516 0,0.16087 0.04233,0.28787 0.359833,0.0212 0.605366,-0.055 0.249766,-0.0762 0.414866,-0.22436 0.169333,-0.14394 0.270933,-0.3429 0.1016,-0.19897 0.1651,-0.4191 0.06773,-0.22013 0.110067,-0.44873 0.04657,-0.2286 0.1016,-0.43604 0.0508,-0.22013 0.1016,-0.44873 0.05503,-0.23283 0.122766,-0.48683 -0.1778,-0.0127 -0.325966,-0.004 -0.148167,0.008 -0.2921,0.004 -0.0508,0.127 -0.08467,0.33443 -0.03387,0.20743 -0.0635,0.4318 -0.0254,0.22437 -0.05503,0.4318 -0.02963,0.20743 -0.0762,0.33443 -0.04657,-0.127 -0.09313,-0.32173 -0.04657,-0.19897 -0.0889,-0.41487 -0.04233,-0.2159 -0.08043,-0.42333 -0.0381,-0.21167 -0.06773,-0.36407 z"
         style="font-size:4.23333px;fill:#eceff1;stroke-width:0.264583"
         id="path6953" />
      <path
         d="m 12.783693,124.05549 v -0.004 -0.004 q 0,-0.0296 0.0042,-0.11006 0.0042,-0.0804 0.0085,-0.1651 0.0042,-0.0847 0.0085,-0.14817 0.0042,-0.0677 0.0042,-0.072 -0.02963,-0.0127 -0.101599,-0.0169 -0.06773,-0.008 -0.148167,-0.008 -0.08043,0 -0.160867,0.008 -0.0762,0.008 -0.118533,0.0254 0,0.0296 -0.0042,0.0931 0,0.0635 -0.0042,0.13547 0,0.072 0,0.14393 0.0042,0.072 0.0127,0.11854 h 0.0127 l 0.478366,0.004 z"
         style="font-size:4.23333px;fill:#eceff1;stroke-width:0.264583"
         id="path6955" />
      <path
         d="m 13.107345,120.97786 q -0.0381,0.38523 -0.0381,0.77046 0.0042,0.38524 0.01693,0.77047 0.0127,0.38523 0.01693,0.77047 0.0085,0.38523 -0.02117,0.76623 0.02963,-0.008 0.118533,-0.004 0.0889,0.004 0.186267,0.004 0.1016,0.004 0.186266,0 0.08467,0 0.105833,-0.0254 -0.0085,-0.16933 -0.0127,-0.41063 -0.0042,-0.24554 -0.0042,-0.52494 0,-0.2794 0,-0.57996 0.0042,-0.30057 0.0085,-0.57997 0.0042,-0.2794 0.0085,-0.52493 0.0042,-0.24554 0.0042,-0.4191 z"
         style="font-size:4.23333px;fill:#eceff1;stroke-width:0.264583"
         id="path6957" />
      <path
         d="m 15.66884,121.94729 q -0.135467,-0.008 -0.2413,-0.0127 -0.1016,-0.004 -0.173566,-0.008 -0.0127,0 -0.04657,0 -0.03387,0 -0.06773,0 -0.03387,-0.004 -0.0635,0 -0.0254,0 -0.0254,0.004 0,0.0508 -0.0127,0.1016 -0.0085,0.0466 -0.0042,0.1143 -0.02963,-0.072 -0.07197,-0.11007 -0.04233,-0.0423 -0.09737,-0.0593 -0.05503,-0.0212 -0.122766,-0.0212 -0.0635,-0.004 -0.1397,-0.004 -0.148167,0.004 -0.2794,0.0804 -0.131233,0.072 -0.2286,0.2032 -0.09313,0.127 -0.148166,0.3048 -0.05503,0.1778 -0.05503,0.38946 0,0.16934 0.03387,0.3683 0.0381,0.19897 0.1143,0.3683 0.0762,0.16934 0.1905,0.28364 0.118533,0.1143 0.283633,0.1143 0.148166,0 0.300566,-0.072 0.156633,-0.072 0.258233,-0.17357 0,0.0423 -0.0085,0.072 -0.0085,0.0296 -0.0085,0.0762 0,0.0339 0.0085,0.0593 0.0127,0.0254 0.04233,0.0339 0.04657,0 0.0889,-0.004 0.04657,-0.008 0.09313,-0.008 0.06773,0 0.135467,0.008 0.07197,0.004 0.1397,0.004 h 0.0508 q 0.0508,-0.008 0.0508,-0.0635 0.0042,-0.055 0.0042,-0.11006 0.02963,-0.45297 0.0127,-0.89324 -0.01693,-0.4445 -0.0042,-0.9017 v -0.0423 q 0,-0.0254 -0.0042,-0.0508 0,-0.0254 -0.0042,-0.0508 z m -1.231899,0.84243 q 0.02117,-0.10583 0.118533,-0.18626 0.1016,-0.0847 0.275167,-0.0847 0.0889,0 0.131233,0.0127 0.04657,0.0127 0.0635,0.0593 0.02117,0.0466 0.02117,0.13546 0.0042,0.0847 0.0042,0.23284 0,0.11853 -0.0042,0.2159 0,0.0931 -0.0254,0.16086 -0.02117,0.0635 -0.0762,0.1016 -0.0508,0.0339 -0.156633,0.0339 -0.1778,0 -0.279399,-0.13123 -0.09737,-0.13547 -0.09737,-0.32597 0,-0.055 0.0042,-0.11007 0.0042,-0.0593 0.02117,-0.1143 z"
         style="font-size:4.23333px;fill:#eceff1;stroke-width:0.264583"
         id="path6959" />
      <path
         d="m 16.534821,121.07946 q 0,-0.004 -0.05927,-0.008 -0.05503,-0.008 -0.1397,-0.008 -0.08043,-0.004 -0.173566,0 -0.09313,0 -0.160867,0.0127 v 0.2794 q 0,0.35137 -0.0085,0.70274 -0.0085,0.35136 -0.01693,0.69426 -0.0042,0.33867 -0.0085,0.66887 0,0.32597 0.0085,0.63077 0.131233,0 0.287867,0.004 0.156633,0.008 0.283633,-0.008 0.0042,-0.008 0.0042,-0.0296 0,-0.0423 0,-0.0677 0.0042,-0.0254 0.0042,-0.072 0.0085,-0.0212 0.01693,-0.0296 0.0127,-0.0127 0.0254,0.0127 0.0635,0.127 0.169333,0.1651 0.105833,0.0339 0.224366,0.0169 0.2413,-0.0169 0.381,-0.12277 0.1397,-0.11006 0.207433,-0.27516 0.07197,-0.16934 0.09313,-0.37677 0.02117,-0.20743 0.02963,-0.4191 0,-0.14817 -0.02117,-0.28787 -0.01693,-0.1397 -0.05927,-0.254 -0.0381,-0.11853 -0.105833,-0.19896 -0.0635,-0.0847 -0.156633,-0.11854 -0.1143,-0.0423 -0.254,-0.0508 -0.135466,-0.0127 -0.258233,0 -0.122766,0.008 -0.207433,0.0381 -0.08467,0.0296 -0.09313,0.0677 0.0042,-0.19897 0.0042,-0.32174 0,-0.12276 0,-0.19473 0,-0.0762 -0.0042,-0.1143 0,-0.0423 -0.0042,-0.0762 0,-0.0381 -0.0042,-0.0804 0,-0.0466 -0.0042,-0.13124 z m 0.656166,1.64253 q 0.02117,0.0593 0.0254,0.12277 0.0042,0.0635 0.0042,0.12276 0,0.10584 -0.0254,0.20744 -0.0254,0.0974 -0.0762,0.1778 -0.0508,0.0762 -0.122766,0.12276 -0.07197,0.0466 -0.160867,0.0466 -0.110066,0 -0.169333,-0.0466 -0.05927,-0.0466 -0.09313,-0.127 -0.02963,-0.0804 -0.0381,-0.1905 -0.0042,-0.1143 -0.0042,-0.24976 0,-0.1651 0.0042,-0.25824 0.0085,-0.0974 0.03387,-0.14816 0.0254,-0.0508 0.0762,-0.0635 0.05503,-0.0169 0.143933,-0.0169 0.173567,0 0.275167,0.0762 0.105833,0.0762 0.127,0.22437 z"
         style="font-size:4.23333px;fill:#eceff1;stroke-width:0.264583"
         id="path6961" />
      <path
         d="m 19.641424,122.59076 q 0,-0.2286 -0.08467,-0.41064 -0.08467,-0.18626 -0.283633,-0.27093 -0.110067,-0.0254 -0.2413,-0.0381 -0.131233,-0.0169 -0.262466,-0.0169 -0.131233,0 -0.249767,0.0127 -0.1143,0.0127 -0.194733,0.0339 -0.207433,0.055 -0.321733,0.21167 -0.110066,0.15663 -0.118533,0.3429 -0.0042,0.18203 0.1016,0.3556 0.110066,0.16933 0.347133,0.24977 0.118533,0.0508 0.2413,0.072 0.122766,0.0212 0.220133,0.0508 0.09737,0.0254 0.156633,0.0762 0.05927,0.0508 0.04657,0.1524 0.0042,0.12277 -0.0762,0.16934 -0.08043,0.0466 -0.1778,0.0381 -0.09737,-0.0127 -0.186267,-0.072 -0.08467,-0.0635 -0.0889,-0.16087 -0.131233,0 -0.309033,-0.004 -0.1778,-0.008 -0.317499,0.008 v 0.008 0.0127 q 0,0.16934 0.06773,0.3048 0.07197,0.13547 0.194733,0.2286 0.127,0.0931 0.300566,0.1397 0.173567,0.0466 0.389467,0.0381 0.245533,0.004 0.452966,-0.0847 0.207433,-0.0889 0.3048,-0.29634 0.08043,-0.23283 0.05927,-0.38946 -0.02117,-0.16087 -0.114299,-0.31327 -0.09737,-0.127 -0.3048,-0.18203 -0.207433,-0.0593 -0.4445,-0.0931 -0.09737,-0.0339 -0.148166,-0.1016 -0.0508,-0.0677 -0.0508,-0.13546 0,-0.0677 0.04657,-0.12277 0.0508,-0.0593 0.148167,-0.0762 0.05503,-0.004 0.110066,0.0169 0.05927,0.0169 0.1016,0.055 0.04657,0.0381 0.06773,0.0889 0.0254,0.0508 0.0127,0.1016 0.143933,0.0296 0.304799,0.0254 0.1651,-0.004 0.300567,-0.0254 z"
         style="font-size:4.23333px;fill:#eceff1;stroke-width:0.264583"
         id="path6963" />
    </g>
    <g
       style="font-size:6.35px;line-height:1.25;font-family:Dosis;-inkscape-font-specification:Dosis;letter-spacing:0px;word-spacing:0px;fill:#eceff1;stroke-width:0.0700042"
       id="text889"
       aria-label="this.rack">
      <path
         id="path1110"
         style="font-style:normal;font-variant:normal;font-weight:normal;font-stretch:normal;font-size:6.35px;font-family:'Londrina Solid';-inkscape-font-specification:'Londrina Solid';stroke-width:0.0700042"
         d="m 3.2104211,7.149191 q -0.10795,0.0127 -0.2159,0.00635 -0.10795,-0.00635 -0.2159,-0.0127 -0.10795,-0.0127 -0.20955,-0.01905 -0.09525,-0.00635 -0.1778,0.00635 -0.0127,0.12065 -0.01905,0.27305 0,0.1524 0,0.3175 0,0.1651 0.00635,0.3302 0.00635,0.15875 0.00635,0.29845 -0.1016,0 -0.2159,0 -0.10795,0 -0.23495,-0.00635 l -0.01905,0.7746999 q 0.13335,0 0.2413,0 0.1143,0 0.2159,-0.00635 -0.00635,0.46355 0.00635,0.9017001 0.0127,0.4318 0.09525,0.92075 0.08255,0.19685 0.2667,0.31115 0.1905,0.1143 0.4318,0.17145 0.2413,0.05715 0.51435,0.0762 0.27305,0.0127 0.52705,0 0.03175,-0.09525 0.0381,-0.20955 0.0127,-0.1143 0.00635,-0.2286 -0.00635,-0.1143 -0.01905,-0.22225 -0.0127,-0.10795 -0.0254,-0.19685 -0.10795,0.0063 -0.254,0 -0.1397,-0.0064 -0.2794,-0.03175 -0.1397,-0.03175 -0.26035,-0.08255 -0.12065,-0.0508 -0.18415,-0.1397 -0.00635,-0.28575 -0.00635,-0.6096001 0,-0.3302 0,-0.6731 h 0.98425 q -0.0127,-0.08255 -0.00635,-0.19685 0.0127,-0.12065 0.01905,-0.23495 0.00635,-0.1143 0,-0.20955 -0.00635,-0.1015999 -0.0508,-0.1523999 -0.32385,0.01905 -0.5461,0.03175 -0.2159,0.0127 -0.41275,0.01905 0,-0.09525 -0.00635,-0.18415 0,-0.0889 0,-0.17145 z" />
      <path
         id="path1112"
         style="font-style:normal;font-variant:normal;font-weight:normal;font-stretch:normal;font-size:6.35px;font-family:'Londrina Solid';-inkscape-font-specification:'Londrina Solid';stroke-width:0.0700042"
         d="m 5.361285,8.6604909 q 0,-0.0254 0,-0.15875 0,-0.1333499 0,-0.3174999 0,-0.18415 0,-0.3937 0,-0.2159 0,-0.40005 0,-0.1905 0,-0.32385 0,-0.1397 -0.00635,-0.17145 0,-0.01905 -0.0508,-0.01905 -0.0508,-0.00635 -0.1143,0 -0.0635,0.00635 -0.127,0.01905 -0.0635,0.00635 -0.0889,0.00635 -0.0762,0.00635 -0.127,0.0127 -0.0508,0 -0.09525,0 -0.04445,0 -0.09525,0 -0.0508,-0.00635 -0.127,-0.0127 -0.00635,0.2794 -0.0127,0.6604 0,0.37465 0,0.8001 0,0.4254499 0,0.8762999 0,0.4445 0,0.8636001 0.00635,0.4191 0.00635,0.7874 0.00635,0.36195 0.00635,0.6223 0.1524,-0.0127 0.254,-0.0063 0.1016,0.0063 0.18415,0.0063 0.08255,0.0064 0.15875,0 0.08255,-0.0063 0.1905,-0.0381 v -0.0254 q 0.0254,-0.20955 0.0254,-0.4191 0,-0.20955 -0.0127,-0.4191 -0.00635,-0.2159 -0.0127,-0.42545 -0.00635,-0.2159001 0.00635,-0.4381501 0.0127,-0.17145 0.0889,-0.254 0.0762,-0.0889 0.17145,-0.1143 0.09525,-0.03175 0.1905,-0.0127 0.1016,0.0127 0.1524,0.0381 0.00635,0.00635 0.0127,0.00635 0.00635,0 0.0127,0.00635 0.0508,0.0381 0.0762,0.10795 0.03175,0.06985 0.04445,0.15875 0.01905,0.0889 0.0254,0.18415 0.00635,0.0889 0.0127,0.1651001 0.0127,0.17145 0.0127,0.3683 0.00635,0.19685 0,0.3937 0,0.19685 0,0.381 0,0.18415 0.0127,0.3302 0.22225,0 0.3937,0 0.1778,0.0063 0.40005,-0.0254 -0.0127,-0.2159 -0.00635,-0.50165 0.00635,-0.28575 0.0127,-0.59055 0.00635,-0.31115 0.00635,-0.6096001 0.00635,-0.3048 -0.00635,-0.5588 -0.00635,-0.254 -0.04445,-0.4318 -0.03175,-0.18415 -0.09525,-0.2413 -0.13335,-0.1142999 -0.29845,-0.1587499 -0.1651,-0.04445 -0.3429,-0.0381 -0.17145,0.00635 -0.33655,0.0635 -0.1651,0.05715 -0.29845,0.1523999 -0.03175,0.0254 -0.08255,0.0508 -0.04445,0.0254 -0.0762,0.04445 z" />
      <path
         id="path1114"
         style="font-style:normal;font-variant:normal;font-weight:normal;font-stretch:normal;font-size:6.35px;font-family:'Londrina Solid';-inkscape-font-specification:'Londrina Solid';stroke-width:0.0700042"
         d="m 8.1442718,8.298541 q -0.2032,0.00635 -0.34925,0 -0.14605,-0.00635 -0.2286,-0.0127 -0.03175,0 -0.09525,-0.00635 -0.05715,-0.00635 -0.08255,0 v 0.00635 q -0.0381,0.3746499 -0.0381,0.7746999 0,0.3937 0.0127,0.8001 0.0127,0.4064001 0.0127,0.8191501 0.00635,0.41275 -0.0254,0.8128 0.04445,-0.0127 0.1778,-0.0063 0.13335,0.0063 0.2794,0.0063 0.1524,0.0064 0.2794,0 0.127,0 0.15875,-0.0381 -0.04445,-0.76835 -0.0254,-1.5684501 0.0254,-0.8001 0.03175,-1.5684499 v -0.01905 z m -0.78105,-1.3843 q -0.00635,0.2921 0.00635,0.4953 0.01905,0.19685 0.01905,0.381 0.12065,-0.00635 0.26035,0.00635 0.1397,0.00635 0.26035,0.0127 0.127,0 0.2159,-0.0127 0.09525,-0.0127 0.12065,-0.0508 0,-0.09525 -0.00635,-0.2159 0,-0.127 -0.00635,-0.2413 0,-0.12065 -0.00635,-0.2159 0,-0.1016 0,-0.1397 z" />
      <path
         id="path1116"
         style="font-style:normal;font-variant:normal;font-weight:normal;font-stretch:normal;font-size:6.35px;font-family:'Londrina Solid';-inkscape-font-specification:'Londrina Solid';stroke-width:0.0700042"
         d="m 11.22422,9.2954909 q 0,-0.3429 -0.127,-0.61595 -0.127,-0.2793999 -0.42545,-0.4063999 -0.1651,-0.0381 -0.36195,-0.05715 -0.19685,-0.0254 -0.3937001,-0.0254 -0.19685,0 -0.37465,0.01905 -0.17145,0.01905 -0.2921,0.0508 -0.31115,0.08255 -0.4826,0.3174999 -0.1651,0.23495 -0.1778,0.51435 -0.00635,0.27305 0.1524,0.5334 0.1651,0.254 0.5207,0.3746501 0.1778,0.0762 0.36195,0.10795 0.18415,0.03175 0.3302,0.0762 0.1460501,0.0381 0.2349501,0.1143 0.0889,0.0762 0.06985,0.2286 0.0064,0.18415 -0.1143,0.254 -0.12065,0.06985 -0.2667001,0.05715 -0.14605,-0.01905 -0.2794,-0.10795 -0.127,-0.09525 -0.13335,-0.2413 -0.19685,0 -0.46355,-0.0063 -0.2667,-0.0127 -0.47625,0.0127 v 0.0127 0.01905 q 0,0.254 0.1016,0.4572 0.10795,0.2032 0.2921,0.3429 0.1905,0.1397 0.45085,0.20955 0.26035,0.06985 0.5842,0.05715 0.3683001,0.0063 0.6794501,-0.127 0.31115,-0.13335 0.4572,-0.4445 0.12065,-0.34925 0.0889,-0.5842 -0.03175,-0.2413 -0.17145,-0.4699001 -0.14605,-0.1905 -0.4572,-0.27305 -0.31115,-0.0889 -0.6667501,-0.1397 -0.14605,-0.0508 -0.22225,-0.1524 -0.0762,-0.1016 -0.0762,-0.2032 0,-0.1016 0.06985,-0.18415 0.0762,-0.0889 0.22225,-0.1143 0.08255,-0.00635 0.1651001,0.0254 0.0889,0.0254 0.1524,0.08255 0.06985,0.05715 0.1016,0.13335 0.0381,0.0762 0.01905,0.1524 0.2159,0.04445 0.4572,0.0381 0.24765,-0.00635 0.45085,-0.0381 z" />
      <path
         id="path1118"
         style="font-style:normal;font-variant:normal;font-weight:normal;font-stretch:normal;font-size:6.35px;font-family:'Londrina Solid';-inkscape-font-specification:'Londrina Solid';stroke-width:0.0700042"
         d="m 12.273359,11.492591 v -0.0063 -0.0063 q 0,-0.04445 0.0064,-0.1651 0.0063,-0.12065 0.0127,-0.24765 0.0064,-0.127 0.0127,-0.22225 0.0063,-0.1016 0.0063,-0.10795 -0.04445,-0.01905 -0.1524,-0.0254 -0.1016,-0.0127 -0.22225,-0.0127 -0.12065,0 -0.2413,0.0127 -0.1143,0.0127 -0.1778,0.0381 0,0.04445 -0.0063,0.1397 0,0.09525 -0.0064,0.2032 0,0.10795 0,0.2159 0.0064,0.10795 0.01905,0.1778 h 0.01905 l 0.71755,0.0063 z" />
      <path
         id="path1120"
         style="font-style:normal;font-variant:normal;font-weight:normal;font-stretch:normal;font-size:6.35px;font-family:'Londrina Solid';-inkscape-font-specification:'Londrina Solid';stroke-width:0.0700042"
         d="m 13.609737,8.5398409 q 0,-0.04445 -0.0064,-0.0635 0,-0.01905 0,-0.03175 0,-0.01905 0,-0.04445 0,-0.0254 0,-0.0762 0,-0.0127 -0.05715,-0.0127 -0.0508,-0.00635 -0.127,0 -0.06985,0.00635 -0.1397,0.0127 -0.0635,0.00635 -0.0889,0.00635 -0.0762,0.00635 -0.127,0.0127 -0.0508,0 -0.09525,0 -0.04445,0 -0.09525,0 -0.0508,-0.00635 -0.127,-0.0127 -0.0254,0.8381999 -0.0127,1.6192499 0.01905,0.7810502 0.01905,1.5621002 0.1524,-0.0127 0.26035,-0.0063 0.1143,0.0063 0.20955,0.0063 0.09525,0.0064 0.18415,0 0.0889,-0.0063 0.19685,-0.0381 v -0.0254 q 0,-0.23495 -0.0063,-0.43815 0,-0.20955 0,-0.4064 0,-0.2032 -0.0063,-0.40005 -0.0064,-0.19685 -0.0127,-0.4191002 -0.0063,-0.1778 0.0508,-0.27305 0.05715,-0.09525 0.15875,-0.1397 0.10795,-0.04445 0.24765,-0.04445 0.14605,0 0.3175,0.01905 0.0064,0 0.08255,0.0127 0.08255,0.0127 0.15875,0.03175 0.03175,0.0127 0.0635,0.0254 0.0381,0.00635 0.06985,0.01905 l 0.05715,0.01905 q -0.0064,-0.09525 -0.0064,-0.2032 0,-0.10795 0,-0.23495 0,-0.13335 0,-0.29845 0.0064,-0.1651 0.0064,-0.3809999 0,-0.00635 -0.09525,-0.00635 -0.0889,-0.00635 -0.22225,0 -0.13335,0.00635 -0.28575,0.03175 -0.1524,0.01905 -0.27305,0.05715 -0.0889,0.03175 -0.18415,0.06985 -0.0889,0.0381 -0.1143,0.0508 z" />
      <path
         id="path1122"
         style="font-style:normal;font-variant:normal;font-weight:normal;font-stretch:normal;font-size:6.35px;font-family:'Londrina Solid';-inkscape-font-specification:'Londrina Solid';stroke-width:0.0700042"
         d="m 17.630477,8.330291 q -0.2032,-0.0127 -0.36195,-0.01905 -0.1524,-0.00635 -0.26035,-0.0127 -0.01905,0 -0.06985,0 -0.0508,0 -0.1016,0 -0.0508,-0.00635 -0.09525,0 -0.0381,0 -0.0381,0.00635 0,0.0762 -0.01905,0.1523999 -0.0127,0.06985 -0.0064,0.17145 -0.04445,-0.10795 -0.10795,-0.1651 -0.0635,-0.0635 -0.14605,-0.0889 -0.08255,-0.03175 -0.18415,-0.03175 -0.09525,-0.00635 -0.20955,-0.00635 -0.22225,0.00635 -0.4191,0.1206499 -0.19685,0.10795 -0.3429,0.3048 -0.1397,0.1905 -0.22225,0.4572 -0.08255,0.2667 -0.08255,0.5842 0,0.2540002 0.0508,0.5524502 0.05715,0.29845 0.17145,0.55245 0.1143,0.254 0.28575,0.42545 0.1778,0.17145 0.42545,0.17145 0.22225,0 0.45085,-0.10795 0.23495,-0.10795 0.38735,-0.26035 0,0.0635 -0.0127,0.10795 -0.0127,0.04445 -0.0127,0.1143 0,0.0508 0.0127,0.0889 0.01905,0.0381 0.0635,0.0508 0.06985,0 0.13335,-0.0064 0.06985,-0.0127 0.1397,-0.0127 0.1016,0 0.2032,0.0127 0.10795,0.0064 0.20955,0.0064 h 0.0762 q 0.0762,-0.0127 0.0762,-0.09525 0.0063,-0.08255 0.0063,-0.1651 0.04445,-0.67945 0.01905,-1.3398502 -0.0254,-0.66675 -0.0063,-1.35255 v -0.0635 q 0,-0.0381 -0.0064,-0.0762 0,-0.0381 -0.0064,-0.0762 z m -1.84785,1.2636499 q 0.03175,-0.15875 0.1778,-0.2794 0.1524,-0.127 0.41275,-0.127 0.13335,0 0.19685,0.01905 0.06985,0.01905 0.09525,0.0889 0.03175,0.06985 0.03175,0.2032 0.0064,0.127 0.0064,0.34925 0,0.1778001 -0.0064,0.3238501 0,0.1397 -0.0381,0.2413 -0.03175,0.09525 -0.1143,0.1524 -0.0762,0.0508 -0.23495,0.0508 -0.2667,0 -0.4191,-0.19685 -0.14605,-0.2032 -0.14605,-0.4889501 0,-0.08255 0.0063,-0.1651 0.0064,-0.0889 0.03175,-0.17145 z" />
      <path
         id="path1124"
         style="font-style:normal;font-variant:normal;font-weight:normal;font-stretch:normal;font-size:6.35px;font-family:'Londrina Solid';-inkscape-font-specification:'Londrina Solid';stroke-width:0.0700042"
         d="m 20.54235,10.273391 q -0.06985,-0.01905 -0.1778,-0.01905 -0.10795,-0.0063 -0.2286,0 -0.12065,0.0063 -0.2286,0.0127 -0.10795,0 -0.17145,-0.0064 -0.01905,0.08255 -0.05715,0.1905 -0.03175,0.1016 -0.09525,0.14605 -0.0762,0.0508 -0.2032,0.06985 -0.127,0.0127 -0.24765,-0.0127 -0.12065,-0.03175 -0.20955,-0.1143 -0.08255,-0.08255 -0.06985,-0.2286 0.0127,-0.22225 0.0127,-0.4254501 0,-0.2032 0.0254,-0.40005 0.01905,-0.1016 0.05715,-0.127 0.08255,-0.1016 0.2159,-0.1397 0.24765,-0.0635 0.40005,0.0635 0.1524,0.12065 0.18415,0.3429 0.08255,0.0127 0.18415,0.0254 0.10795,0.0127 0.2159,0.01905 0.1143,0.00635 0.2159,0.00635 0.10795,0 0.1905,-0.01905 -0.0064,-0.20955 -0.0127,-0.38735 0,-0.18415 -0.0254,-0.3302 -0.0254,-0.14605 -0.0762,-0.254 -0.04445,-0.10795 -0.13335,-0.17145 -0.13335,-0.1269999 -0.3175,-0.1904999 -0.18415,-0.0635 -0.38735,-0.0762 -0.13335,-0.0127 -0.254,0 -0.1143,0.00635 -0.2413,-0.00635 -0.1524,0 -0.3048,0.01905 -0.14605,0.01905 -0.2794,0.06985 -0.127,0.04445 -0.2286,0.1143 -0.09525,0.06985 -0.1397,0.1650999 -0.01905,0.0635 -0.05715,0.18415 -0.0381,0.12065 -0.04445,0.1905 -0.0381,0.2286 -0.0381,0.4572 0.0254,0.20955 0.0127,0.46355 -0.0064,0.2540001 0.0063,0.5080001 0.0127,0.24765 0.0762,0.47625 0.0635,0.2286 0.23495,0.381 0.22225,0.22225 0.5461,0.2794 0.1778,0 0.3937,0.0127 0.2159,0.01905 0.4191,0 0.2032,-0.0127 0.37465,-0.0762 0.1778,-0.0635 0.28575,-0.2159 0.04445,-0.04445 0.06985,-0.1397 0.03175,-0.1016 0.0508,-0.23495 0.01905,-0.1397 0.03175,-0.29845 0.0127,-0.15875 0.0254,-0.32385 z" />
      <path
         id="path1126"
         style="font-style:normal;font-variant:normal;font-weight:normal;font-stretch:normal;font-size:6.35px;font-family:'Londrina Solid';-inkscape-font-specification:'Londrina Solid';stroke-width:0.0700042"
         d="m 21.776829,6.882491 q -0.08255,-0.0127 -0.1905,-0.0127 -0.10795,0 -0.2286,0.00635 -0.1143,0 -0.23495,0.00635 -0.1143,0 -0.20955,0 0.0063,1.1557 -0.01905,2.2923499 -0.0254,1.1366501 0.01905,2.3177501 0.09525,0.0127 0.20955,0.0127 0.12065,0 0.23495,-0.0063 0.1143,-0.0064 0.2159,-0.0064 0.10795,-0.0063 0.1778,0 0.0254,-0.1397 0.03175,-0.3048 0.0064,-0.17145 0.0064,-0.33655 0,-0.1651 -0.0064,-0.3175 -0.0064,-0.1524 -0.0064,-0.2667 0.10795,0.1397 0.1905,0.2921 0.0889,0.1524 0.1651,0.31115 0.0762,0.1524 0.1524,0.31115 0.08255,0.15875 0.177799,0.31115 0.09525,0.01905 0.2286,0.0254 0.1397,0.0063 0.28575,0 0.14605,-0.0064 0.2794,-0.01905 0.1397,-0.0064 0.2286,-0.0064 -0.2413,-0.48895 -0.5334,-0.9398 -0.28575,-0.4572 -0.5715,-0.9207501 0.2667,-0.3556 0.53975,-0.70485 0.27305,-0.3556 0.508,-0.7175499 -0.0889,-0.00635 -0.2286,0.00635 -0.1397,0.00635 -0.28575,0.0127 -0.1397,0 -0.27305,0 -0.13335,-0.00635 -0.2159,-0.0381 -0.09525,0.10795 -0.171449,0.2286 -0.06985,0.1206499 -0.1397,0.2412999 -0.06985,0.1143 -0.1524,0.2286 -0.0762,0.1143 -0.18415,0.20955 -0.01905,-0.14605 -0.0127,-0.381 0.0127,-0.23495 0.0127,-0.4444999 z" />
    </g>
    <g
       aria-label="HP"
       id="text893"
       style="font-size:5.64444px;line-height:1.25;font-family:Dosis;-inkscape-font-specification:Dosis;letter-spacing:0px;word-spacing:0px;fill:#eceff1;stroke-width:0.07;stroke-miterlimit:2.7;stroke-dasharray:none"
       transform="translate(-6.6190735e-5,58.697893)">
      <path
         d="m 12.316046,32.69519 q -0.08467,-0.0056 -0.191911,-0.0056 -0.1016,-0.0056 -0.208844,0.0056 -0.107245,0.0056 -0.208845,0.02258 -0.09596,0.01693 -0.163689,0.03951 0.01693,0.4064 0.01129,0.745067 0,0.338666 -0.03387,0.728132 h -0.0056 q -0.141111,0.01129 -0.304799,0.02822 -0.163689,0.01129 -0.3048,-0.02258 h -0.0056 q -0.06773,-0.361244 -0.06773,-0.728133 0,-0.366889 -0.0508,-0.756355 -0.07902,-0.02258 -0.169333,-0.02258 -0.09031,0 -0.186267,0.0056 -0.09031,0.0056 -0.186266,0.01129 -0.09031,0.0056 -0.174978,-0.01129 h -0.01129 -0.0056 v 0.0056 q -0.0056,0.287867 -0.01129,0.649111 0,0.355599 0.0056,0.745066 0.0056,0.383822 0.01129,0.767644 0.01129,0.383822 0.02258,0.728132 0.01129,0.338667 0.02258,0.615244 0.01693,0.270934 0.02822,0.428978 0.0508,-0.02822 0.146755,-0.02258 0.1016,0.0056 0.214489,0.01693 0.112889,0.01129 0.225778,0.01129 0.112889,0 0.180622,-0.03951 0.02822,-0.180622 0.02822,-0.361244 0.0056,-0.186266 0,-0.378177 -0.0056,-0.191911 -0.01129,-0.383822 0,-0.191911 0.01693,-0.389467 0.163688,-0.03951 0.327377,-0.03951 0.163689,0 0.327378,0.02822 l 0.0056,0.0056 q 0.02258,0.180622 0.02822,0.378177 0.0056,0.197556 0.0056,0.395111 0.0056,0.197556 0.01129,0.400755 0.01129,0.197556 0.03951,0.383822 h 0.0056 q 0.06773,-0.0056 0.163689,-0.0056 0.1016,0 0.2032,0 0.107244,0 0.214488,-0.0056 0.112889,-0.0056 0.208845,-0.02258 z"
         style="font-style:normal;font-variant:normal;font-weight:normal;font-stretch:normal;font-family:'Londrina Solid';-inkscape-font-specification:'Londrina Solid';fill:#eceff1;stroke-width:0.07;stroke-miterlimit:2.7;stroke-dasharray:none"
         id="path986" />
      <path
         d="m 15.364308,33.908744 q -0.01693,-0.321733 -0.146755,-0.54751 -0.129822,-0.225778 -0.333022,-0.372534 -0.197556,-0.152399 -0.4572,-0.225777 -0.259644,-0.07902 -0.536222,-0.1016 -0.270933,-0.02258 -0.54751,0.0056 -0.270934,0.02822 -0.502356,0.09031 0.01693,0.468489 0.01693,0.982133 0.0056,0.513644 0.0056,1.021644 0,0.507999 0,0.993421 0,0.479778 0.01693,0.891822 0.09596,0.01129 0.225778,0.01693 0.129822,0.0056 0.259644,0.0056 0.135467,-0.0056 0.254,-0.01129 0.124178,-0.01129 0.2032,-0.03387 0.0056,0 0.0056,0 0.0056,-0.0056 0.01129,-0.0056 v -0.0056 q -0.01129,-0.412044 -0.01693,-0.654755 0,-0.242711 0,-0.383822 0,-0.146755 0,-0.220133 0,-0.07902 -0.0056,-0.158044 0.270933,0.04515 0.530577,-0.02258 0.259644,-0.07338 0.474133,-0.231422 0.214489,-0.158045 0.3556,-0.383822 0.146755,-0.225778 0.180622,-0.496711 0.0056,-0.03387 0.0056,-0.06773 0,-0.03951 0,-0.07902 z m -0.987777,-0.237066 q 0.07338,0.04516 0.112889,0.112889 0.04515,0.06773 0.05644,0.146755 0.01693,0.07902 -0.0056,0.158044 -0.01693,0.07902 -0.06209,0.141111 -0.06773,0.06773 -0.163689,0.1016 -0.09031,0.02822 -0.191911,0.03951 -0.09596,0.01129 -0.197555,0.01693 -0.1016,0 -0.191911,0.0056 h -0.01693 q -0.02822,-0.08467 -0.03951,-0.186266 -0.0056,-0.107245 -0.01129,-0.220134 0,-0.112888 0,-0.225777 0.0056,-0.112889 0,-0.214489 0.0056,-0.0056 0.01693,-0.0056 0.180622,-0.04516 0.366889,-0.01129 0.186266,0.02822 0.327377,0.141111 z"
         style="font-style:normal;font-variant:normal;font-weight:normal;font-stretch:normal;font-family:'Londrina Solid';-inkscape-font-specification:'Londrina Solid';fill:#eceff1;stroke-width:0.07;stroke-miterlimit:2.7;stroke-dasharray:none"
         id="path988" />
    </g>
    <g
       aria-label="params"
       id="text897"
       style="font-size:5.64444px;line-height:1.25;font-family:Dosis;-inkscape-font-specification:Dosis;letter-spacing:0px;word-spacing:0px;fill:#eceff1;stroke-width:0.0700042"
       transform="translate(-3.9407349e-6,-3.3396905)">
      <path
         d="m 5.3516443,57.368328 q 0.00564,-0.112889 0.00564,-0.174978 0.00564,-0.05644 0.00564,-0.107244 0.00564,-0.04516 0.00564,-0.1016 0.00564,-0.0508 0.00564,-0.1524 0,-0.09596 0,-0.259644 0,-0.163689 -0.00564,-0.428978 0.011289,0.0508 0.1241777,0.09031 0.1128888,0.03951 0.2765776,0.0508 0.1636888,0.01693 0.3443108,0 0.1862666,-0.01129 0.3386665,-0.06773 0.1241776,-0.04516 0.2088442,-0.1524 0.090311,-0.112888 0.141111,-0.265288 0.056444,-0.158045 0.079022,-0.344311 0.028222,-0.186267 0.028222,-0.383822 -0.011289,-0.282222 -0.039511,-0.5588 Q 6.8417765,54.235664 6.745821,54.015531 6.65551,53.789753 6.4692435,53.648642 6.2829769,53.501886 5.9612439,53.479309 q -0.1580444,-0.02258 -0.2991554,0.02822 -0.141111,0.04516 -0.2257776,0.214489 -0.016933,0.03387 -0.033867,0.02258 -0.011289,-0.01693 -0.022578,-0.04516 0,-0.06209 -0.00564,-0.09596 0,-0.03387 0,-0.09031 0,-0.02822 -0.00564,-0.03951 -0.1693332,-0.02258 -0.3781775,-0.01129 -0.2088442,0.0056 -0.3838219,0.0056 -0.011289,0.4064 -0.011289,0.846666 0.00564,0.434622 0.011289,0.891821 0.011289,0.451556 0.022578,0.920044 0.011289,0.468489 0.011289,0.936977 v 0.372533 q 0.090311,0.01693 0.2144887,0.01693 0.1241777,0.0056 0.231422,0 0.1128888,0 0.1862666,-0.01129 0.079022,-0.0056 0.079022,-0.01129 z m 0.8748882,-2.127954 q -0.028222,0.197555 -0.1693332,0.299155 -0.1354665,0.1016 -0.3668886,0.1016 -0.1185332,0 -0.1919109,-0.01693 -0.067733,-0.02258 -0.1016,-0.09031 -0.033867,-0.06773 -0.045155,-0.191911 -0.00564,-0.129822 -0.00564,-0.349955 0,-0.174978 0.00564,-0.327378 0.011289,-0.1524 0.0508,-0.259644 0.045155,-0.107244 0.1241777,-0.169333 0.079022,-0.06209 0.2257776,-0.06209 0.1185332,0 0.2144887,0.06209 0.095955,0.06209 0.1636888,0.169333 0.067733,0.1016 0.1015999,0.237066 0.033867,0.129823 0.033867,0.270934 0,0.07902 -0.00564,0.163688 -0.00564,0.08467 -0.033867,0.163689 z"
         style="font-style:normal;font-variant:normal;font-weight:normal;font-stretch:normal;font-family:'Londrina Solid';-inkscape-font-specification:'Londrina Solid';fill:#eceff1;stroke-width:0.0700042"
         id="path991" />
      <path
         d="m 9.5107147,53.473664 q -0.1806221,-0.01129 -0.3217331,-0.01693 -0.1354666,-0.0056 -0.2314221,-0.01129 -0.016933,0 -0.062089,0 -0.045155,0 -0.090311,0 -0.045156,-0.0056 -0.084667,0 -0.033867,0 -0.033867,0.0056 0,0.06773 -0.016933,0.135466 -0.011289,0.06209 -0.00564,0.1524 -0.039511,-0.09596 -0.095956,-0.146755 -0.056444,-0.05645 -0.1298222,-0.07902 -0.073378,-0.02822 -0.1636887,-0.02822 -0.084667,-0.0056 -0.1862665,-0.0056 -0.1975555,0.0056 -0.3725331,0.107244 -0.1749776,0.09596 -0.3047998,0.270933 -0.1241776,0.169333 -0.1975554,0.4064 -0.073378,0.237066 -0.073378,0.519288 0,0.225778 0.045155,0.491067 0.0508,0.265288 0.1523999,0.491066 0.1015999,0.225778 0.2539998,0.378177 0.1580443,0.1524 0.3781775,0.1524 0.1975554,0 0.4007553,-0.09596 0.2088443,-0.09596 0.3443108,-0.231422 0,0.05644 -0.011289,0.09595 -0.011289,0.03951 -0.011289,0.1016 0,0.04516 0.011289,0.07902 0.016933,0.03387 0.056444,0.04516 0.062089,0 0.1185333,-0.0056 0.062089,-0.01129 0.1241777,-0.01129 0.090311,0 0.180622,0.01129 0.095956,0.0056 0.1862666,0.0056 h 0.067733 q 0.067733,-0.01129 0.067733,-0.08467 0.00564,-0.07338 0.00564,-0.146755 0.039511,-0.603955 0.016933,-1.190977 -0.022578,-0.592666 -0.00564,-1.202266 v -0.05644 q 0,-0.03387 -0.00564,-0.06773 0,-0.03387 -0.00564,-0.06773 z m -1.6425321,1.123244 q 0.028222,-0.141111 0.1580443,-0.248355 0.1354666,-0.112889 0.3668886,-0.112889 0.1185333,0 0.1749777,0.01693 0.062089,0.01693 0.084667,0.07902 0.028222,0.06209 0.028222,0.180622 0.00564,0.112889 0.00564,0.310444 0,0.158045 -0.00564,0.287867 0,0.124178 -0.033867,0.214489 -0.028222,0.08467 -0.1015999,0.135466 -0.067733,0.04516 -0.2088443,0.04516 -0.2370665,0 -0.372533,-0.174978 -0.1298222,-0.180622 -0.1298222,-0.434622 0,-0.07338 0.00564,-0.146755 0.00564,-0.07902 0.028222,-0.1524 z"
         style="font-style:normal;font-variant:normal;font-weight:normal;font-stretch:normal;font-family:'Londrina Solid';-inkscape-font-specification:'Londrina Solid';fill:#eceff1;stroke-width:0.0700042"
         id="path993" />
      <path
         d="m 10.699222,53.659931 q 0,-0.03951 -0.0056,-0.05645 0,-0.01693 0,-0.02822 0,-0.01693 0,-0.03951 0,-0.02258 0,-0.06773 0,-0.01129 -0.0508,-0.01129 -0.04516,-0.0056 -0.112889,0 -0.06209,0.0056 -0.124178,0.01129 -0.05644,0.0056 -0.07902,0.0056 -0.06773,0.0056 -0.112889,0.01129 -0.04516,0 -0.08467,0 -0.03951,0 -0.08467,0 -0.045155,-0.0056 -0.1128887,-0.01129 -0.022578,0.745066 -0.011289,1.439333 0.016933,0.694266 0.016933,1.388532 0.1354667,-0.01129 0.2314227,-0.0056 0.1016,0.0056 0.186266,0.0056 0.08467,0.0056 0.163689,0 0.07902,-0.0056 0.174978,-0.03387 v -0.02258 q 0,-0.208844 -0.0056,-0.389466 0,-0.186266 0,-0.361244 0,-0.180622 -0.0056,-0.3556 -0.0056,-0.174978 -0.01129,-0.372533 -0.0056,-0.158044 0.04516,-0.242711 0.0508,-0.08467 0.141111,-0.124178 0.09596,-0.03951 0.220134,-0.03951 0.129822,0 0.282222,0.01693 0.0056,0 0.07338,0.01129 0.07338,0.01129 0.141111,0.02822 0.02822,0.01129 0.05645,0.02258 0.03387,0.0056 0.06209,0.01693 l 0.0508,0.01693 q -0.0056,-0.08467 -0.0056,-0.180622 0,-0.09595 0,-0.208844 0,-0.118533 0,-0.265289 0.0056,-0.146755 0.0056,-0.338666 0,-0.0056 -0.08467,-0.0056 -0.07902,-0.0056 -0.197555,0 -0.118534,0.0056 -0.254,0.02822 -0.135467,0.01693 -0.242711,0.0508 -0.07902,0.02822 -0.163689,0.06209 -0.07902,0.03387 -0.1016,0.04516 z"
         style="font-style:normal;font-variant:normal;font-weight:normal;font-stretch:normal;font-family:'Londrina Solid';-inkscape-font-specification:'Londrina Solid';fill:#eceff1;stroke-width:0.0700042"
         id="path995" />
      <path
         d="m 14.273211,53.473664 q -0.180622,-0.01129 -0.321733,-0.01693 -0.135467,-0.0056 -0.231422,-0.01129 -0.01693,0 -0.06209,0 -0.04515,0 -0.09031,0 -0.04515,-0.0056 -0.08467,0 -0.03387,0 -0.03387,0.0056 0,0.06773 -0.01693,0.135466 -0.01129,0.06209 -0.0056,0.1524 -0.03951,-0.09596 -0.09596,-0.146755 -0.05645,-0.05645 -0.129822,-0.07902 -0.07338,-0.02822 -0.163689,-0.02822 -0.08467,-0.0056 -0.186267,-0.0056 -0.197555,0.0056 -0.372533,0.107244 -0.174977,0.09596 -0.3048,0.270933 -0.124177,0.169333 -0.197555,0.4064 -0.07338,0.237066 -0.07338,0.519288 0,0.225778 0.04516,0.491067 0.0508,0.265288 0.1524,0.491066 0.1016,0.225778 0.253999,0.378177 0.158045,0.1524 0.378178,0.1524 0.197555,0 0.400755,-0.09596 0.208845,-0.09596 0.344311,-0.231422 0,0.05644 -0.01129,0.09595 -0.01129,0.03951 -0.01129,0.1016 0,0.04516 0.01129,0.07902 0.01693,0.03387 0.05645,0.04516 0.06209,0 0.118533,-0.0056 0.06209,-0.01129 0.124178,-0.01129 0.09031,0 0.180622,0.01129 0.09596,0.0056 0.186266,0.0056 h 0.06773 q 0.06773,-0.01129 0.06773,-0.08467 0.0056,-0.07338 0.0056,-0.146755 0.03951,-0.603955 0.01693,-1.190977 -0.02258,-0.592666 -0.0056,-1.202266 v -0.05644 q 0,-0.03387 -0.0056,-0.06773 0,-0.03387 -0.0056,-0.06773 z m -1.642532,1.123244 q 0.02822,-0.141111 0.158044,-0.248355 0.135467,-0.112889 0.366889,-0.112889 0.118533,0 0.174978,0.01693 0.06209,0.01693 0.08467,0.07902 0.02822,0.06209 0.02822,0.180622 0.0056,0.112889 0.0056,0.310444 0,0.158045 -0.0056,0.287867 0,0.124178 -0.03387,0.214489 -0.02822,0.08467 -0.1016,0.135466 -0.06773,0.04516 -0.208844,0.04516 -0.237067,0 -0.372533,-0.174978 -0.129823,-0.180622 -0.129823,-0.434622 0,-0.07338 0.0056,-0.146755 0.0056,-0.07902 0.02822,-0.1524 z"
         style="font-style:normal;font-variant:normal;font-weight:normal;font-stretch:normal;font-family:'Londrina Solid';-inkscape-font-specification:'Londrina Solid';fill:#eceff1;stroke-width:0.0700042"
         id="path997" />
      <path
         d="m 15.433497,53.767175 q -0.0056,-0.07902 -0.0056,-0.141111 0.0056,-0.06209 -0.0056,-0.158044 0,-0.01693 -0.04516,-0.01693 -0.04516,-0.0056 -0.101599,0 -0.05645,0.0056 -0.112889,0.01693 -0.05645,0.0056 -0.07902,0.0056 -0.06773,0.0056 -0.112889,0.01129 -0.04516,0 -0.08467,0 -0.03951,0 -0.08467,0 -0.04516,-0.0056 -0.112889,-0.01129 -0.02258,0.745066 -0.01129,1.439333 0.01693,0.694266 0.01693,1.388532 0.135467,-0.01129 0.225778,-0.0056 0.09031,0.0056 0.163689,0.0056 0.07338,0.0056 0.141111,0 0.07338,-0.0056 0.169333,-0.03387 v -0.02258 q 0.02258,-0.186266 0.02258,-0.372533 0,-0.186266 -0.01129,-0.372533 -0.0056,-0.191911 -0.01129,-0.378177 -0.0056,-0.191911 0.0056,-0.389467 0.01129,-0.152399 0.07902,-0.225777 0.06773,-0.07902 0.1524,-0.1016 0.08467,-0.02822 0.169333,-0.01129 0.09031,0.01129 0.135467,0.03387 0.0056,0.0056 0.01129,0.0056 0.0056,0 0.01129,0.0056 0.04516,0.03387 0.06773,0.09595 0.02822,0.06209 0.03951,0.141111 0.01693,0.07902 0.02258,0.163689 0.0056,0.07902 0.01129,0.146755 0.01129,0.1524 0.01129,0.327378 0.0056,0.174977 0,0.349955 0,0.174978 0,0.338666 0,0.163689 0.01129,0.293511 0.197555,0 0.349955,0 0.158044,0.0056 0.3556,-0.02258 -0.01129,-0.169334 -0.01129,-0.389467 0.0056,-0.225777 0.01129,-0.462844 0.0056,-0.242711 0.01129,-0.485422 0.0056,-0.248355 0,-0.468488 0.0508,-0.03951 0.107245,-0.05645 0.06209,-0.02258 0.118533,-0.02258 0.06209,0 0.112889,0.01129 0.0508,0.01129 0.08467,0.02822 0.0056,0.0056 0.01129,0.0056 0.0056,0 0.01129,0.0056 0.04516,0.03387 0.06773,0.09595 0.02822,0.06209 0.03951,0.141111 0.01693,0.07902 0.02258,0.163689 0.0056,0.07902 0.01129,0.146755 0.01129,0.1524 0.01129,0.327378 0.0056,0.174977 0,0.349955 0,0.174978 0,0.338666 0,0.163689 0.01129,0.293511 0.197555,0 0.349955,0 0.158045,0.0056 0.3556,-0.02258 -0.01129,-0.191911 -0.0056,-0.445911 0.0056,-0.254 0.01129,-0.524933 0.0056,-0.276578 0.0056,-0.541866 0.0056,-0.270933 -0.0056,-0.496711 -0.0056,-0.225778 -0.03951,-0.383822 -0.02822,-0.163689 -0.08467,-0.214489 -0.118533,-0.1016 -0.265289,-0.141111 -0.146755,-0.03951 -0.3048,-0.03387 -0.1524,0.0056 -0.299155,0.05644 -0.146755,0.0508 -0.265289,0.135467 -0.02822,0.02258 -0.06773,0.04515 -0.03951,0.01693 -0.06773,0.03387 -0.02822,-0.06773 -0.05645,-0.09596 -0.118533,-0.1016 -0.265288,-0.141111 -0.146756,-0.03951 -0.3048,-0.03387 -0.1524,0.0056 -0.299155,0.05644 -0.146756,0.0508 -0.265289,0.135467 -0.02822,0.02258 -0.07338,0.04515 -0.03951,0.02258 -0.06773,0.03951 z"
         style="font-style:normal;font-variant:normal;font-weight:normal;font-stretch:normal;font-family:'Londrina Solid';-inkscape-font-specification:'Londrina Solid';fill:#eceff1;stroke-width:0.0700042"
         id="path999" />
      <path
         d="m 20.80471,54.331619 q 0,-0.3048 -0.112889,-0.547511 -0.112888,-0.248355 -0.378177,-0.361244 -0.146756,-0.03387 -0.321733,-0.0508 -0.174978,-0.02258 -0.349955,-0.02258 -0.174978,0 -0.333022,0.01693 -0.1524,0.01693 -0.259645,0.04516 -0.276577,0.07338 -0.428977,0.282222 -0.146756,0.208845 -0.158044,0.4572 -0.0056,0.242711 0.135466,0.474133 0.146756,0.225778 0.462844,0.333022 0.158044,0.06773 0.321733,0.09596 0.163689,0.02822 0.293511,0.06773 0.129822,0.03387 0.208844,0.1016 0.07902,0.06773 0.06209,0.2032 0.0056,0.163688 -0.1016,0.225777 -0.107244,0.06209 -0.237066,0.0508 -0.129822,-0.01693 -0.248356,-0.09595 -0.112888,-0.08467 -0.118533,-0.214489 -0.174977,0 -0.412044,-0.0056 -0.237066,-0.01129 -0.423333,0.01129 v 0.01129 0.01693 q 0,0.225777 0.09031,0.406399 0.09596,0.180622 0.259644,0.3048 0.169334,0.124178 0.400756,0.186267 0.231422,0.06209 0.519288,0.0508 0.327378,0.0056 0.603955,-0.112889 0.276578,-0.118534 0.4064,-0.395111 0.107244,-0.310444 0.07902,-0.519289 -0.02822,-0.214488 -0.1524,-0.417688 -0.129822,-0.169333 -0.406399,-0.242711 -0.276578,-0.07902 -0.592667,-0.124178 -0.129822,-0.04516 -0.197555,-0.135466 -0.06773,-0.09031 -0.06773,-0.180622 0,-0.09031 0.06209,-0.163689 0.06773,-0.07902 0.197556,-0.1016 0.07338,-0.0056 0.146755,0.02258 0.07902,0.02258 0.135467,0.07338 0.06209,0.0508 0.09031,0.118534 0.03387,0.06773 0.01693,0.135466 0.191911,0.03951 0.4064,0.03387 0.220133,-0.0056 0.400755,-0.03387 z"
         style="font-style:normal;font-variant:normal;font-weight:normal;font-stretch:normal;font-family:'Londrina Solid';-inkscape-font-specification:'Londrina Solid';fill:#eceff1;stroke-width:0.0700042"
         id="path1001" />
    </g>
    <g
       aria-label="cables"
       id="text901"
       style="font-size:5.64444px;line-height:1.25;font-family:Dosis;-inkscape-font-specification:Dosis;letter-spacing:0px;word-spacing:0px;fill:#eceff1;stroke-width:0.0700042"
       transform="translate(4.5926514e-7,-3.802344)">
      <path
         d="m 8.0482754,77.061569 q -0.062089,-0.01693 -0.1580443,-0.01693 -0.095956,-0.0056 -0.2031999,0 -0.1072443,0.0056 -0.2031998,0.01129 -0.095955,0 -0.1523999,-0.0056 -0.016933,0.07338 -0.0508,0.169334 -0.028222,0.09031 -0.084667,0.129822 -0.067733,0.04516 -0.1806221,0.06209 -0.1128888,0.01129 -0.2201331,-0.01129 -0.1072444,-0.02822 -0.1862666,-0.1016 -0.073378,-0.07338 -0.062089,-0.2032 0.011289,-0.197555 0.011289,-0.378178 0,-0.180622 0.022578,-0.355599 0.016933,-0.09031 0.0508,-0.112889 0.073378,-0.09031 0.191911,-0.124178 0.2201331,-0.05644 0.3555997,0.05644 0.1354666,0.107244 0.1636888,0.304799 0.073378,0.01129 0.1636887,0.02258 0.095955,0.01129 0.191911,0.01693 0.1015999,0.0056 0.191911,0.0056 0.095955,0 0.1693332,-0.01693 -0.00564,-0.186267 -0.011289,-0.344311 0,-0.163689 -0.022578,-0.293511 -0.022578,-0.129822 -0.067733,-0.225778 -0.039511,-0.09596 -0.1185332,-0.1524 -0.1185332,-0.112888 -0.282222,-0.169333 -0.1636888,-0.05644 -0.3443109,-0.06773 -0.1185332,-0.01129 -0.2257776,0 -0.1015999,0.0056 -0.2144887,-0.0056 -0.1354666,0 -0.2709331,0.01693 -0.1298221,0.01693 -0.2483554,0.06209 -0.1128888,0.03951 -0.2031998,0.1016 -0.084667,0.06209 -0.1241777,0.146755 -0.016933,0.05644 -0.0508,0.163689 -0.033867,0.107244 -0.039511,0.169333 -0.033867,0.2032 -0.033867,0.4064 0.022578,0.186266 0.011289,0.412044 -0.00564,0.225777 0.00564,0.451555 0.011289,0.220133 0.067733,0.423333 0.056444,0.2032 0.2088443,0.338666 0.1975554,0.197556 0.4854218,0.248356 0.1580444,0 0.3499553,0.01129 0.191911,0.01693 0.3725331,0 0.1806221,-0.01129 0.333022,-0.06773 Q 7.7942705,78.083268 7.890226,77.947797 7.929737,77.908287 7.952315,77.82362 7.980537,77.73331 7.99747,77.614775 8.014403,77.490598 8.025692,77.349487 8.036981,77.208376 8.04827,77.06162 Z"
         style="font-style:normal;font-variant:normal;font-weight:normal;font-stretch:normal;font-family:'Londrina Solid';-inkscape-font-specification:'Londrina Solid';fill:#eceff1;stroke-width:0.0700042"
         id="path1004" />
      <path
         d="m 10.641366,75.334371 q -0.180622,-0.01129 -0.321733,-0.01693 -0.135466,-0.0056 -0.231422,-0.01129 -0.01693,0 -0.06209,0 -0.045155,0 -0.090311,0 -0.045156,-0.0056 -0.084667,0 -0.033867,0 -0.033867,0.0056 0,0.06773 -0.016933,0.135466 -0.011289,0.06209 -0.00564,0.1524 -0.039511,-0.09596 -0.095956,-0.146755 -0.056444,-0.05645 -0.1298221,-0.07902 -0.073378,-0.02822 -0.1636888,-0.02822 -0.084667,-0.0056 -0.1862665,-0.0056 -0.1975554,0.0056 -0.3725331,0.107244 -0.1749776,0.09596 -0.3047998,0.270934 -0.1241776,0.169333 -0.1975554,0.406399 -0.073378,0.237067 -0.073378,0.519289 0,0.225777 0.045155,0.491066 0.0508,0.265289 0.1523999,0.491066 0.1015999,0.225778 0.2539998,0.378178 0.1580444,0.1524 0.3781775,0.1524 0.1975554,0 0.4007553,-0.09596 0.2088443,-0.09596 0.3443108,-0.231422 0,0.05645 -0.011289,0.09596 -0.011289,0.03951 -0.011289,0.1016 0,0.04515 0.011289,0.07902 0.016933,0.03387 0.056444,0.04516 0.062089,0 0.1185334,-0.0056 0.06209,-0.01129 0.124178,-0.01129 0.09031,0 0.180622,0.01129 0.09596,0.0056 0.186266,0.0056 h 0.06773 q 0.06773,-0.01129 0.06773,-0.08467 0.0056,-0.07338 0.0056,-0.146756 0.03951,-0.603955 0.01693,-1.190977 -0.02258,-0.592666 -0.0056,-1.202265 v -0.05644 q 0,-0.03387 -0.0056,-0.06773 0,-0.03387 -0.0056,-0.06773 z m -1.6425317,1.123243 q 0.028222,-0.141111 0.1580443,-0.248355 0.1354666,-0.112889 0.3668886,-0.112889 0.1185333,0 0.1749777,0.01693 0.062089,0.01693 0.084667,0.07902 0.028222,0.06209 0.028222,0.180622 0.00564,0.112888 0.00564,0.310444 0,0.158044 -0.00564,0.287866 0,0.124178 -0.033867,0.214489 -0.028222,0.08467 -0.1015999,0.135467 -0.067733,0.04516 -0.2088443,0.04516 -0.2370665,0 -0.372533,-0.174978 -0.1298221,-0.180622 -0.1298221,-0.434621 0,-0.07338 0.00564,-0.146756 0.00564,-0.07902 0.028222,-0.1524 z"
         style="font-style:normal;font-variant:normal;font-weight:normal;font-stretch:normal;font-family:'Londrina Solid';-inkscape-font-specification:'Londrina Solid';fill:#eceff1;stroke-width:0.0700042"
         id="path1006" />
      <path
         d="m 11.796007,74.17726 q 0,-0.0056 -0.07902,-0.01129 -0.07338,-0.01129 -0.186267,-0.01129 -0.107244,-0.0056 -0.231422,0 -0.124177,0 -0.214489,0.01693 v 0.372533 q 0,0.468489 -0.01129,0.936977 -0.01129,0.468489 -0.02258,0.925688 -0.0056,0.451555 -0.01129,0.891822 0,0.434622 0.01129,0.841021 0.174977,0 0.383822,0.0056 0.208844,0.01129 0.378177,-0.01129 0.0056,-0.01129 0.0056,-0.03951 0,-0.05645 0,-0.09031 0.0056,-0.03387 0.0056,-0.09596 0.01129,-0.02822 0.02258,-0.03951 0.01693,-0.01693 0.03387,0.01693 0.08467,0.169333 0.225777,0.220133 0.141111,0.04516 0.299155,0.02258 0.321734,-0.02258 0.508,-0.163688 0.186267,-0.146756 0.276578,-0.366889 0.09596,-0.225777 0.124177,-0.502355 0.02822,-0.276578 0.03951,-0.5588 0,-0.197555 -0.02822,-0.383822 -0.02258,-0.186266 -0.07902,-0.338666 -0.0508,-0.158044 -0.141111,-0.265289 -0.08467,-0.112888 -0.208844,-0.158044 -0.1524,-0.05644 -0.338667,-0.06773 -0.180622,-0.01693 -0.34431,0 -0.163689,0.01129 -0.276578,0.0508 -0.112889,0.03951 -0.124178,0.09031 0.0056,-0.265289 0.0056,-0.428978 0,-0.163688 0,-0.259644 0,-0.1016 -0.0056,-0.1524 0,-0.05644 -0.0056,-0.1016 0,-0.0508 -0.0056,-0.107244 0,-0.06209 -0.0056,-0.174978 z m 0.874888,2.190043 q 0.02822,0.07902 0.03387,0.163689 0.0056,0.08467 0.0056,0.163689 0,0.141111 -0.03387,0.276577 -0.03387,0.129822 -0.1016,0.237067 -0.06773,0.1016 -0.163689,0.163689 -0.09596,0.06209 -0.214489,0.06209 -0.146755,0 -0.225777,-0.06209 -0.07902,-0.06209 -0.124178,-0.169334 -0.03951,-0.107244 -0.0508,-0.253999 -0.0056,-0.1524 -0.0056,-0.333022 0,-0.220134 0.0056,-0.344311 0.01129,-0.129822 0.04516,-0.197556 0.03387,-0.06773 0.1016,-0.08467 0.07338,-0.02258 0.191911,-0.02258 0.231422,0 0.366889,0.1016 0.141111,0.1016 0.169333,0.299155 z"
         style="font-style:normal;font-variant:normal;font-weight:normal;font-stretch:normal;font-family:'Londrina Solid';-inkscape-font-specification:'Londrina Solid';fill:#eceff1;stroke-width:0.0700042"
         id="path1008" />
      <path
         d="m 13.697302,74.041794 q -0.0508,0.513644 -0.0508,1.027288 0.0056,0.513644 0.02258,1.027288 0.01693,0.513644 0.02258,1.027288 0.01129,0.513644 -0.02822,1.021644 0.03951,-0.01129 0.158044,-0.0056 0.118534,0.0056 0.248356,0.0056 0.135466,0.0056 0.248355,0 0.112889,0 0.141111,-0.03387 -0.01129,-0.225777 -0.01693,-0.547511 -0.0056,-0.327377 -0.0056,-0.69991 0,-0.372533 0,-0.773288 0.0056,-0.400756 0.01129,-0.773289 0.0056,-0.372533 0.01129,-0.69991 0.0056,-0.327378 0.0056,-0.5588 z"
         style="font-style:normal;font-variant:normal;font-weight:normal;font-stretch:normal;font-family:'Londrina Solid';-inkscape-font-specification:'Londrina Solid';fill:#eceff1;stroke-width:0.0700042"
         id="path1010" />
      <path
         d="m 15.515252,76.728547 q 0.05644,0.01129 0.180622,0.01693 0.124178,0.0056 0.276578,0.0056 0.158044,0 0.327377,-0.0056 0.169333,-0.0056 0.316089,-0.01693 0.1524,-0.01129 0.259644,-0.02258 0.112889,-0.01129 0.1524,-0.02258 0.01693,-0.237067 0,-0.468489 -0.01693,-0.231422 -0.1016,-0.423333 -0.07902,-0.191911 -0.237066,-0.327377 -0.158045,-0.135467 -0.417689,-0.180622 -0.2032,-0.0508 -0.417689,-0.04516 -0.214488,0.0056 -0.406399,0.06773 -0.191911,0.05645 -0.344311,0.174978 -0.1524,0.112889 -0.225778,0.276578 -0.06773,0.186266 -0.09031,0.383822 -0.01693,0.191911 -0.03387,0.400755 -0.01129,0.231422 0.01129,0.462844 0.02258,0.231422 0.08467,0.440266 0.06209,0.2032 0.163689,0.378178 0.1016,0.169333 0.254,0.276577 0.135466,0.07902 0.293511,0.1016 0.158044,0 0.34431,0.01129 0.191911,0.01129 0.372533,0 0.180623,-0.01129 0.333022,-0.06773 0.1524,-0.05644 0.248356,-0.191911 0.03951,-0.03387 0.06209,-0.118533 0.02822,-0.09031 0.04515,-0.208845 0.01693,-0.124177 0.02822,-0.265288 0.01129,-0.141111 0.02258,-0.287867 -0.06209,-0.01693 -0.158044,-0.01693 -0.09596,-0.0056 -0.2032,0 -0.1016,0.0056 -0.197555,0.01129 -0.09596,0 -0.1524,-0.0056 0.01129,0.231422 -0.07338,0.349956 -0.07902,0.112888 -0.197555,0.135466 -0.118534,0.02258 -0.242711,-0.03951 -0.124178,-0.06209 -0.191911,-0.191911 -0.06209,-0.1016 -0.07338,-0.208844 -0.0056,-0.107245 -0.01129,-0.276578 z m 0.682977,-0.874888 q 0.1016,0.0508 0.158045,0.1524 0.06209,0.1016 0.06209,0.214489 0,0.04516 0,0.06209 0,0.01129 -0.03387,0.01693 -0.02822,0 -0.1016,-0.0056 -0.07338,-0.0056 -0.220133,-0.0056 -0.214489,0 -0.327378,0.0056 -0.107244,0 -0.158044,-0.0056 -0.0508,-0.01129 -0.05645,-0.03387 0,-0.02822 0.01129,-0.09031 0.01129,-0.07338 0.03387,-0.141111 0.02822,-0.06773 0.07902,-0.118533 0.0508,-0.0508 0.135467,-0.07902 0.08467,-0.02822 0.220133,-0.02822 0.06209,0 0.107244,0.01693 0.04516,0.01129 0.09031,0.03951 z"
         style="font-style:normal;font-variant:normal;font-weight:normal;font-stretch:normal;font-family:'Londrina Solid';-inkscape-font-specification:'Londrina Solid';fill:#eceff1;stroke-width:0.0700042"
         id="path1012" />
      <path
         d="m 19.598211,76.192326 q 0,-0.3048 -0.112889,-0.547511 -0.112889,-0.248356 -0.378177,-0.361244 -0.146756,-0.03387 -0.321733,-0.0508 -0.174978,-0.02258 -0.349956,-0.02258 -0.174977,0 -0.333022,0.01693 -0.152399,0.01693 -0.259644,0.04516 -0.276577,0.07338 -0.428977,0.282222 -0.146756,0.208844 -0.158045,0.457199 -0.0056,0.242711 0.135467,0.474133 0.146755,0.225778 0.462844,0.333022 0.158044,0.06773 0.321733,0.09596 0.163689,0.02822 0.293511,0.06773 0.129822,0.03387 0.208844,0.1016 0.07902,0.06773 0.06209,0.2032 0.0056,0.163689 -0.1016,0.225778 -0.107244,0.06209 -0.237066,0.0508 -0.129822,-0.01693 -0.248356,-0.09596 -0.112888,-0.08467 -0.118533,-0.214489 -0.174977,0 -0.412044,-0.0056 -0.237066,-0.01129 -0.423333,0.01129 v 0.01129 0.01693 q 0,0.225778 0.09031,0.4064 0.09596,0.180622 0.259644,0.304799 0.169334,0.124178 0.400756,0.186267 0.231422,0.06209 0.519288,0.0508 0.327378,0.0056 0.603955,-0.112889 0.276578,-0.118533 0.4064,-0.395111 0.107244,-0.310444 0.07902,-0.519288 -0.02822,-0.214489 -0.1524,-0.417689 -0.129822,-0.169333 -0.4064,-0.242711 -0.276577,-0.07902 -0.592666,-0.124177 -0.129822,-0.04516 -0.197555,-0.135467 -0.06773,-0.09031 -0.06773,-0.180622 0,-0.09031 0.06209,-0.163689 0.06773,-0.07902 0.197556,-0.1016 0.07338,-0.0056 0.146755,0.02258 0.07902,0.02258 0.135467,0.07338 0.06209,0.0508 0.09031,0.118533 0.03387,0.06773 0.01693,0.135467 0.191911,0.03951 0.4064,0.03387 0.220133,-0.0056 0.400755,-0.03387 z"
         style="font-style:normal;font-variant:normal;font-weight:normal;font-stretch:normal;font-family:'Londrina Solid';-inkscape-font-specification:'Londrina Solid';fill:#eceff1;stroke-width:0.0700042"
         id="path1014" />
    </g>
    <g
       aria-label="ports"
       id="text901-6"
       style="font-size:5.64444px;line-height:1.25;font-family:Dosis;-inkscape-font-specification:Dosis;letter-spacing:0px;word-spacing:0px;fill:#eceff1;stroke-width:0.0700042"
       transform="translate(-3.8407349e-6,-65.087845)">
      <path
         d="m 7.6171372,99.317238 q 0.00564,-0.112889 0.00564,-0.174978 0.00564,-0.05644 0.00564,-0.107244 0.00564,-0.04516 0.00564,-0.1016 0.00564,-0.0508 0.00564,-0.1524 0,-0.09596 0,-0.259644 0,-0.163689 -0.00564,-0.428978 0.011289,0.0508 0.1241776,0.09031 0.1128888,0.03951 0.2765776,0.0508 0.1636888,0.01693 0.3443109,0 0.1862665,-0.01129 0.3386664,-0.06773 0.1241777,-0.04516 0.2088443,-0.1524 0.090311,-0.112889 0.141111,-0.265289 0.056444,-0.158044 0.079022,-0.34431 Q 9.174989,97.217508 9.174989,97.019953 9.1637,96.737731 9.135478,96.461153 9.1072694,96.184573 9.011314,95.96444 8.9210029,95.738663 8.7347364,95.597552 8.5484699,95.450796 8.2267368,95.428218 q -0.1580444,-0.02258 -0.2991554,0.02822 -0.141111,0.04516 -0.2257776,0.214488 -0.016933,0.03387 -0.033867,0.02258 -0.011289,-0.01693 -0.022578,-0.04515 0,-0.06209 -0.00564,-0.09596 0,-0.03387 0,-0.09031 0,-0.02822 -0.00564,-0.03951 -0.1693333,-0.02258 -0.3781775,-0.01129 -0.2088443,0.0056 -0.383822,0.0056 -0.011289,0.406399 -0.011289,0.846666 0.00564,0.434622 0.011289,0.891821 0.011289,0.451555 0.022578,0.920044 0.011289,0.468488 0.011289,0.936977 v 0.372533 q 0.090311,0.01693 0.2144887,0.01693 0.1241777,0.0056 0.231422,0 0.1128888,0 0.1862666,-0.01129 0.079022,-0.0056 0.079022,-0.01129 z m 0.8748883,-2.127954 q -0.028222,0.197555 -0.1693332,0.299155 -0.1354666,0.1016 -0.3668887,0.1016 -0.1185332,0 -0.1919109,-0.01693 -0.067733,-0.02258 -0.1015999,-0.09031 -0.033867,-0.06773 -0.045156,-0.191911 -0.00564,-0.129822 -0.00564,-0.349956 0,-0.174977 0.00564,-0.327377 0.011289,-0.1524 0.0508,-0.259644 0.045155,-0.107245 0.1241777,-0.169334 0.079022,-0.06209 0.2257776,-0.06209 0.1185332,0 0.2144887,0.06209 0.095955,0.06209 0.1636888,0.169334 0.067733,0.1016 0.1015999,0.237066 0.033867,0.129822 0.033867,0.270933 0,0.07902 -0.00564,0.163689 -0.00564,0.08467 -0.033867,0.163689 z"
         style="font-style:normal;font-variant:normal;font-weight:normal;font-stretch:normal;font-family:'Londrina Solid';-inkscape-font-specification:'Londrina Solid';fill:#eceff1;stroke-width:0.0700042"
         id="path1017" />
      <path
         d="m 9.5522982,95.659641 q -0.016933,0.06209 -0.0508,0.169333 -0.033867,0.1016 -0.039511,0.163688 -0.016933,0.107245 -0.022578,0.208845 -0.00564,0.09595 -0.00564,0.197555 0.016933,0.186267 0.00564,0.412044 -0.00564,0.225778 0.00564,0.451556 0.011289,0.220133 0.067733,0.423333 0.056444,0.203199 0.2088443,0.338666 0.1975554,0.197555 0.4854215,0.248355 0.158045,0 0.349956,0.01129 0.19191,0.01693 0.372533,0 0.180622,-0.01129 0.333022,-0.06773 0.158044,-0.05644 0.253999,-0.191911 0.05645,-0.05644 0.08467,-0.208844 0.03387,-0.1524 0.0508,-0.344311 0.02258,-0.191911 0.02822,-0.400755 0.01129,-0.208845 0.01693,-0.372533 -0.0056,-0.186267 -0.01129,-0.361245 -0.0056,-0.180622 -0.02822,-0.327377 -0.02258,-0.1524 -0.06773,-0.265289 -0.04515,-0.112889 -0.124178,-0.163689 -0.118533,-0.112888 -0.282222,-0.169333 -0.163688,-0.06209 -0.34431,-0.07338 -0.118534,-0.01129 -0.225778,0 -0.1016,0.0056 -0.214489,-0.0056 -0.135466,0 -0.270933,0.01693 -0.129822,0.01693 -0.2483552,0.06209 -0.1128888,0.03951 -0.2031998,0.1016 -0.084667,0.06209 -0.1241777,0.146756 z m 0.7055548,0.666043 q 0.07338,-0.09031 0.191911,-0.124177 0.220133,-0.0508 0.3556,0.03951 0.135466,0.09031 0.163689,0.287866 0.03387,0.163689 0.01693,0.349956 -0.01129,0.180622 -0.03387,0.361244 -0.03387,0.141111 -0.129822,0.186266 -0.07338,0.03951 -0.186266,0.05644 -0.112889,0.01129 -0.220133,-0.01129 -0.1016,-0.02822 -0.174978,-0.09596 -0.07338,-0.07338 -0.06773,-0.2032 0.01129,-0.197555 0.01129,-0.372533 0,-0.180622 0.02258,-0.361244 0.01693,-0.09031 0.0508,-0.112889 z"
         style="font-style:normal;font-variant:normal;font-weight:normal;font-stretch:normal;font-family:'Londrina Solid';-inkscape-font-specification:'Londrina Solid';fill:#eceff1;stroke-width:0.0700042"
         id="path1019" />
      <path
         d="m 12.799351,95.608841 q 0,-0.03951 -0.0056,-0.05644 0,-0.01693 0,-0.02822 0,-0.01693 0,-0.03951 0,-0.02258 0,-0.06773 0,-0.01129 -0.0508,-0.01129 -0.04515,-0.0056 -0.112888,0 -0.06209,0.0056 -0.124178,0.01129 -0.05644,0.0056 -0.07902,0.0056 -0.06773,0.0056 -0.112889,0.01129 -0.04516,0 -0.08467,0 -0.03951,0 -0.08467,0 -0.04516,-0.0056 -0.112889,-0.01129 -0.02258,0.745066 -0.01129,1.439332 0.01693,0.694266 0.01693,1.388533 0.135467,-0.01129 0.231422,-0.0056 0.1016,0.0056 0.186267,0.0056 0.08467,0.0056 0.163689,0 0.07902,-0.0056 0.174977,-0.03387 v -0.02258 q 0,-0.208844 -0.0056,-0.389466 0,-0.186267 0,-0.361244 0,-0.180622 -0.0056,-0.3556 -0.0056,-0.174978 -0.01129,-0.372533 -0.0056,-0.158044 0.04515,-0.242711 0.0508,-0.08467 0.141111,-0.124178 0.09596,-0.03951 0.220133,-0.03951 0.129822,0 0.282222,0.01693 0.0056,0 0.07338,0.01129 0.07338,0.01129 0.141111,0.02822 0.02822,0.01129 0.05644,0.02258 0.03387,0.0056 0.06209,0.01693 l 0.0508,0.01693 q -0.0056,-0.08467 -0.0056,-0.180622 0,-0.09596 0,-0.208844 0,-0.118534 0,-0.265289 0.0056,-0.146756 0.0056,-0.338667 0,-0.0056 -0.08467,-0.0056 -0.07902,-0.0056 -0.197556,0 -0.118533,0.0056 -0.254,0.02822 -0.135466,0.01693 -0.242711,0.0508 -0.07902,0.02822 -0.163688,0.06209 -0.07902,0.03387 -0.1016,0.04516 z"
         style="font-style:normal;font-variant:normal;font-weight:normal;font-stretch:normal;font-family:'Londrina Solid';-inkscape-font-specification:'Londrina Solid';fill:#eceff1;stroke-width:0.0700042"
         id="path1021" />
      <path
         d="m 15.108985,94.372708 q -0.09596,0.01129 -0.191911,0.0056 -0.09596,-0.0056 -0.191911,-0.01129 -0.09596,-0.01129 -0.186266,-0.01693 -0.08467,-0.0056 -0.158045,0.0056 -0.01129,0.107244 -0.01693,0.242711 0,0.135466 0,0.282222 0,0.146755 0.0056,0.293511 0.0056,0.141111 0.0056,0.265288 -0.09031,0 -0.191911,0 -0.09596,0 -0.208844,-0.0056 l -0.01693,0.688622 q 0.118534,0 0.214489,0 0.1016,0 0.191911,-0.0056 -0.0056,0.412044 0.0056,0.801511 0.01129,0.383822 0.08467,0.818444 0.07338,0.174977 0.237067,0.276577 0.169333,0.1016 0.383822,0.1524 0.214488,0.0508 0.457199,0.06773 0.242711,0.01129 0.468489,0 0.02822,-0.08467 0.03387,-0.186266 0.01129,-0.1016 0.0056,-0.2032 -0.0056,-0.1016 -0.01693,-0.197556 -0.01129,-0.09596 -0.02258,-0.174977 -0.09596,0.0056 -0.225778,0 -0.124178,-0.0056 -0.248355,-0.02822 -0.124178,-0.02822 -0.231422,-0.07338 -0.107245,-0.04516 -0.163689,-0.124178 -0.0056,-0.254 -0.0056,-0.541866 0,-0.293511 0,-0.598311 h 0.874888 q -0.01129,-0.07338 -0.0056,-0.174977 0.01129,-0.107245 0.01693,-0.208845 0.0056,-0.1016 0,-0.186266 -0.0056,-0.09031 -0.04516,-0.135467 -0.287866,0.01693 -0.485422,0.02822 -0.191911,0.01129 -0.366888,0.01693 0,-0.08467 -0.0056,-0.163689 0,-0.07902 0,-0.1524 z"
         style="font-style:normal;font-variant:normal;font-weight:normal;font-stretch:normal;font-family:'Londrina Solid';-inkscape-font-specification:'Londrina Solid';fill:#eceff1;stroke-width:0.0700042"
         id="path1023" />
      <path
         d="m 18.539217,96.280529 q 0,-0.3048 -0.112889,-0.547511 -0.112888,-0.248355 -0.378177,-0.361244 -0.146755,-0.03387 -0.321733,-0.0508 -0.174978,-0.02258 -0.349955,-0.02258 -0.174978,0 -0.333022,0.01693 -0.1524,0.01693 -0.259645,0.04515 -0.276577,0.07338 -0.428977,0.282222 -0.146756,0.208844 -0.158044,0.4572 -0.0056,0.242711 0.135466,0.474133 0.146756,0.225777 0.462844,0.333022 0.158045,0.06773 0.321733,0.09596 0.163689,0.02822 0.293511,0.06773 0.129822,0.03387 0.208845,0.101599 0.07902,0.06773 0.06209,0.2032 0.0056,0.163689 -0.1016,0.225778 -0.107244,0.06209 -0.237066,0.0508 -0.129822,-0.01693 -0.248355,-0.09596 -0.112889,-0.08467 -0.118534,-0.214488 -0.174977,0 -0.412044,-0.0056 -0.237066,-0.01129 -0.423333,0.01129 v 0.01129 0.01693 q 0,0.225778 0.09031,0.4064 0.09596,0.180622 0.259644,0.3048 0.169334,0.124177 0.400756,0.186266 0.231422,0.06209 0.519288,0.0508 0.327378,0.0056 0.603955,-0.112889 0.276578,-0.118533 0.4064,-0.39511 0.107244,-0.310445 0.07902,-0.519289 -0.02822,-0.214489 -0.1524,-0.417688 -0.129822,-0.169334 -0.406399,-0.242711 -0.276578,-0.07902 -0.592667,-0.124178 -0.129822,-0.04516 -0.197555,-0.135467 -0.06773,-0.09031 -0.06773,-0.180622 0,-0.09031 0.06209,-0.163688 0.06773,-0.07902 0.197555,-0.1016 0.07338,-0.0056 0.146755,0.02258 0.07902,0.02258 0.135467,0.07338 0.06209,0.0508 0.09031,0.118533 0.03387,0.06773 0.01693,0.135467 0.191911,0.03951 0.4064,0.03387 0.220133,-0.0056 0.400755,-0.03387 z"
         style="font-style:normal;font-variant:normal;font-weight:normal;font-stretch:normal;font-family:'Londrina Solid';-inkscape-font-specification:'Londrina Solid';fill:#eceff1;stroke-width:0.0700042"
         id="path1025" />
    </g>
    <path
       id="rect939"
       style="font-size:6.35px;line-height:1.25;font-family:'Londrina Solid';-inkscape-font-specification:'Londrina Solid';letter-spacing:0px;word-spacing:0px;fill:#37474f;stroke:#263238;stroke-width:0.765;stroke-linecap:round;stroke-miterlimit:2.7;stroke-dasharray:none;stroke-dashoffset:0;stroke-opacity:1;paint-order:markers fill stroke;stop-color:#000000"
       d="M 6.9164404,17.195731 H 18.483559 c 2.029258,0 3.662921,1.590471 3.662921,3.566078 v 3.895908 c 0,1.975607 -1.633663,3.566078 -3.662921,3.566078 H 6.9164404 c -2.029258,0 -3.6629207,-1.590471 -3.6629207,-3.566078 v -3.895908 c 0,-1.975607 1.6336627,-3.566078 3.6629207,-3.566078 z" />
    <path
       d="M 6.9164408,37.47006 H 18.483559 c 2.029258,0 3.662921,1.590471 3.662921,3.566078 v 3.895908 c 0,1.975607 -1.633663,3.566078 -3.662921,3.566078 H 6.9164408 c -2.029258,0 -3.6629207,-1.590471 -3.6629207,-3.566078 v -3.895908 c 0,-1.975607 1.6336627,-3.566078 3.6629207,-3.566078 z"
       style="font-size:6.35px;line-height:1.25;font-family:'Londrina Solid';-inkscape-font-specification:'Londrina Solid';letter-spacing:0px;word-spacing:0px;fill:#37474f;stroke:#263238;stroke-width:0.765;stroke-linecap:round;stroke-miterlimit:2.7;stroke-dasharray:none;stroke-dashoffset:0;stroke-opacity:1;paint-order:markers fill stroke;stop-color:#000000"
       id="rect939-9" />
    <path
       d="M 6.9164397,57.744384 H 18.483559 c 2.029258,0 3.662921,1.590471 3.662921,3.566079 v 3.895907 c 0,1.975608 -1.633663,3.566078 -3.662921,3.566078 H 6.9164397 c -2.029258,0 -3.66292,-1.59047 -3.66292,-3.566078 v -3.895907 c 0,-1.975608 1.633662,-3.566079 3.66292,-3.566079 z"
       style="font-size:6.35px;line-height:1.25;font-family:'Londrina Solid';-inkscape-font-specification:'Londrina Solid';letter-spacing:0px;word-spacing:0px;fill:#37474f;stroke:#263238;stroke-width:0.765;stroke-linecap:round;stroke-miterlimit:2.7;stroke-dasharray:none;stroke-dashoffset:0;stroke-opacity:1;paint-order:markers fill stroke;stop-color:#000000"
       id="rect939-6" />
    <path
       id="rect939-6-7"
       style="font-size:6.35px;line-height:1.25;font-family:'Londrina Solid';-inkscape-font-specification:'Londrina Solid';letter-spacing:0px;word-spacing:0px;fill:#37474f;stroke:#263238;stroke-width:0.765;stroke-linecap:round;stroke-miterlimit:2.7;stroke-dasharray:none;stroke-dashoffset:0;stroke-opacity:1;paint-order:markers fill stroke;stop-color:#000000"
       d="m 6.91644,78.018704 h 11.567119 c 2.029258,0 3.662921,1.590471 3.662921,3.566079 v 3.895907 c 0,1.975608 -1.633663,3.566078 -3.662921,3.566078 H 6.91644 c -2.029258,0 -3.66292,-1.59047 -3.66292,-3.566078 v -3.895907 c 0,-1.975608 1.633662,-3.566079 3.66292,-3.566079 z" />
    <path
       d="m 6.91644,97.796649 h 11.567119 c 2.029258,0 3.662921,1.590467 3.662921,3.566071 v 3.89591 c 0,1.9756 -1.633663,3.56607 -3.662921,3.56607 H 6.91644 c -2.029258,0 -3.66292,-1.59047 -3.66292,-3.56607 v -3.89591 c 0,-1.975604 1.633662,-3.566071 3.66292,-3.566071 z"
       style="font-size:6.35px;line-height:1.25;font-family:'Londrina Solid';-inkscape-font-specification:'Londrina Solid';letter-spacing:0px;word-spacing:0px;fill:#37474f;stroke:#263238;stroke-width:0.765;stroke-linecap:round;stroke-miterlimit:2.7;stroke-dasharray:none;stroke-dashoffset:0;stroke-opacity:1;paint-order:markers fill stroke;stop-color:#000000"
       id="path894" />
    <g
       style="font-size:5.64444px;line-height:1.25;font-family:Dosis;-inkscape-font-specification:Dosis;letter-spacing:0px;word-spacing:0px;stroke-width:0.264583"
       id="text898"
       aria-label="modules">
      <path
         id="path915"
         style="font-style:normal;font-variant:normal;font-weight:normal;font-stretch:normal;font-family:'Londrina Solid';-inkscape-font-specification:'Londrina Solid';fill:#eceff1;stroke-width:0.264583"
         d="m 4.7279629,112.27485 q -0.00564,-0.079 -0.00564,-0.14111 0.00564,-0.0621 -0.00564,-0.15805 0,-0.0169 -0.045155,-0.0169 -0.045156,-0.006 -0.1015999,0 -0.056444,0.006 -0.1128888,0.0169 -0.056444,0.006 -0.079022,0.006 -0.067733,0.006 -0.1128888,0.0113 -0.045155,0 -0.084667,0 -0.039511,0 -0.084667,0 -0.045155,-0.006 -0.1128888,-0.0113 -0.022578,0.74506 -0.011289,1.43933 0.016933,0.69426 0.016933,1.38853 0.1354666,-0.0113 0.2257776,-0.006 0.090311,0.006 0.1636888,0.006 0.073378,0.006 0.141111,0 0.073378,-0.006 0.1693332,-0.0339 v -0.0226 q 0.022578,-0.18627 0.022578,-0.37254 0,-0.18626 -0.011289,-0.37253 -0.00564,-0.19191 -0.011289,-0.37818 -0.00564,-0.19191 0.00564,-0.38946 0.011289,-0.1524 0.079022,-0.22578 0.067733,-0.079 0.1523999,-0.1016 0.084667,-0.0282 0.1693332,-0.0113 0.090311,0.0113 0.1354666,0.0339 0.00564,0.006 0.011289,0.006 0.00564,0 0.011289,0.006 0.045155,0.0339 0.067733,0.096 0.028222,0.0621 0.039511,0.14111 0.016933,0.079 0.022578,0.16369 0.00564,0.079 0.011289,0.14676 0.011289,0.1524 0.011289,0.32737 0.00564,0.17498 0,0.34996 0,0.17498 0,0.33866 0,0.16369 0.011289,0.29352 0.1975554,0 0.3499553,0 0.1580443,0.006 0.3555997,-0.0226 -0.011289,-0.16934 -0.011289,-0.38947 0.00564,-0.22578 0.011289,-0.46284 0.00564,-0.24271 0.011289,-0.48542 0.00564,-0.24836 0,-0.46849 0.0508,-0.0395 0.1072444,-0.0564 0.062089,-0.0226 0.1185332,-0.0226 0.062089,0 0.1128888,0.0113 0.0508,0.0113 0.084667,0.0282 0.00564,0.006 0.011289,0.006 0.00564,0 0.011289,0.006 0.045155,0.0339 0.067733,0.096 0.028222,0.0621 0.039511,0.14111 0.016933,0.079 0.022578,0.16369 0.00564,0.079 0.011289,0.14676 0.011289,0.1524 0.011289,0.32737 0.00564,0.17498 0,0.34996 0,0.17498 0,0.33866 0,0.16369 0.011289,0.29352 0.1975554,0 0.3499553,0 0.1580443,0.006 0.3555998,-0.0226 -0.011289,-0.19191 -0.00564,-0.44591 0.00564,-0.254 0.011289,-0.52494 0.00564,-0.27657 0.00564,-0.54186 0.00564,-0.27094 -0.00564,-0.49671 -0.00564,-0.22578 -0.039511,-0.38382 -0.028222,-0.16369 -0.084667,-0.21449 -0.1185332,-0.1016 -0.2652887,-0.14111 -0.1467554,-0.0395 -0.3047997,-0.0339 -0.1523999,0.006 -0.2991554,0.0564 -0.1467554,0.0508 -0.2652887,0.13547 -0.028222,0.0226 -0.067733,0.0452 -0.039511,0.0169 -0.067733,0.0339 -0.028222,-0.0677 -0.056444,-0.096 Q 5.8850836,112.07341 5.7383282,112.0339 5.5915727,111.9944 5.4335284,112 q -0.1523999,0.006 -0.2991553,0.0564 -0.1467555,0.0508 -0.2652887,0.13547 -0.028222,0.0226 -0.073378,0.0452 -0.039511,0.0226 -0.067733,0.0395 z" />
      <path
         id="path917"
         style="font-style:normal;font-variant:normal;font-weight:normal;font-stretch:normal;font-family:'Londrina Solid';-inkscape-font-specification:'Londrina Solid';fill:#eceff1;stroke-width:0.264583"
         d="m 7.8922008,112.2184 q -0.016933,0.0621 -0.0508,0.16934 -0.033867,0.1016 -0.039511,0.16368 -0.016933,0.10725 -0.022578,0.20885 -0.00564,0.0959 -0.00564,0.19755 0.016933,0.18627 0.00564,0.41205 -0.00564,0.22578 0.00564,0.45155 0.011289,0.22014 0.067733,0.42334 0.056444,0.2032 0.2088443,0.33866 0.1975554,0.19756 0.4854219,0.24836 0.1580443,0 0.3499553,0.0113 0.1919109,0.0169 0.372533,0 0.1806221,-0.0113 0.333022,-0.0677 0.1580443,-0.0564 0.2539998,-0.19191 0.056444,-0.0564 0.084667,-0.20884 0.033867,-0.1524 0.0508,-0.34431 0.022577,-0.19191 0.028222,-0.40076 0.01129,-0.20884 0.01693,-0.37253 -0.0056,-0.18627 -0.01129,-0.36125 -0.0056,-0.18062 -0.028222,-0.32737 -0.022578,-0.1524 -0.067733,-0.26529 -0.045155,-0.11289 -0.1241777,-0.16369 -0.1185332,-0.11289 -0.282222,-0.16933 -0.1636887,-0.0621 -0.3443108,-0.0734 -0.1185333,-0.0113 -0.2257776,0 -0.1016,0.006 -0.2144888,-0.006 -0.1354665,0 -0.2709331,0.0169 -0.1298221,0.0169 -0.2483554,0.0621 -0.1128888,0.0395 -0.2031998,0.1016 -0.084667,0.0621 -0.1241777,0.14675 z m 0.705555,0.66605 q 0.073378,-0.0903 0.191911,-0.12418 0.2201332,-0.0508 0.3555997,0.0395 0.1354666,0.0903 0.1636888,0.28787 0.033867,0.16368 0.016933,0.34995 -0.011289,0.18062 -0.033867,0.36125 -0.033867,0.14111 -0.1298222,0.18626 -0.073378,0.0395 -0.1862665,0.0564 -0.1128888,0.0113 -0.2201331,-0.0113 -0.1016,-0.0282 -0.1749777,-0.096 -0.073378,-0.0734 -0.067733,-0.2032 0.011289,-0.19755 0.011289,-0.37253 0,-0.18062 0.022578,-0.36125 0.016933,-0.0903 0.0508,-0.11288 z" />
      <path
         id="path919"
         style="font-style:normal;font-variant:normal;font-weight:normal;font-stretch:normal;font-family:'Londrina Solid';-inkscape-font-specification:'Londrina Solid';fill:#eceff1;stroke-width:0.264583"
         d="m 11.839164,110.88631 q -0.0056,0.11289 -0.01129,0.17498 0,0.0564 -0.0056,0.10725 0,0.0452 -0.0056,0.1016 0,0.0508 0,0.1524 0,0.096 0,0.25964 0,0.16369 0.0056,0.42898 -0.01129,-0.0508 -0.124177,-0.0903 -0.112889,-0.0395 -0.276578,-0.0508 -0.163689,-0.0169 -0.349955,0 -0.180622,0.0113 -0.333022,0.0677 -0.124178,0.0452 -0.214489,0.15804 -0.08467,0.10725 -0.141111,0.26529 -0.0508,0.1524 -0.07902,0.33867 -0.02258,0.18627 -0.02258,0.38382 0.0056,0.28222 0.03387,0.5588 0.03387,0.27658 0.124178,0.50236 0.09596,0.22013 0.282222,0.36688 0.186266,0.14112 0.507999,0.16369 0.158045,0.0226 0.299156,-0.0226 0.141111,-0.0508 0.225777,-0.22014 0.01693,-0.0339 0.02822,-0.0169 0.01693,0.0113 0.02822,0.0395 0,0.0621 0,0.096 0.0056,0.0339 0.0056,0.0903 0,0.0282 0.0056,0.0395 0.169334,0.0226 0.378178,0.0113 0.208844,-0.006 0.383822,-0.006 0.02258,-0.8128 -0.0056,-1.73284 -0.02822,-0.92004 -0.02822,-1.86267 v -0.37253 q -0.09031,-0.0169 -0.214489,-0.0169 -0.124177,-0.006 -0.237066,0 -0.107244,0 -0.186267,0.0113 -0.07338,0.006 -0.07338,0.0113 z m -0.874888,2.12796 q 0.02822,-0.19756 0.163688,-0.29916 0.141111,-0.1016 0.372533,-0.1016 0.118534,0 0.186267,0.0226 0.07338,0.0169 0.107244,0.0847 0.03387,0.0677 0.03951,0.19755 0.01129,0.12418 0.01129,0.34431 0,0.18063 -0.01129,0.33303 -0.0056,0.14675 -0.0508,0.254 -0.03951,0.10724 -0.124177,0.16933 -0.07902,0.0621 -0.220133,0.0621 -0.118534,0 -0.214489,-0.0621 -0.09596,-0.0621 -0.163689,-0.16369 -0.06773,-0.10724 -0.1016,-0.23707 -0.03387,-0.13546 -0.03387,-0.27657 0,-0.079 0.0056,-0.16369 0.0056,-0.0847 0.03387,-0.16369 z" />
      <path
         id="path921"
         style="font-style:normal;font-variant:normal;font-weight:normal;font-stretch:normal;font-family:'Londrina Solid';-inkscape-font-specification:'Londrina Solid';fill:#eceff1;stroke-width:0.264583"
         d="m 14.361611,114.48747 q 0.0056,0.079 0,0.14111 0,0.0621 0.01129,0.15804 0,0.0169 0.04516,0.0169 0.04515,0.006 0.1016,0 0.05644,-0.006 0.112888,-0.0113 0.05645,-0.0113 0.07902,-0.0113 0.06773,-0.006 0.112888,-0.006 0.04516,-0.006 0.08467,-0.006 0.03951,0 0.08467,0.006 0.04516,0 0.112888,0.006 0.02258,-0.74507 0.0056,-1.43933 -0.01129,-0.69427 -0.01129,-1.38854 -0.135467,0.0113 -0.225778,0.006 -0.09031,-0.006 -0.163688,-0.006 -0.07338,-0.006 -0.146756,0 -0.06773,0.006 -0.163689,0.0339 v 0.0226 q -0.02822,0.18626 -0.02822,0.37253 0.0056,0.18627 0.01129,0.37818 0.01129,0.18626 0.01693,0.37818 0.0056,0.19191 -0.0056,0.38382 -0.01129,0.1524 -0.07902,0.23142 -0.06773,0.0734 -0.1524,0.1016 -0.08467,0.0226 -0.174978,0.0113 -0.08467,-0.0169 -0.129822,-0.0395 -0.0056,-0.006 -0.01129,-0.006 -0.0056,0 -0.01129,-0.006 -0.04515,-0.0339 -0.07338,-0.096 -0.02258,-0.0621 -0.03951,-0.14111 -0.01129,-0.079 -0.01693,-0.15804 -0.0056,-0.0847 -0.01129,-0.1524 -0.01129,-0.1524 -0.01693,-0.32738 0,-0.17498 0,-0.34995 0.0056,-0.17498 0.0056,-0.33867 0,-0.16369 -0.01129,-0.29351 -0.197556,0 -0.3556,0 -0.1524,-0.006 -0.349955,0.0226 0.01129,0.19191 0.0056,0.44591 -0.0056,0.254 -0.01129,0.53057 -0.0056,0.27094 -0.01129,0.54187 0,0.26529 0.0056,0.49107 0.01129,0.22577 0.03951,0.38946 0.03387,0.15805 0.09031,0.20885 0.118533,0.1016 0.265289,0.14111 0.146755,0.0395 0.299155,0.0339 0.158044,-0.006 0.3048,-0.0564 0.146755,-0.0508 0.265288,-0.13547 0.02822,-0.0226 0.06773,-0.0452 0.04516,-0.0226 0.07338,-0.0395 z" />
      <path
         id="path923"
         style="font-style:normal;font-variant:normal;font-weight:normal;font-stretch:normal;font-family:'Londrina Solid';-inkscape-font-specification:'Londrina Solid';fill:#eceff1;stroke-width:0.264583"
         d="m 15.531245,110.68876 q -0.0508,0.51364 -0.0508,1.02729 0.0056,0.51364 0.02258,1.02729 0.01693,0.51364 0.02258,1.02728 0.01129,0.51365 -0.02822,1.02165 0.03951,-0.0113 0.158045,-0.006 0.118533,0.006 0.248355,0.006 0.135467,0.006 0.248356,0 0.112888,0 0.141111,-0.0339 -0.01129,-0.22578 -0.01693,-0.54751 -0.0056,-0.32738 -0.0056,-0.69991 0,-0.37253 0,-0.77329 0.0056,-0.40075 0.01129,-0.77329 0.0056,-0.37253 0.01129,-0.69991 0.0056,-0.32738 0.0056,-0.5588 z" />
      <path
         id="path925"
         style="font-style:normal;font-variant:normal;font-weight:normal;font-stretch:normal;font-family:'Londrina Solid';-inkscape-font-specification:'Londrina Solid';fill:#eceff1;stroke-width:0.264583"
         d="m 17.349195,113.37551 q 0.05644,0.0113 0.180622,0.0169 0.124178,0.006 0.276578,0.006 0.158044,0 0.327378,-0.006 0.169333,-0.006 0.316088,-0.0169 0.1524,-0.0113 0.259644,-0.0226 0.112889,-0.0113 0.1524,-0.0226 0.01693,-0.23707 0,-0.46849 -0.01693,-0.23142 -0.1016,-0.42333 -0.07902,-0.19192 -0.237066,-0.32738 -0.158044,-0.13547 -0.417689,-0.18062 -0.203199,-0.0508 -0.417688,-0.0452 -0.214489,0.006 -0.4064,0.0677 -0.191911,0.0564 -0.344311,0.17498 -0.1524,0.11289 -0.225777,0.27658 -0.06773,0.18627 -0.09031,0.38382 -0.01693,0.19191 -0.03387,0.40076 -0.01129,0.23142 0.01129,0.46284 0.02258,0.23142 0.08467,0.44027 0.06209,0.2032 0.163689,0.37817 0.1016,0.16934 0.254,0.27658 0.135467,0.079 0.293511,0.1016 0.158044,0 0.344311,0.0113 0.191911,0.0113 0.372533,0 0.180622,-0.0113 0.333022,-0.0677 0.1524,-0.0564 0.248355,-0.19191 0.03951,-0.0339 0.06209,-0.11854 0.02822,-0.0903 0.04516,-0.20884 0.01693,-0.12418 0.02822,-0.26529 0.01129,-0.14111 0.02258,-0.28787 -0.06209,-0.0169 -0.158044,-0.0169 -0.09596,-0.006 -0.2032,0 -0.1016,0.006 -0.197555,0.0113 -0.09596,0 -0.1524,-0.006 0.01129,0.23143 -0.07338,0.34996 -0.07902,0.11289 -0.197555,0.13547 -0.118533,0.0226 -0.242711,-0.0395 -0.124178,-0.0621 -0.191911,-0.19192 -0.06209,-0.1016 -0.07338,-0.20884 -0.0056,-0.10724 -0.01129,-0.27658 z m 0.682978,-0.87489 q 0.1016,0.0508 0.158044,0.1524 0.06209,0.1016 0.06209,0.21449 0,0.0452 0,0.0621 0,0.0113 -0.03387,0.0169 -0.02822,0 -0.1016,-0.006 -0.07338,-0.006 -0.220133,-0.006 -0.214489,0 -0.327377,0.006 -0.107245,0 -0.158045,-0.006 -0.0508,-0.0113 -0.05644,-0.0339 0,-0.0282 0.01129,-0.0903 0.01129,-0.0734 0.03387,-0.14111 0.02822,-0.0677 0.07902,-0.11854 0.0508,-0.0508 0.135466,-0.079 0.08467,-0.0282 0.220133,-0.0282 0.06209,0 0.107245,0.0169 0.04516,0.0113 0.09031,0.0395 z" />
      <path
         id="path927"
         style="font-style:normal;font-variant:normal;font-weight:normal;font-stretch:normal;font-family:'Londrina Solid';-inkscape-font-specification:'Londrina Solid';fill:#eceff1;stroke-width:0.264583"
         d="m 21.432154,112.83929 q 0,-0.3048 -0.112888,-0.54751 -0.112889,-0.24836 -0.378178,-0.36124 -0.146755,-0.0339 -0.321733,-0.0508 -0.174978,-0.0226 -0.349955,-0.0226 -0.174978,0 -0.333022,0.0169 -0.1524,0.0169 -0.259644,0.0452 -0.276578,0.0734 -0.428978,0.28222 -0.146755,0.20884 -0.158044,0.4572 -0.0056,0.24271 0.135466,0.47413 0.146756,0.22578 0.462844,0.33302 0.158045,0.0677 0.321734,0.096 0.163688,0.0282 0.29351,0.0677 0.129823,0.0339 0.208845,0.1016 0.07902,0.0677 0.06209,0.2032 0.0056,0.16369 -0.1016,0.22578 -0.107245,0.0621 -0.237067,0.0508 -0.129822,-0.0169 -0.248355,-0.096 -0.112889,-0.0847 -0.118533,-0.21448 -0.174978,0 -0.412045,-0.006 -0.237066,-0.0113 -0.423333,0.0113 v 0.0113 0.0169 q 0,0.22578 0.09031,0.4064 0.09596,0.18062 0.259645,0.3048 0.169333,0.12418 0.400755,0.18627 0.231422,0.0621 0.519288,0.0508 0.327378,0.006 0.603956,-0.11289 0.276577,-0.11853 0.406399,-0.39511 0.107245,-0.31045 0.07902,-0.51929 -0.02822,-0.21449 -0.1524,-0.41769 -0.129822,-0.16933 -0.406399,-0.24271 -0.276578,-0.079 -0.592666,-0.12418 -0.129823,-0.0452 -0.197556,-0.13546 -0.06773,-0.0903 -0.06773,-0.18063 0,-0.0903 0.06209,-0.16368 0.06773,-0.079 0.197555,-0.1016 0.07338,-0.006 0.146756,0.0226 0.07902,0.0226 0.135466,0.0734 0.06209,0.0508 0.09031,0.11853 0.03387,0.0677 0.01693,0.13547 0.19191,0.0395 0.406399,0.0339 0.220133,-0.006 0.400755,-0.0339 z" />
    </g>
  </g>
</svg>
