<?xml version="1.0" encoding="UTF-8" standalone="no"?>
<svg
   xmlns:dc="http://purl.org/dc/elements/1.1/"
   xmlns:cc="http://creativecommons.org/ns#"
   xmlns:rdf="http://www.w3.org/1999/02/22-rdf-syntax-ns#"
   xmlns:svg="http://www.w3.org/2000/svg"
   xmlns="http://www.w3.org/2000/svg"
   xmlns:sodipodi="http://sodipodi.sourceforge.net/DTD/sodipodi-0.dtd"
   xmlns:inkscape="http://www.inkscape.org/namespaces/inkscape"
   width="25.4mm"
   height="128.5mm"
   viewBox="0 0 25.4 128.5"
   version="1.1"
   id="svg8"
   inkscape:version="1.0 (4035a4fb49, 2020-05-01)"
   sodipodi:docname="select.svg">
  <defs
     id="defs2" />
  <sodipodi:namedview
     id="base"
     pagecolor="#ffffff"
     bordercolor="#666666"
     borderopacity="1.0"
     inkscape:pageopacity="0.0"
     inkscape:pageshadow="2"
     inkscape:zoom="2.8"
     inkscape:cx="70.028363"
     inkscape:cy="289.52638"
     inkscape:document-units="mm"
     inkscape:current-layer="layer1"
     inkscape:document-rotation="0"
     showgrid="true"
     inkscape:window-width="2560"
     inkscape:window-height="1361"
     inkscape:window-x="-9"
     inkscape:window-y="-9"
     inkscape:window-maximized="1">
    <inkscape:grid
       type="xygrid"
       id="grid833"
       spacingx="2.54"
       spacingy="2.5"
       snapvisiblegridlinesonly="false"
       empspacing="10"
       units="mm" />
  </sodipodi:namedview>
  <metadata
     id="metadata5">
    <rdf:RDF>
      <cc:Work
         rdf:about="">
        <dc:format>image/svg+xml</dc:format>
        <dc:type
           rdf:resource="http://purl.org/dc/dcmitype/StillImage" />
        <dc:title />
      </cc:Work>
    </rdf:RDF>
  </metadata>
  <g
     inkscape:label="Layer 1"
     inkscape:groupmode="layer"
     id="layer1"
     style="display:inline">
    <rect
       style="fill:#e1bee7;stroke:none;stroke-width:0.988169"
       id="rect837"
       width="25.4"
       height="128.5"
       x="-0.042479642"
       y="0"
       inkscape:label="background fill" />
    <rect
       y="117.5"
       x="-3.1515955e-07"
       height="11.058319"
       width="25.4"
       id="rect1002"
       style="fill:#8e24aa;fill-opacity:1;stroke:none;stroke-width:1.9935" />
    <rect
       style="fill:#8e24aa;fill-opacity:1;stroke:none;stroke-width:2.32176"
       id="rect1488"
       width="25.4"
       height="15"
       x="-0.042479258"
       y="0" />
    <g
       transform="translate(0,-2.1166667)"
       aria-label="select"
       id="text3021"
       style="font-size:7.76111px;line-height:1.25;font-family:'Londrina Solid';-inkscape-font-specification:'Londrina Solid, Normal';letter-spacing:0px;word-spacing:0px;stroke-width:0.264583">
      <path
         d="m 6.8298769,11.896071 q 0,-0.4191 -0.1552222,-0.752827 -0.1552222,-0.341489 -0.5199944,-0.496712 -0.2017888,-0.04657 -0.4423832,-0.06985 -0.2405944,-0.03104 -0.4811888,-0.03104 -0.2405944,0 -0.4579055,0.02328 -0.20955,0.02328 -0.3570111,0.06209 -0.3802944,0.100895 -0.5898443,0.388056 -0.2017889,0.287161 -0.2173111,0.62865 -0.00776,0.333727 0.1862666,0.651933 0.2017889,0.310444 0.636411,0.457905 0.2173111,0.09313 0.4423833,0.131939 0.2250722,0.03881 0.4035777,0.09313 0.1785055,0.04657 0.2871611,0.1397 0.1086555,0.09313 0.085372,0.279399 0.00776,0.225073 -0.1397,0.310445 -0.1474611,0.08537 -0.3259666,0.06985 -0.1785055,-0.02328 -0.3414888,-0.131939 -0.1552222,-0.116417 -0.1629833,-0.294922 -0.2405944,0 -0.5665611,-0.0078 -0.3259666,-0.01552 -0.5820832,0.01552 v 0.01552 0.02328 q 0,0.310445 0.1241778,0.5588 0.1319388,0.248356 0.357011,0.4191 0.2328333,0.170745 0.5510388,0.256117 0.3182055,0.08537 0.7140221,0.06985 0.4501444,0.0078 0.8304388,-0.155222 Q 6.4883879,14.387339 6.6668934,14.007045 6.8143545,13.580184 6.7755489,13.293023 6.7367429,12.998101 6.565999,12.718701 6.3874934,12.485868 6.007199,12.384973 5.6269047,12.276318 5.1922825,12.214229 5.013777,12.152139 4.9206437,12.027962 q -0.093133,-0.124178 -0.093133,-0.248355 0,-0.124178 0.085372,-0.225073 0.093133,-0.108655 0.2716388,-0.1397 0.1008944,-0.0078 0.2017889,0.03104 0.1086555,0.03104 0.1862666,0.100894 0.085372,0.06985 0.1241778,0.162984 0.046567,0.09313 0.023283,0.186266 0.2638777,0.05433 0.5587999,0.04657 0.3026833,-0.0078 0.5510388,-0.04657 z"
         style="font-size:7.76111px;fill:#f3e5f5;stroke-width:0.264583"
         id="path6930" />
      <path
         d="m 8.1432023,12.633377 q 0.077611,0.01552 0.2483555,0.02328 0.1707444,0.0078 0.3802944,0.0078 0.217311,0 0.4501443,-0.0078 0.2328333,-0.0078 0.4346222,-0.02328 0.2095499,-0.01552 0.3570113,-0.03104 0.155222,-0.01552 0.20955,-0.03104 0.02328,-0.325967 0,-0.644172 Q 10.1999,11.608919 10.08348,11.345041 9.9748242,11.081155 9.7575131,10.894888 9.540202,10.708621 9.183191,10.646532 q -0.2794,-0.06985 -0.5743221,-0.06209 -0.2949222,0.0078 -0.5588,0.09313 -0.2638777,0.07761 -0.4734277,0.240594 -0.2095499,0.155223 -0.3104443,0.380295 -0.093133,0.256116 -0.1241778,0.527755 -0.023283,0.263878 -0.046567,0.551039 -0.015522,0.318205 0.015522,0.636411 0.031044,0.318205 0.1164166,0.605367 0.085372,0.2794 0.2250722,0.519994 0.1397,0.232833 0.3492499,0.380294 0.1862667,0.108656 0.4035777,0.1397 0.2173111,0 0.4734277,0.01552 0.2638778,0.01552 0.5122333,0 0.2483555,-0.01552 0.4579055,-0.09313 0.2095499,-0.07761 0.3414888,-0.263878 0.054328,-0.04657 0.085373,-0.162983 0.0388,-0.124178 0.06209,-0.287161 0.02328,-0.170744 0.03881,-0.364772 0.01552,-0.194028 0.03104,-0.395817 -0.08537,-0.02328 -0.2173162,-0.02328 -0.1319389,-0.0078 -0.2794,0 -0.1396999,0.0078 -0.2716388,0.01552 -0.1319389,0 -0.20955,-0.0078 0.015522,0.318206 -0.1008944,0.481189 -0.1086555,0.155222 -0.2716388,0.186267 -0.1629833,0.03104 -0.3337278,-0.05433 -0.1707444,-0.08537 -0.2638777,-0.263878 -0.085372,-0.1397 -0.1008944,-0.287161 -0.00776,-0.147461 -0.015522,-0.380294 z m 0.9390943,-1.202972 q 0.1396999,0.06985 0.217311,0.20955 0.085372,0.1397 0.085372,0.294922 0,0.06209 0,0.08537 0,0.01552 -0.046567,0.02328 -0.038806,0 -0.1397,-0.0078 -0.1008944,-0.0078 -0.3026833,-0.0078 -0.2949222,0 -0.4501444,0.0078 -0.147461,0 -0.217311,-0.0078 -0.06985,-0.01552 -0.077611,-0.04657 0,-0.0388 0.015522,-0.124177 0.015522,-0.100895 0.046567,-0.194028 0.038806,-0.09313 0.1086555,-0.162983 0.06985,-0.06985 0.1862666,-0.108656 0.1164167,-0.03881 0.3026833,-0.03881 0.085372,0 0.1474611,0.02328 0.062089,0.01552 0.1241778,0.05433 z"
         style="font-size:7.76111px;fill:#f3e5f5;stroke-width:0.264583"
         id="path6932" />
      <path
         d="m 10.676113,8.9390883 q -0.06985,0.706261 -0.06985,1.4125217 0.0078,0.706261 0.03105,1.412522 0.02328,0.706261 0.03104,1.412522 0.01552,0.706261 -0.03881,1.404761 0.05433,-0.01552 0.217311,-0.0078 0.162984,0.0078 0.341489,0.0078 0.186267,0.0078 0.341489,0 0.155222,0 0.194028,-0.04657 -0.01552,-0.310445 -0.02328,-0.752828 -0.0078,-0.450145 -0.0078,-0.962378 0,-0.512233 0,-1.063272 0.0078,-0.551039 0.01552,-1.063272 0.0078,-0.512233 0.01552,-0.9623775 0.0078,-0.4501443 0.0078,-0.7683498 z"
         style="font-size:7.76111px;fill:#f3e5f5;stroke-width:0.264583"
         id="path6934" />
      <path
         d="m 13.175797,12.633377 q 0.07761,0.01552 0.248355,0.02328 0.170745,0.0078 0.380295,0.0078 0.217311,0 0.450144,-0.0078 0.232833,-0.0078 0.434622,-0.02328 0.20955,-0.01552 0.357011,-0.03104 0.155222,-0.01552 0.20955,-0.03104 0.02328,-0.325967 0,-0.644172 -0.02328,-0.318206 -0.1397,-0.582084 -0.108655,-0.263877 -0.325966,-0.450144 -0.217312,-0.186267 -0.574323,-0.248356 -0.2794,-0.06985 -0.574322,-0.06209 -0.294922,0.0078 -0.5588,0.09313 -0.263877,0.07761 -0.473427,0.240594 -0.20955,0.155223 -0.310445,0.380295 -0.09313,0.256116 -0.124177,0.527755 -0.02328,0.263878 -0.04657,0.551039 -0.01552,0.318205 0.01552,0.636411 0.03105,0.318205 0.116417,0.605367 0.08537,0.2794 0.225072,0.519994 0.1397,0.232833 0.34925,0.380294 0.186267,0.108656 0.403578,0.1397 0.217311,0 0.473427,0.01552 0.263878,0.01552 0.512234,0 0.248355,-0.01552 0.457905,-0.09313 0.20955,-0.07761 0.341489,-0.263878 0.05433,-0.04657 0.08537,-0.162983 0.03881,-0.124178 0.06209,-0.287161 0.02328,-0.170744 0.0388,-0.364772 0.01552,-0.194028 0.03105,-0.395817 -0.08537,-0.02328 -0.217311,-0.02328 -0.131939,-0.0078 -0.2794,0 -0.1397,0.0078 -0.271639,0.01552 -0.131939,0 -0.20955,-0.0078 0.01552,0.318206 -0.100894,0.481189 -0.108656,0.155222 -0.271639,0.186267 -0.162983,0.03104 -0.333728,-0.05433 -0.170744,-0.08537 -0.263878,-0.263878 -0.08537,-0.1397 -0.100894,-0.287161 -0.0078,-0.147461 -0.01552,-0.380294 z m 0.939094,-1.202972 q 0.1397,0.06985 0.217311,0.20955 0.08537,0.1397 0.08537,0.294922 0,0.06209 0,0.08537 0,0.01552 -0.04657,0.02328 -0.03881,0 -0.1397,-0.0078 -0.100895,-0.0078 -0.302684,-0.0078 -0.294922,0 -0.450144,0.0078 -0.147461,0 -0.217311,-0.0078 -0.06985,-0.01552 -0.07761,-0.04657 0,-0.0388 0.01552,-0.124177 0.01552,-0.100895 0.04657,-0.194028 0.0388,-0.09313 0.108655,-0.162983 0.06985,-0.06985 0.186267,-0.108656 0.116417,-0.03881 0.302683,-0.03881 0.08537,0 0.147461,0.02328 0.06209,0.01552 0.124178,0.05433 z"
         style="font-size:7.76111px;fill:#f3e5f5;stroke-width:0.264583"
         id="path6936" />
      <path
         d="m 18.673452,13.091282 q -0.08537,-0.02328 -0.217311,-0.02328 -0.131939,-0.0078 -0.2794,0 -0.147461,0.0078 -0.2794,0.01552 -0.131939,0 -0.20955,-0.0078 -0.02328,0.100894 -0.06985,0.232833 -0.03881,0.124178 -0.116417,0.178506 -0.09313,0.06209 -0.248355,0.08537 -0.155223,0.01552 -0.302684,-0.01552 -0.147461,-0.03881 -0.256116,-0.1397 -0.100895,-0.100895 -0.08537,-0.2794 0.01552,-0.271639 0.01552,-0.519995 0,-0.248355 0.03104,-0.48895 0.02328,-0.124177 0.06985,-0.155222 0.100895,-0.124177 0.263878,-0.170744 0.302683,-0.07761 0.48895,0.07761 0.186266,0.147461 0.225072,0.4191 0.100894,0.01552 0.225072,0.03104 0.131939,0.01552 0.263878,0.02328 0.1397,0.0078 0.263878,0.0078 0.131938,0 0.232833,-0.02328 -0.0078,-0.256116 -0.01552,-0.473427 0,-0.225072 -0.03105,-0.403578 -0.03104,-0.178506 -0.09313,-0.310444 -0.05433,-0.131939 -0.162983,-0.20955 -0.162984,-0.155223 -0.388056,-0.232834 -0.225072,-0.07761 -0.473428,-0.09313 -0.162983,-0.01552 -0.310444,0 -0.1397,0.0078 -0.294922,-0.0078 -0.186267,0 -0.372533,0.02328 -0.178506,0.02328 -0.341489,0.08537 -0.155222,0.05433 -0.2794,0.1397 -0.116417,0.08537 -0.170745,0.201789 -0.02328,0.07761 -0.06985,0.225072 -0.04657,0.147462 -0.05433,0.232834 -0.04657,0.2794 -0.04657,0.5588 0.03104,0.256116 0.01552,0.566561 -0.0078,0.310444 0.0078,0.620889 0.01552,0.302683 0.09313,0.582083 0.07761,0.2794 0.287161,0.465666 0.271639,0.271639 0.667455,0.341489 0.217311,0 0.481189,0.01552 0.263878,0.02328 0.512233,0 0.248356,-0.01552 0.457906,-0.09313 0.217311,-0.07761 0.34925,-0.263878 0.05433,-0.05433 0.08537,-0.170744 0.0388,-0.124178 0.06209,-0.287161 0.02328,-0.170745 0.0388,-0.364772 0.01552,-0.194028 0.03105,-0.395817 z"
         style="font-size:7.76111px;fill:#f3e5f5;stroke-width:0.264583"
         id="path6938" />
      <path
         d="m 20.500465,9.2728161 q -0.131939,0.015522 -0.263877,0.00776 -0.131939,-0.00776 -0.263878,-0.015522 -0.131939,-0.015522 -0.256117,-0.023283 -0.116416,-0.00776 -0.217311,0.00776 -0.01552,0.1474611 -0.02328,0.3337277 0,0.1862667 0,0.3880555 0,0.2017887 0.0078,0.4035777 0.0078,0.194027 0.0078,0.364772 -0.124178,0 -0.263878,0 -0.131939,0 -0.287161,-0.0078 l -0.02328,0.946855 q 0.162983,0 0.294922,0 0.1397,0 0.263878,-0.0078 -0.0078,0.566561 0.0078,1.102078 0.01552,0.527755 0.116417,1.125361 0.100894,0.240594 0.325966,0.380294 0.232833,0.1397 0.527756,0.20955 0.294922,0.06985 0.62865,0.09313 0.333727,0.01552 0.644172,0 0.0388,-0.116416 0.04657,-0.256116 0.01552,-0.1397 0.0078,-0.2794 -0.0078,-0.1397 -0.02328,-0.271639 -0.01552,-0.131939 -0.03104,-0.240595 -0.131939,0.0078 -0.310445,0 -0.170744,-0.0078 -0.341489,-0.0388 -0.170744,-0.03881 -0.318205,-0.100895 -0.147461,-0.06209 -0.225072,-0.170744 -0.0078,-0.34925 -0.0078,-0.745067 0,-0.403577 0,-0.822677 h 1.202972 q -0.01552,-0.100895 -0.0078,-0.240595 0.01552,-0.147461 0.02328,-0.287161 0.0078,-0.1397 0,-0.256116 -0.0078,-0.124178 -0.06209,-0.186267 -0.395817,0.02328 -0.667455,0.03881 -0.263878,0.01552 -0.504473,0.02328 0,-0.116417 -0.0078,-0.225072 0,-0.108656 0,-0.20955 z"
         style="font-size:7.76111px;fill:#f3e5f5;stroke-width:0.264583"
         id="path6940" />
    </g>
    <g
       id="g6712"
       inkscape:label="outlet">
      <rect
         ry="2.2868252"
         y="102.26613"
         x="14.298368"
         height="11.76461"
         width="9.3472004"
         id="rect6694"
         style="fill:#8e24aa;fill-opacity:1;stroke:none;stroke-width:0.930524" />
      <g
         style="font-size:2.82223px;line-height:1.25;font-family:'Londrina Solid';-inkscape-font-specification:'Londrina Solid, Normal';letter-spacing:0px;word-spacing:0px;fill:#f3e5f5;stroke-width:0.264583"
         id="text6698"
         aria-label="out"
         transform="translate(0,0.10022607)">
        <path
           id="path6700"
           style="fill:#f3e5f5;stroke-width:0.264583"
           d="m 17.263366,112.07988 q -0.0085,0.031 -0.0254,0.0847 -0.01693,0.0508 -0.01975,0.0819 -0.0085,0.0536 -0.01129,0.10442 -0.0028,0.048 -0.0028,0.0988 0.0085,0.0931 0.0028,0.20602 -0.0028,0.11289 0.0028,0.22578 0.0056,0.11007 0.03387,0.21167 0.02822,0.1016 0.104422,0.16933 0.09878,0.0988 0.242712,0.12418 0.07902,0 0.174978,0.006 0.09596,0.008 0.186267,0 0.09031,-0.006 0.166512,-0.0339 0.07902,-0.0282 0.127,-0.096 0.02822,-0.0282 0.04233,-0.10442 0.01693,-0.0762 0.0254,-0.17216 0.01129,-0.096 0.01411,-0.20038 0.0056,-0.10442 0.0085,-0.18626 -0.0028,-0.0931 -0.0056,-0.18063 -0.0028,-0.0903 -0.01411,-0.16368 -0.01129,-0.0762 -0.03387,-0.13265 -0.02258,-0.0564 -0.06209,-0.0818 -0.05927,-0.0564 -0.141111,-0.0847 -0.08184,-0.031 -0.172156,-0.0367 -0.05927,-0.006 -0.112889,0 -0.0508,0.003 -0.107245,-0.003 -0.06773,0 -0.135467,0.008 -0.06491,0.008 -0.124178,0.031 -0.05645,0.0198 -0.101601,0.0508 -0.04233,0.031 -0.06209,0.0734 z m 0.352779,0.33302 q 0.03669,-0.0452 0.09596,-0.0621 0.110067,-0.0254 0.1778,0.0198 0.06773,0.0451 0.08185,0.14393 0.01693,0.0818 0.0085,0.17498 -0.0056,0.0903 -0.01693,0.18062 -0.01693,0.0706 -0.06491,0.0931 -0.03669,0.0198 -0.09313,0.0282 -0.05644,0.006 -0.110067,-0.006 -0.0508,-0.0141 -0.08749,-0.048 -0.03669,-0.0367 -0.03387,-0.1016 0.0056,-0.0988 0.0056,-0.18626 0,-0.0903 0.01129,-0.18063 0.0085,-0.0452 0.0254,-0.0564 z" />
        <path
           id="path6702"
           style="fill:#f3e5f5;stroke-width:0.264583"
           d="m 19.191699,113.21441 q 0.0028,0.0395 0,0.0706 0,0.031 0.0056,0.079 0,0.008 0.02258,0.008 0.02258,0.003 0.0508,0 0.02822,-0.003 0.05644,-0.006 0.02822,-0.006 0.03951,-0.006 0.03387,-0.003 0.05645,-0.003 0.02258,-0.003 0.04233,-0.003 0.01976,0 0.04233,0.003 0.02258,0 0.05644,0.003 0.01129,-0.37254 0.0028,-0.71967 -0.0056,-0.34713 -0.0056,-0.69427 -0.06773,0.006 -0.112889,0.003 -0.04516,-0.003 -0.08185,-0.003 -0.03669,-0.003 -0.07338,0 -0.03387,0.003 -0.08184,0.0169 v 0.0113 q -0.01411,0.0931 -0.01411,0.18627 0.0028,0.0931 0.0056,0.18909 0.0056,0.0931 0.0085,0.18909 0.0028,0.096 -0.0028,0.19191 -0.0056,0.0762 -0.03951,0.11571 -0.03387,0.0367 -0.0762,0.0508 -0.04233,0.0113 -0.08749,0.006 -0.04233,-0.008 -0.06491,-0.0198 -0.0028,-0.003 -0.0056,-0.003 -0.0028,0 -0.0056,-0.003 -0.02258,-0.0169 -0.03669,-0.048 -0.01129,-0.031 -0.01976,-0.0706 -0.0056,-0.0395 -0.0085,-0.079 -0.0028,-0.0423 -0.0056,-0.0762 -0.0056,-0.0762 -0.0085,-0.16369 0,-0.0875 0,-0.17498 0.0028,-0.0875 0.0028,-0.16933 0,-0.0818 -0.0056,-0.14676 -0.09878,0 -0.1778,0 -0.0762,-0.003 -0.174979,0.0113 0.0056,0.096 0.0028,0.22296 -0.0028,0.127 -0.0056,0.26529 -0.0028,0.13547 -0.0056,0.27093 0,0.13265 0.0028,0.24554 0.0056,0.11289 0.01975,0.19473 0.01693,0.079 0.04516,0.10442 0.05927,0.0508 0.132645,0.0706 0.07338,0.0198 0.149578,0.0169 0.07902,-0.003 0.152401,-0.0282 0.07338,-0.0254 0.132644,-0.0677 0.01411,-0.0113 0.03387,-0.0226 0.02258,-0.0113 0.03669,-0.0198 z" />
        <path
           id="path6704"
           style="fill:#f3e5f5;stroke-width:0.264583"
           d="m 20.27323,111.43641 q -0.04798,0.006 -0.09596,0.003 -0.04798,-0.003 -0.09596,-0.006 -0.04798,-0.006 -0.09313,-0.008 -0.04233,-0.003 -0.07902,0.003 -0.0056,0.0536 -0.0085,0.12136 0,0.0677 0,0.14111 0,0.0734 0.0028,0.14675 0.0028,0.0706 0.0028,0.13265 -0.04516,0 -0.09596,0 -0.04798,0 -0.104423,-0.003 l -0.0085,0.34431 q 0.05927,0 0.107244,0 0.0508,0 0.09596,-0.003 -0.0028,0.20602 0.0028,0.40075 0.0056,0.19192 0.04233,0.40923 0.03669,0.0875 0.118533,0.13829 0.08467,0.0508 0.191912,0.0762 0.107245,0.0254 0.228601,0.0339 0.121356,0.006 0.234245,0 0.01411,-0.0423 0.01693,-0.0931 0.0056,-0.0508 0.0028,-0.1016 -0.0028,-0.0508 -0.0085,-0.0988 -0.0056,-0.048 -0.01129,-0.0875 -0.04798,0.003 -0.112889,0 -0.06209,-0.003 -0.124179,-0.0141 -0.06209,-0.0141 -0.115711,-0.0367 -0.05362,-0.0226 -0.08185,-0.0621 -0.0028,-0.127 -0.0028,-0.27093 0,-0.14676 0,-0.29916 h 0.437446 q -0.0056,-0.0367 -0.0028,-0.0875 0.0056,-0.0536 0.0085,-0.10442 0.0028,-0.0508 0,-0.0931 -0.0028,-0.0452 -0.02258,-0.0677 -0.143933,0.008 -0.242711,0.0141 -0.09596,0.006 -0.183445,0.008 0,-0.0423 -0.0028,-0.0818 0,-0.0395 0,-0.0762 z" />
      </g>
    </g>
    <g
       transform="translate(0,0.00537254)"
       aria-label="iggy.labs"
       id="text6945"
       style="font-size:4.23333px;line-height:1.25;font-family:'Londrina Solid';-inkscape-font-specification:'Londrina Solid, Normal';letter-spacing:0px;word-spacing:0px;fill:#f3e5f5;stroke-width:0.264583">
      <path
         d="m 6.202784,121.92612 q -0.1354665,0.004 -0.2328331,0 -0.097367,-0.004 -0.1523999,-0.008 -0.021167,0 -0.0635,-0.004 -0.0381,-0.004 -0.055033,0 v 0.004 q -0.0254,0.24976 -0.0254,0.51646 0,0.26247 0.00847,0.5334 0.00847,0.27094 0.00847,0.5461 0.00423,0.27517 -0.016933,0.54187 0.029633,-0.008 0.1185332,-0.004 0.0889,0.004 0.1862665,0.004 0.1015999,0.004 0.1862665,0 0.084667,0 0.1058333,-0.0254 -0.029633,-0.51223 -0.016933,-1.04563 0.016933,-0.5334 0.021167,-1.04564 v -0.0127 z m -0.5206996,-0.92286 q -0.00423,0.19473 0.00423,0.3302 0.0127,0.13123 0.0127,0.254 0.080433,-0.004 0.1735665,0.004 0.093133,0.004 0.1735665,0.008 0.084667,0 0.1439332,-0.008 0.0635,-0.008 0.080433,-0.0339 0,-0.0635 -0.00423,-0.14393 0,-0.0847 -0.00423,-0.16087 0,-0.0804 -0.00423,-0.14393 0,-0.0677 0,-0.0931 z"
         style="font-size:4.23333px;fill:#f3e5f5;stroke-width:0.264583"
         id="path6947" />
      <path
         d="m 6.981849,123.05219 q 0,-0.0423 0,-0.0804 0,-0.0423 0.00847,-0.0847 0.016933,-0.0974 0.059267,-0.18203 0.046567,-0.0889 0.1100666,-0.16087 0.0508,-0.0423 0.1142999,-0.0593 0.067733,-0.0212 0.1354665,-0.0127 0.067733,0.008 0.1227666,0.0466 0.059267,0.0339 0.084667,0.0974 0.042333,0.16086 0.046567,0.33866 0.00847,0.17357 0.00847,0.3429 -0.00423,0.0381 -0.0127,0.0804 -0.00423,0.0381 -0.016933,0.0762 -0.0127,0.0339 -0.033867,0.0635 -0.021167,0.0254 -0.059267,0.0381 -0.1100666,0.0339 -0.2370665,0.0169 -0.1269999,-0.0212 -0.2031998,-0.1143 -0.1269999,-0.1524 -0.1269999,-0.3683 z m 0.7323661,1.84996 q 0.0508,-0.004 0.1100665,-0.0169 0.059267,-0.0127 0.1185333,-0.0466 0.059267,-0.0296 0.1185332,-0.0847 0.0635,-0.055 0.1227666,-0.14817 0.042333,-0.0677 0.0381,-0.16933 -0.00423,-0.0974 0,-0.19897 0.0254,-0.6096 0.021167,-1.18533 0,-0.57997 -0.016933,-1.10913 -0.1439333,0 -0.2878665,-0.004 -0.1439332,-0.008 -0.2836331,0.008 -0.0127,0.0212 -0.0127,0.0593 0.00423,0.0339 0.00423,0.072 0.00423,0.0339 0,0.0593 0,0.0212 -0.016933,0.0127 -0.0508,-0.11853 -0.1693332,-0.16087 -0.1142999,-0.0466 -0.2497665,-0.0381 -0.2709331,0.0169 -0.4148663,0.15664 -0.1439332,0.13546 -0.2116665,0.33866 -0.0635,0.19897 -0.071967,0.42757 -0.00847,0.2286 -0.00847,0.42757 0.00847,0.13123 0.033867,0.25823 0.0254,0.12277 0.084667,0.23707 0.0381,0.0804 0.097367,0.13123 0.059267,0.0508 0.1312332,0.0804 0.0762,0.0296 0.1566332,0.0423 0.084667,0.0127 0.1650998,0.0127 0.059267,-0.004 0.1269999,-0.004 0.067733,0 0.1312333,-0.008 0.067733,-0.008 0.1227665,-0.0296 0.059267,-0.0212 0.1015999,-0.0677 -0.00847,0.0762 0,0.14817 0.00423,0.0339 0,0.0762 -0.00423,0.0466 -0.00847,0.0889 -0.0254,0.11853 -0.1100666,0.16933 -0.080433,0.0508 -0.1693332,0.0423 -0.084667,-0.008 -0.1566332,-0.0762 -0.067733,-0.0635 -0.067733,-0.17356 -0.0508,-0.008 -0.1269999,-0.0169 -0.071967,-0.004 -0.1523998,-0.008 -0.0762,0 -0.1481666,0.004 -0.071967,0.008 -0.1142999,0.0254 -0.00423,0.0339 -0.00423,0.0804 0.00423,0.0466 0.0127,0.0974 0.0127,0.0508 0.0254,0.0974 0.016933,0.0508 0.033867,0.0804 0.097367,0.14393 0.2539998,0.2286 0.1566332,0.0847 0.3555997,0.0847 0.1735665,0 0.2836331,0.004 0.1100666,0.004 0.1523999,-0.004 z"
         style="font-size:4.23333px;fill:#f3e5f5;stroke-width:0.264583"
         id="path6949" />
      <path
         d="m 8.9579541,123.05219 q 0,-0.0423 0,-0.0804 0,-0.0423 0.00847,-0.0847 0.016933,-0.0974 0.059267,-0.18203 0.046567,-0.0889 0.1100666,-0.16087 0.0508,-0.0423 0.1142999,-0.0593 0.067733,-0.0212 0.1354665,-0.0127 0.067733,0.008 0.1227666,0.0466 0.059267,0.0339 0.084667,0.0974 0.042333,0.16086 0.046567,0.33866 0.00847,0.17357 0.00847,0.3429 -0.00423,0.0381 -0.0127,0.0804 -0.00423,0.0381 -0.016933,0.0762 -0.0127,0.0339 -0.033867,0.0635 -0.021167,0.0254 -0.059267,0.0381 -0.1100666,0.0339 -0.2370665,0.0169 -0.1269999,-0.0212 -0.2031998,-0.1143 -0.1269999,-0.1524 -0.1269999,-0.3683 z m 0.7323661,1.84996 q 0.0508,-0.004 0.1100665,-0.0169 0.059267,-0.0127 0.1185333,-0.0466 0.059267,-0.0296 0.118533,-0.0847 0.0635,-0.055 0.122767,-0.14817 0.04233,-0.0677 0.0381,-0.16933 -0.0042,-0.0974 0,-0.19897 0.0254,-0.6096 0.02117,-1.18533 0,-0.57997 -0.01693,-1.10913 -0.143933,0 -0.2878664,-0.004 -0.1439332,-0.008 -0.2836331,0.008 -0.0127,0.0212 -0.0127,0.0593 0.00423,0.0339 0.00423,0.072 0.00423,0.0339 0,0.0593 0,0.0212 -0.016933,0.0127 -0.0508,-0.11853 -0.1693332,-0.16087 -0.1142999,-0.0466 -0.2497665,-0.0381 -0.2709331,0.0169 -0.4148663,0.15664 -0.1439332,0.13546 -0.2116665,0.33866 -0.0635,0.19897 -0.071967,0.42757 -0.00847,0.2286 -0.00847,0.42757 0.00847,0.13123 0.033867,0.25823 0.0254,0.12277 0.084667,0.23707 0.0381,0.0804 0.097367,0.13123 0.059267,0.0508 0.1312332,0.0804 0.0762,0.0296 0.1566332,0.0423 0.084667,0.0127 0.1650998,0.0127 0.059267,-0.004 0.1269999,-0.004 0.067733,0 0.1312333,-0.008 0.067733,-0.008 0.1227665,-0.0296 0.059267,-0.0212 0.1015999,-0.0677 -0.00847,0.0762 0,0.14817 0.00423,0.0339 0,0.0762 -0.00423,0.0466 -0.00847,0.0889 -0.0254,0.11853 -0.1100666,0.16933 -0.080433,0.0508 -0.1693332,0.0423 -0.084667,-0.008 -0.1566332,-0.0762 -0.067733,-0.0635 -0.067733,-0.17356 -0.0508,-0.008 -0.1269999,-0.0169 -0.071967,-0.004 -0.1523998,-0.008 -0.0762,0 -0.1481666,0.004 -0.071967,0.008 -0.1142999,0.0254 -0.00423,0.0339 -0.00423,0.0804 0.00423,0.0466 0.0127,0.0974 0.0127,0.0508 0.0254,0.0974 0.016933,0.0508 0.033867,0.0804 0.097367,0.14393 0.2539998,0.2286 0.1566332,0.0847 0.3555997,0.0847 0.1735665,0 0.2836331,0.004 0.1100666,0.004 0.1523999,-0.004 z"
         style="font-size:4.23333px;fill:#f3e5f5;stroke-width:0.264583"
         id="path6951" />
      <path
         d="m 11.001793,121.95152 q -0.135467,-0.0169 -0.3048,-0.004 -0.169333,0.008 -0.321733,-0.008 0.131233,0.47837 0.2667,0.9906 0.135466,0.51224 0.224366,1.02447 0.02117,0.1397 -0.0254,0.2032 -0.04233,0.0635 -0.127,0.0804 -0.08467,0.0212 -0.194733,0.0127 -0.105833,-0.008 -0.207433,-0.008 -0.02117,0.11853 -0.01693,0.27516 0,0.16087 0.04233,0.28787 0.359833,0.0212 0.605366,-0.055 0.249766,-0.0762 0.414866,-0.22436 0.169333,-0.14394 0.270933,-0.3429 0.1016,-0.19897 0.1651,-0.4191 0.06773,-0.22013 0.110067,-0.44873 0.04657,-0.2286 0.1016,-0.43604 0.0508,-0.22013 0.1016,-0.44873 0.05503,-0.23283 0.122766,-0.48683 -0.1778,-0.0127 -0.325966,-0.004 -0.148167,0.008 -0.2921,0.004 -0.0508,0.127 -0.08467,0.33443 -0.03387,0.20743 -0.0635,0.4318 -0.0254,0.22437 -0.05503,0.4318 -0.02963,0.20743 -0.0762,0.33443 -0.04657,-0.127 -0.09313,-0.32173 -0.04657,-0.19897 -0.0889,-0.41487 -0.04233,-0.2159 -0.08043,-0.42333 -0.0381,-0.21167 -0.06773,-0.36407 z"
         style="font-size:4.23333px;fill:#f3e5f5;stroke-width:0.264583"
         id="path6953" />
      <path
         d="m 12.783693,124.05549 v -0.004 -0.004 q 0,-0.0296 0.0042,-0.11006 0.0042,-0.0804 0.0085,-0.1651 0.0042,-0.0847 0.0085,-0.14817 0.0042,-0.0677 0.0042,-0.072 -0.02963,-0.0127 -0.101599,-0.0169 -0.06773,-0.008 -0.148167,-0.008 -0.08043,0 -0.160867,0.008 -0.0762,0.008 -0.118533,0.0254 0,0.0296 -0.0042,0.0931 0,0.0635 -0.0042,0.13547 0,0.072 0,0.14393 0.0042,0.072 0.0127,0.11854 h 0.0127 l 0.478366,0.004 z"
         style="font-size:4.23333px;fill:#f3e5f5;stroke-width:0.264583"
         id="path6955" />
      <path
         d="m 13.107345,120.97786 q -0.0381,0.38523 -0.0381,0.77046 0.0042,0.38524 0.01693,0.77047 0.0127,0.38523 0.01693,0.77047 0.0085,0.38523 -0.02117,0.76623 0.02963,-0.008 0.118533,-0.004 0.0889,0.004 0.186267,0.004 0.1016,0.004 0.186266,0 0.08467,0 0.105833,-0.0254 -0.0085,-0.16933 -0.0127,-0.41063 -0.0042,-0.24554 -0.0042,-0.52494 0,-0.2794 0,-0.57996 0.0042,-0.30057 0.0085,-0.57997 0.0042,-0.2794 0.0085,-0.52493 0.0042,-0.24554 0.0042,-0.4191 z"
         style="font-size:4.23333px;fill:#f3e5f5;stroke-width:0.264583"
         id="path6957" />
      <path
         d="m 15.66884,121.94729 q -0.135467,-0.008 -0.2413,-0.0127 -0.1016,-0.004 -0.173566,-0.008 -0.0127,0 -0.04657,0 -0.03387,0 -0.06773,0 -0.03387,-0.004 -0.0635,0 -0.0254,0 -0.0254,0.004 0,0.0508 -0.0127,0.1016 -0.0085,0.0466 -0.0042,0.1143 -0.02963,-0.072 -0.07197,-0.11007 -0.04233,-0.0423 -0.09737,-0.0593 -0.05503,-0.0212 -0.122766,-0.0212 -0.0635,-0.004 -0.1397,-0.004 -0.148167,0.004 -0.2794,0.0804 -0.131233,0.072 -0.2286,0.2032 -0.09313,0.127 -0.148166,0.3048 -0.05503,0.1778 -0.05503,0.38946 0,0.16934 0.03387,0.3683 0.0381,0.19897 0.1143,0.3683 0.0762,0.16934 0.1905,0.28364 0.118533,0.1143 0.283633,0.1143 0.148166,0 0.300566,-0.072 0.156633,-0.072 0.258233,-0.17357 0,0.0423 -0.0085,0.072 -0.0085,0.0296 -0.0085,0.0762 0,0.0339 0.0085,0.0593 0.0127,0.0254 0.04233,0.0339 0.04657,0 0.0889,-0.004 0.04657,-0.008 0.09313,-0.008 0.06773,0 0.135467,0.008 0.07197,0.004 0.1397,0.004 h 0.0508 q 0.0508,-0.008 0.0508,-0.0635 0.0042,-0.055 0.0042,-0.11006 0.02963,-0.45297 0.0127,-0.89324 -0.01693,-0.4445 -0.0042,-0.9017 v -0.0423 q 0,-0.0254 -0.0042,-0.0508 0,-0.0254 -0.0042,-0.0508 z m -1.231899,0.84243 q 0.02117,-0.10583 0.118533,-0.18626 0.1016,-0.0847 0.275167,-0.0847 0.0889,0 0.131233,0.0127 0.04657,0.0127 0.0635,0.0593 0.02117,0.0466 0.02117,0.13546 0.0042,0.0847 0.0042,0.23284 0,0.11853 -0.0042,0.2159 0,0.0931 -0.0254,0.16086 -0.02117,0.0635 -0.0762,0.1016 -0.0508,0.0339 -0.156633,0.0339 -0.1778,0 -0.279399,-0.13123 -0.09737,-0.13547 -0.09737,-0.32597 0,-0.055 0.0042,-0.11007 0.0042,-0.0593 0.02117,-0.1143 z"
         style="font-size:4.23333px;fill:#f3e5f5;stroke-width:0.264583"
         id="path6959" />
      <path
         d="m 16.534821,121.07946 q 0,-0.004 -0.05927,-0.008 -0.05503,-0.008 -0.1397,-0.008 -0.08043,-0.004 -0.173566,0 -0.09313,0 -0.160867,0.0127 v 0.2794 q 0,0.35137 -0.0085,0.70274 -0.0085,0.35136 -0.01693,0.69426 -0.0042,0.33867 -0.0085,0.66887 0,0.32597 0.0085,0.63077 0.131233,0 0.287867,0.004 0.156633,0.008 0.283633,-0.008 0.0042,-0.008 0.0042,-0.0296 0,-0.0423 0,-0.0677 0.0042,-0.0254 0.0042,-0.072 0.0085,-0.0212 0.01693,-0.0296 0.0127,-0.0127 0.0254,0.0127 0.0635,0.127 0.169333,0.1651 0.105833,0.0339 0.224366,0.0169 0.2413,-0.0169 0.381,-0.12277 0.1397,-0.11006 0.207433,-0.27516 0.07197,-0.16934 0.09313,-0.37677 0.02117,-0.20743 0.02963,-0.4191 0,-0.14817 -0.02117,-0.28787 -0.01693,-0.1397 -0.05927,-0.254 -0.0381,-0.11853 -0.105833,-0.19896 -0.0635,-0.0847 -0.156633,-0.11854 -0.1143,-0.0423 -0.254,-0.0508 -0.135466,-0.0127 -0.258233,0 -0.122766,0.008 -0.207433,0.0381 -0.08467,0.0296 -0.09313,0.0677 0.0042,-0.19897 0.0042,-0.32174 0,-0.12276 0,-0.19473 0,-0.0762 -0.0042,-0.1143 0,-0.0423 -0.0042,-0.0762 0,-0.0381 -0.0042,-0.0804 0,-0.0466 -0.0042,-0.13124 z m 0.656166,1.64253 q 0.02117,0.0593 0.0254,0.12277 0.0042,0.0635 0.0042,0.12276 0,0.10584 -0.0254,0.20744 -0.0254,0.0974 -0.0762,0.1778 -0.0508,0.0762 -0.122766,0.12276 -0.07197,0.0466 -0.160867,0.0466 -0.110066,0 -0.169333,-0.0466 -0.05927,-0.0466 -0.09313,-0.127 -0.02963,-0.0804 -0.0381,-0.1905 -0.0042,-0.1143 -0.0042,-0.24976 0,-0.1651 0.0042,-0.25824 0.0085,-0.0974 0.03387,-0.14816 0.0254,-0.0508 0.0762,-0.0635 0.05503,-0.0169 0.143933,-0.0169 0.173567,0 0.275167,0.0762 0.105833,0.0762 0.127,0.22437 z"
         style="font-size:4.23333px;fill:#f3e5f5;stroke-width:0.264583"
         id="path6961" />
      <path
         d="m 19.641424,122.59076 q 0,-0.2286 -0.08467,-0.41064 -0.08467,-0.18626 -0.283633,-0.27093 -0.110067,-0.0254 -0.2413,-0.0381 -0.131233,-0.0169 -0.262466,-0.0169 -0.131233,0 -0.249767,0.0127 -0.1143,0.0127 -0.194733,0.0339 -0.207433,0.055 -0.321733,0.21167 -0.110066,0.15663 -0.118533,0.3429 -0.0042,0.18203 0.1016,0.3556 0.110066,0.16933 0.347133,0.24977 0.118533,0.0508 0.2413,0.072 0.122766,0.0212 0.220133,0.0508 0.09737,0.0254 0.156633,0.0762 0.05927,0.0508 0.04657,0.1524 0.0042,0.12277 -0.0762,0.16934 -0.08043,0.0466 -0.1778,0.0381 -0.09737,-0.0127 -0.186267,-0.072 -0.08467,-0.0635 -0.0889,-0.16087 -0.131233,0 -0.309033,-0.004 -0.1778,-0.008 -0.317499,0.008 v 0.008 0.0127 q 0,0.16934 0.06773,0.3048 0.07197,0.13547 0.194733,0.2286 0.127,0.0931 0.300566,0.1397 0.173567,0.0466 0.389467,0.0381 0.245533,0.004 0.452966,-0.0847 0.207433,-0.0889 0.3048,-0.29634 0.08043,-0.23283 0.05927,-0.38946 -0.02117,-0.16087 -0.114299,-0.31327 -0.09737,-0.127 -0.3048,-0.18203 -0.207433,-0.0593 -0.4445,-0.0931 -0.09737,-0.0339 -0.148166,-0.1016 -0.0508,-0.0677 -0.0508,-0.13546 0,-0.0677 0.04657,-0.12277 0.0508,-0.0593 0.148167,-0.0762 0.05503,-0.004 0.110066,0.0169 0.05927,0.0169 0.1016,0.055 0.04657,0.0381 0.06773,0.0889 0.0254,0.0508 0.0127,0.1016 0.143933,0.0296 0.304799,0.0254 0.1651,-0.004 0.300567,-0.0254 z"
         style="font-size:4.23333px;fill:#f3e5f5;stroke-width:0.264583"
         id="path6963" />
    </g>
  </g>
  <g
     inkscape:groupmode="layer"
     id="layer2"
     inkscape:label="components"
     style="display:none">
    <circle
       style="fill:#00ff00;fill-opacity:1;stroke:none;stroke-width:1.91825"
       id="circle6789"
       cx="18.932966"
       cy="96.4785"
       r="3.8364999"
       inkscape:label="in" />
    <circle
       inkscape:label="in"
       r="3.8364999"
       cy="86.096611"
       cx="18.932966"
       id="circle6791"
       style="fill:#00ff00;fill-opacity:1;stroke:none;stroke-width:1.91825" />
    <circle
       style="fill:#00ff00;fill-opacity:1;stroke:none;stroke-width:1.91825"
       id="circle6793"
       cx="18.932966"
       cy="75.714729"
       r="3.8364999"
       inkscape:label="in" />
    <circle
       inkscape:label="in"
       r="3.8364999"
       cy="65.332848"
       cx="18.932966"
       id="circle6795"
       style="fill:#00ff00;fill-opacity:1;stroke:none;stroke-width:1.91825" />
    <circle
       style="fill:#00ff00;fill-opacity:1;stroke:none;stroke-width:1.91825"
       id="circle6797"
       cx="18.932966"
       cy="54.950966"
       r="3.8364999"
       inkscape:label="in" />
    <circle
       inkscape:label="in"
       r="3.8364999"
       cy="44.56908"
       cx="18.932966"
       id="circle6799"
       style="fill:#00ff00;fill-opacity:1;stroke:none;stroke-width:1.91825" />
    <circle
       style="fill:#00ff00;fill-opacity:1;stroke:none;stroke-width:1.91825"
       id="circle6801"
       cx="18.932966"
       cy="34.187199"
       r="3.8364999"
       inkscape:label="in" />
    <circle
       inkscape:label="in"
       r="3.8364999"
       cy="23.805311"
       cx="18.932966"
       id="circle6803"
       style="fill:#00ff00;fill-opacity:1;stroke:none;stroke-width:1.91825" />
    <circle
       inkscape:label="in"
       r="3.8364999"
       cy="96.4785"
       cx="7.8771625"
       id="circle6734"
       style="fill:#00ff00;fill-opacity:1;stroke:none;stroke-width:1.91825" />
    <circle
       style="fill:#00ff00;fill-opacity:1;stroke:none;stroke-width:1.91825"
       id="circle6732"
       cx="7.8771625"
       cy="86.096611"
       r="3.8364999"
       inkscape:label="in" />
    <circle
       inkscape:label="in"
       r="3.8364999"
       cy="75.714729"
       cx="7.8771625"
       id="circle6730"
       style="fill:#00ff00;fill-opacity:1;stroke:none;stroke-width:1.91825" />
    <circle
       style="fill:#00ff00;fill-opacity:1;stroke:none;stroke-width:1.91825"
       id="circle6728"
       cx="7.8771625"
       cy="65.332848"
       r="3.8364999"
       inkscape:label="in" />
    <circle
       inkscape:label="in"
       r="3.8364999"
       cy="54.950966"
       cx="7.8771625"
       id="circle6726"
       style="fill:#00ff00;fill-opacity:1;stroke:none;stroke-width:1.91825" />
    <circle
       style="fill:#00ff00;fill-opacity:1;stroke:none;stroke-width:1.91825"
       id="circle6724"
       cx="7.8771625"
       cy="44.56908"
       r="3.8364999"
       inkscape:label="in" />
    <circle
       inkscape:label="in"
       r="3.8364999"
       cy="34.187199"
       cx="7.8771625"
       id="circle6722"
       style="fill:#00ff00;fill-opacity:1;stroke:none;stroke-width:1.91825" />
    <circle
       style="fill:#00ff00;fill-opacity:1;stroke:none;stroke-width:1.91825"
       id="path840"
       cx="7.8771625"
       cy="23.805311"
       r="3.8364999"
       inkscape:label="in" />
    <circle
       r="1"
       cy="92.682556"
       cx="14.584291"
       id="circle6863"
       style="fill:#ff00ff;fill-opacity:1;stroke:none;stroke-width:0.5"
       inkscape:label="light" />
    <circle
       style="fill:#ff00ff;fill-opacity:1;stroke:none;stroke-width:0.5"
       id="circle6866"
       cx="14.584291"
       cy="82.301712"
       r="1"
       inkscape:label="light" />
    <circle
       r="1"
       cy="71.920853"
       cx="14.584291"
       id="circle6868"
       style="fill:#ff00ff;fill-opacity:1;stroke:none;stroke-width:0.5"
       inkscape:label="light" />
    <circle
       style="fill:#ff00ff;fill-opacity:1;stroke:none;stroke-width:0.5"
       id="circle6870"
       cx="14.584291"
       cy="61.540009"
       r="1"
       inkscape:label="light" />
    <circle
       r="1"
       cy="51.159164"
       cx="14.584291"
       id="circle6872"
       style="fill:#ff00ff;fill-opacity:1;stroke:none;stroke-width:0.5"
       inkscape:label="light" />
    <circle
       style="fill:#ff00ff;fill-opacity:1;stroke:none;stroke-width:0.5"
       id="circle6874"
       cx="14.584291"
       cy="40.778316"
       r="1"
       inkscape:label="light" />
    <circle
       r="1"
       cy="30.397467"
       cx="14.584291"
       id="circle6876"
       style="fill:#ff00ff;fill-opacity:1;stroke:none;stroke-width:0.5"
       inkscape:label="light" />
    <circle
       style="fill:#ff00ff;fill-opacity:1;stroke:none;stroke-width:0.5"
       id="circle6878"
       cx="14.584291"
       cy="20.016621"
       r="1"
       inkscape:label="light" />
    <circle
       style="fill:#ff00ff;fill-opacity:1;stroke:none;stroke-width:0.5"
       id="circle6880"
       cx="3.5048645"
       cy="92.682556"
       r="1"
       inkscape:label="light" />
    <circle
       r="1"
       cy="82.301712"
       cx="3.5048645"
       id="circle6882"
       style="fill:#ff00ff;fill-opacity:1;stroke:none;stroke-width:0.5"
       inkscape:label="light" />
    <circle
       style="fill:#ff00ff;fill-opacity:1;stroke:none;stroke-width:0.5"
       id="circle6884"
       cx="3.5048645"
       cy="71.920853"
       r="1"
       inkscape:label="light" />
    <circle
       r="1"
       cy="61.540009"
       cx="3.5048645"
       id="circle6886"
       style="fill:#ff00ff;fill-opacity:1;stroke:none;stroke-width:0.5"
       inkscape:label="light" />
    <circle
       style="fill:#ff00ff;fill-opacity:1;stroke:none;stroke-width:0.5"
       id="circle6888"
       cx="3.5048645"
       cy="51.159164"
       r="1"
       inkscape:label="light" />
    <circle
       r="1"
       cy="40.778316"
       cx="3.5048645"
       id="circle6890"
       style="fill:#ff00ff;fill-opacity:1;stroke:none;stroke-width:0.5"
       inkscape:label="light" />
    <circle
       style="fill:#ff00ff;fill-opacity:1;stroke:none;stroke-width:0.5"
       id="circle6892"
       cx="3.5048645"
       cy="30.397467"
       r="1"
       inkscape:label="light" />
    <circle
       r="1"
       cy="20.016621"
       cx="3.5048645"
       id="circle6894"
       style="fill:#ff00ff;fill-opacity:1;stroke:none;stroke-width:0.5"
       inkscape:label="light" />
    <circle
       inkscape:label="out"
       r="3.8364999"
       cy="107.03564"
       cx="18.932966"
       id="circle6896"
       style="fill:#0000ff;fill-opacity:1;stroke:none;stroke-width:1.91825" />
    <circle
       style="fill:#ff0000;fill-opacity:1;stroke:none;stroke-width:1.91825"
       id="circle6898"
       cx="7.8771625"
       cy="107.03564"
       r="3.8364999"
       inkscape:label="knob" />
  </g>
  <g
     inkscape:groupmode="layer"
     id="layer3"
     inkscape:label="view"
     style="display:none">
    <g
       inkscape:label="Layer 1"
       id="g2953"
       transform="translate(-73.475644,-16.03664)"
       style="display:inline">
      <path
         inkscape:connector-curvature="0"
         id="path2947"
         d="m 92.447612,126.75672 c -2.052551,0 -3.721671,-1.66911 -3.721671,-3.72168 0,-2.05252 1.66912,-3.72166 3.721671,-3.72166 2.052549,0 3.721672,1.66914 3.721672,3.72166 0,2.05257 -1.669123,3.72168 -3.721672,3.72168"
         style="fill:#eeeeee;fill-opacity:1;fill-rule:nonzero;stroke:#424242;stroke-width:0.229573;stroke-miterlimit:4;stroke-dasharray:none;stroke-opacity:1" />
      <path
         inkscape:connector-curvature="0"
         id="path2949"
         d="m 92.447612,125.71528 c -1.478038,0 -2.680211,-1.2022 -2.680211,-2.68024 0,-1.47802 1.202173,-2.68019 2.680211,-2.68019 1.47804,0 2.680209,1.20217 2.680209,2.68019 0,1.47804 -1.202169,2.68024 -2.680209,2.68024"
         style="fill:#f5f5f5;fill-opacity:1;fill-rule:nonzero;stroke:#424242;stroke-width:0.229573;stroke-miterlimit:4;stroke-dasharray:none;stroke-opacity:1" />
      <path
         inkscape:connector-curvature="0"
         id="path2951"
         d="m 94.100282,123.03504 c 0,0.91239 -0.740286,1.65269 -1.65267,1.65269 -0.912386,0 -1.652672,-0.7403 -1.652672,-1.65269 0,-0.91237 0.740286,-1.65264 1.652672,-1.65264 0.912384,0 1.65267,0.74027 1.65267,1.65264"
         style="fill:#212121;fill-opacity:1;fill-rule:nonzero;stroke:none;stroke-width:0.323954" />
    </g>
    <g
       id="g6412"
       transform="translate(0.84621728,0.0370432)">
      <g
         style="display:inline"
         transform="translate(-85.39954,-99.273614)"
         id="layer1-4"
         inkscape:label="Layer 1">
        <path
           style="fill:#eeeeee;fill-opacity:1;fill-rule:nonzero;stroke:#424242;stroke-width:0.229573;stroke-miterlimit:4;stroke-dasharray:none;stroke-opacity:1"
           d="m 92.447612,126.75672 c -2.052551,0 -3.721671,-1.66911 -3.721671,-3.72168 0,-2.05252 1.66912,-3.72166 3.721671,-3.72166 2.052549,0 3.721672,1.66914 3.721672,3.72166 0,2.05257 -1.669123,3.72168 -3.721672,3.72168"
           id="path7255"
           inkscape:connector-curvature="0" />
        <path
           style="fill:#f5f5f5;fill-opacity:1;fill-rule:nonzero;stroke:#424242;stroke-width:0.229573;stroke-miterlimit:4;stroke-dasharray:none;stroke-opacity:1"
           d="m 92.447612,125.71528 c -1.478038,0 -2.680211,-1.2022 -2.680211,-2.68024 0,-1.47802 1.202173,-2.68019 2.680211,-2.68019 1.47804,0 2.680209,1.20217 2.680209,2.68019 0,1.47804 -1.202169,2.68024 -2.680209,2.68024"
           id="path7261"
           inkscape:connector-curvature="0" />
        <path
           style="fill:#212121;fill-opacity:1;fill-rule:nonzero;stroke:none;stroke-width:0.323954"
           d="m 94.100282,123.03504 c 0,0.91239 -0.740286,1.65269 -1.65267,1.65269 -0.912386,0 -1.652672,-0.7403 -1.652672,-1.65269 0,-0.91237 0.740286,-1.65264 1.652672,-1.65264 0.912384,0 1.65267,0.74027 1.65267,1.65264"
           id="path7265"
           inkscape:connector-curvature="0" />
      </g>
      <circle
         r="1"
         cy="19.965269"
         cx="2.6603954"
         id="path6319"
         style="fill:#fafafa;fill-opacity:1;stroke:none;stroke-width:0.5" />
    </g>
    <g
       id="g6424"
       transform="translate(0.84621728,10.419934)">
      <g
         inkscape:label="Layer 1"
         id="g6420"
         transform="translate(-85.39954,-99.273614)"
         style="display:inline">
        <path
           inkscape:connector-curvature="0"
           id="path6414"
           d="m 92.447612,126.75672 c -2.052551,0 -3.721671,-1.66911 -3.721671,-3.72168 0,-2.05252 1.66912,-3.72166 3.721671,-3.72166 2.052549,0 3.721672,1.66914 3.721672,3.72166 0,2.05257 -1.669123,3.72168 -3.721672,3.72168"
           style="fill:#eeeeee;fill-opacity:1;fill-rule:nonzero;stroke:#424242;stroke-width:0.229573;stroke-miterlimit:4;stroke-dasharray:none;stroke-opacity:1" />
        <path
           inkscape:connector-curvature="0"
           id="path6416"
           d="m 92.447612,125.71528 c -1.478038,0 -2.680211,-1.2022 -2.680211,-2.68024 0,-1.47802 1.202173,-2.68019 2.680211,-2.68019 1.47804,0 2.680209,1.20217 2.680209,2.68019 0,1.47804 -1.202169,2.68024 -2.680209,2.68024"
           style="fill:#f5f5f5;fill-opacity:1;fill-rule:nonzero;stroke:#424242;stroke-width:0.229573;stroke-miterlimit:4;stroke-dasharray:none;stroke-opacity:1" />
        <path
           inkscape:connector-curvature="0"
           id="path6418"
           d="m 94.100282,123.03504 c 0,0.91239 -0.740286,1.65269 -1.65267,1.65269 -0.912386,0 -1.652672,-0.7403 -1.652672,-1.65269 0,-0.91237 0.740286,-1.65264 1.652672,-1.65264 0.912384,0 1.65267,0.74027 1.65267,1.65264"
           style="fill:#212121;fill-opacity:1;fill-rule:nonzero;stroke:none;stroke-width:0.323954" />
      </g>
      <circle
         style="fill:#fafafa;fill-opacity:1;stroke:none;stroke-width:0.5"
         id="circle6422"
         cx="2.6603954"
         cy="19.965269"
         r="1" />
    </g>
    <g
       transform="translate(0.84621728,20.802826)"
       id="g6436">
      <g
         style="display:inline"
         transform="translate(-85.39954,-99.273614)"
         id="g6432"
         inkscape:label="Layer 1">
        <path
           style="fill:#eeeeee;fill-opacity:1;fill-rule:nonzero;stroke:#424242;stroke-width:0.229573;stroke-miterlimit:4;stroke-dasharray:none;stroke-opacity:1"
           d="m 92.447612,126.75672 c -2.052551,0 -3.721671,-1.66911 -3.721671,-3.72168 0,-2.05252 1.66912,-3.72166 3.721671,-3.72166 2.052549,0 3.721672,1.66914 3.721672,3.72166 0,2.05257 -1.669123,3.72168 -3.721672,3.72168"
           id="path6426"
           inkscape:connector-curvature="0" />
        <path
           style="fill:#f5f5f5;fill-opacity:1;fill-rule:nonzero;stroke:#424242;stroke-width:0.229573;stroke-miterlimit:4;stroke-dasharray:none;stroke-opacity:1"
           d="m 92.447612,125.71528 c -1.478038,0 -2.680211,-1.2022 -2.680211,-2.68024 0,-1.47802 1.202173,-2.68019 2.680211,-2.68019 1.47804,0 2.680209,1.20217 2.680209,2.68019 0,1.47804 -1.202169,2.68024 -2.680209,2.68024"
           id="path6428"
           inkscape:connector-curvature="0" />
        <path
           style="fill:#212121;fill-opacity:1;fill-rule:nonzero;stroke:none;stroke-width:0.323954"
           d="m 94.100282,123.03504 c 0,0.91239 -0.740286,1.65269 -1.65267,1.65269 -0.912386,0 -1.652672,-0.7403 -1.652672,-1.65269 0,-0.91237 0.740286,-1.65264 1.652672,-1.65264 0.912384,0 1.65267,0.74027 1.65267,1.65264"
           id="path6430"
           inkscape:connector-curvature="0" />
      </g>
      <circle
         r="1"
         cy="19.965269"
         cx="2.6603954"
         id="circle6434"
         style="fill:#fafafa;fill-opacity:1;stroke:none;stroke-width:0.5" />
    </g>
    <g
       id="g6448"
       transform="translate(0.84621728,31.185714)">
      <g
         inkscape:label="Layer 1"
         id="g6444"
         transform="translate(-85.39954,-99.273614)"
         style="display:inline">
        <path
           inkscape:connector-curvature="0"
           id="path6438"
           d="m 92.447612,126.75672 c -2.052551,0 -3.721671,-1.66911 -3.721671,-3.72168 0,-2.05252 1.66912,-3.72166 3.721671,-3.72166 2.052549,0 3.721672,1.66914 3.721672,3.72166 0,2.05257 -1.669123,3.72168 -3.721672,3.72168"
           style="fill:#eeeeee;fill-opacity:1;fill-rule:nonzero;stroke:#424242;stroke-width:0.229573;stroke-miterlimit:4;stroke-dasharray:none;stroke-opacity:1" />
        <path
           inkscape:connector-curvature="0"
           id="path6440"
           d="m 92.447612,125.71528 c -1.478038,0 -2.680211,-1.2022 -2.680211,-2.68024 0,-1.47802 1.202173,-2.68019 2.680211,-2.68019 1.47804,0 2.680209,1.20217 2.680209,2.68019 0,1.47804 -1.202169,2.68024 -2.680209,2.68024"
           style="fill:#f5f5f5;fill-opacity:1;fill-rule:nonzero;stroke:#424242;stroke-width:0.229573;stroke-miterlimit:4;stroke-dasharray:none;stroke-opacity:1" />
        <path
           inkscape:connector-curvature="0"
           id="path6442"
           d="m 94.100282,123.03504 c 0,0.91239 -0.740286,1.65269 -1.65267,1.65269 -0.912386,0 -1.652672,-0.7403 -1.652672,-1.65269 0,-0.91237 0.740286,-1.65264 1.652672,-1.65264 0.912384,0 1.65267,0.74027 1.65267,1.65264"
           style="fill:#212121;fill-opacity:1;fill-rule:nonzero;stroke:none;stroke-width:0.323954" />
      </g>
      <circle
         style="fill:#fafafa;fill-opacity:1;stroke:none;stroke-width:0.5"
         id="circle6446"
         cx="2.6603954"
         cy="19.965269"
         r="1" />
    </g>
    <g
       transform="translate(0.84621728,41.568607)"
       id="g6460">
      <g
         style="display:inline"
         transform="translate(-85.39954,-99.273614)"
         id="g6456"
         inkscape:label="Layer 1">
        <path
           style="fill:#eeeeee;fill-opacity:1;fill-rule:nonzero;stroke:#424242;stroke-width:0.229573;stroke-miterlimit:4;stroke-dasharray:none;stroke-opacity:1"
           d="m 92.447612,126.75672 c -2.052551,0 -3.721671,-1.66911 -3.721671,-3.72168 0,-2.05252 1.66912,-3.72166 3.721671,-3.72166 2.052549,0 3.721672,1.66914 3.721672,3.72166 0,2.05257 -1.669123,3.72168 -3.721672,3.72168"
           id="path6450"
           inkscape:connector-curvature="0" />
        <path
           style="fill:#f5f5f5;fill-opacity:1;fill-rule:nonzero;stroke:#424242;stroke-width:0.229573;stroke-miterlimit:4;stroke-dasharray:none;stroke-opacity:1"
           d="m 92.447612,125.71528 c -1.478038,0 -2.680211,-1.2022 -2.680211,-2.68024 0,-1.47802 1.202173,-2.68019 2.680211,-2.68019 1.47804,0 2.680209,1.20217 2.680209,2.68019 0,1.47804 -1.202169,2.68024 -2.680209,2.68024"
           id="path6452"
           inkscape:connector-curvature="0" />
        <path
           style="fill:#212121;fill-opacity:1;fill-rule:nonzero;stroke:none;stroke-width:0.323954"
           d="m 94.100282,123.03504 c 0,0.91239 -0.740286,1.65269 -1.65267,1.65269 -0.912386,0 -1.652672,-0.7403 -1.652672,-1.65269 0,-0.91237 0.740286,-1.65264 1.652672,-1.65264 0.912384,0 1.65267,0.74027 1.65267,1.65264"
           id="path6454"
           inkscape:connector-curvature="0" />
      </g>
      <circle
         r="1"
         cy="19.965269"
         cx="2.6603954"
         id="circle6458"
         style="fill:#fafafa;fill-opacity:1;stroke:none;stroke-width:0.5" />
    </g>
    <g
       id="g6472"
       transform="translate(0.84621728,51.951504)">
      <g
         inkscape:label="Layer 1"
         id="g6468"
         transform="translate(-85.39954,-99.273614)"
         style="display:inline">
        <path
           inkscape:connector-curvature="0"
           id="path6462"
           d="m 92.447612,126.75672 c -2.052551,0 -3.721671,-1.66911 -3.721671,-3.72168 0,-2.05252 1.66912,-3.72166 3.721671,-3.72166 2.052549,0 3.721672,1.66914 3.721672,3.72166 0,2.05257 -1.669123,3.72168 -3.721672,3.72168"
           style="fill:#eeeeee;fill-opacity:1;fill-rule:nonzero;stroke:#424242;stroke-width:0.229573;stroke-miterlimit:4;stroke-dasharray:none;stroke-opacity:1" />
        <path
           inkscape:connector-curvature="0"
           id="path6464"
           d="m 92.447612,125.71528 c -1.478038,0 -2.680211,-1.2022 -2.680211,-2.68024 0,-1.47802 1.202173,-2.68019 2.680211,-2.68019 1.47804,0 2.680209,1.20217 2.680209,2.68019 0,1.47804 -1.202169,2.68024 -2.680209,2.68024"
           style="fill:#f5f5f5;fill-opacity:1;fill-rule:nonzero;stroke:#424242;stroke-width:0.229573;stroke-miterlimit:4;stroke-dasharray:none;stroke-opacity:1" />
        <path
           inkscape:connector-curvature="0"
           id="path6466"
           d="m 94.100282,123.03504 c 0,0.91239 -0.740286,1.65269 -1.65267,1.65269 -0.912386,0 -1.652672,-0.7403 -1.652672,-1.65269 0,-0.91237 0.740286,-1.65264 1.652672,-1.65264 0.912384,0 1.65267,0.74027 1.65267,1.65264"
           style="fill:#212121;fill-opacity:1;fill-rule:nonzero;stroke:none;stroke-width:0.323954" />
      </g>
      <circle
         style="fill:#fafafa;fill-opacity:1;stroke:none;stroke-width:0.5"
         id="circle6470"
         cx="2.6603954"
         cy="19.965269"
         r="1" />
    </g>
    <g
       transform="translate(0.84621728,62.334394)"
       id="g6484">
      <g
         style="display:inline"
         transform="translate(-85.39954,-99.273614)"
         id="g6480"
         inkscape:label="Layer 1">
        <path
           style="fill:#eeeeee;fill-opacity:1;fill-rule:nonzero;stroke:#424242;stroke-width:0.229573;stroke-miterlimit:4;stroke-dasharray:none;stroke-opacity:1"
           d="m 92.447612,126.75672 c -2.052551,0 -3.721671,-1.66911 -3.721671,-3.72168 0,-2.05252 1.66912,-3.72166 3.721671,-3.72166 2.052549,0 3.721672,1.66914 3.721672,3.72166 0,2.05257 -1.669123,3.72168 -3.721672,3.72168"
           id="path6474"
           inkscape:connector-curvature="0" />
        <path
           style="fill:#f5f5f5;fill-opacity:1;fill-rule:nonzero;stroke:#424242;stroke-width:0.229573;stroke-miterlimit:4;stroke-dasharray:none;stroke-opacity:1"
           d="m 92.447612,125.71528 c -1.478038,0 -2.680211,-1.2022 -2.680211,-2.68024 0,-1.47802 1.202173,-2.68019 2.680211,-2.68019 1.47804,0 2.680209,1.20217 2.680209,2.68019 0,1.47804 -1.202169,2.68024 -2.680209,2.68024"
           id="path6476"
           inkscape:connector-curvature="0" />
        <path
           style="fill:#212121;fill-opacity:1;fill-rule:nonzero;stroke:none;stroke-width:0.323954"
           d="m 94.100282,123.03504 c 0,0.91239 -0.740286,1.65269 -1.65267,1.65269 -0.912386,0 -1.652672,-0.7403 -1.652672,-1.65269 0,-0.91237 0.740286,-1.65264 1.652672,-1.65264 0.912384,0 1.65267,0.74027 1.65267,1.65264"
           id="path6478"
           inkscape:connector-curvature="0" />
      </g>
      <circle
         r="1"
         cy="19.965269"
         cx="2.6603954"
         id="circle6482"
         style="fill:#fafafa;fill-opacity:1;stroke:none;stroke-width:0.5" />
    </g>
    <g
       style="display:inline"
       transform="translate(-84.553323,-26.556331)"
       id="g6492"
       inkscape:label="Layer 1">
      <path
         style="fill:#eeeeee;fill-opacity:1;fill-rule:nonzero;stroke:#424242;stroke-width:0.229573;stroke-miterlimit:4;stroke-dasharray:none;stroke-opacity:1"
         d="m 92.447612,126.75672 c -2.052551,0 -3.721671,-1.66911 -3.721671,-3.72168 0,-2.05252 1.66912,-3.72166 3.721671,-3.72166 2.052549,0 3.721672,1.66914 3.721672,3.72166 0,2.05257 -1.669123,3.72168 -3.721672,3.72168"
         id="path6486"
         inkscape:connector-curvature="0" />
      <path
         style="fill:#f5f5f5;fill-opacity:1;fill-rule:nonzero;stroke:#424242;stroke-width:0.229573;stroke-miterlimit:4;stroke-dasharray:none;stroke-opacity:1"
         d="m 92.447612,125.71528 c -1.478038,0 -2.680211,-1.2022 -2.680211,-2.68024 0,-1.47802 1.202173,-2.68019 2.680211,-2.68019 1.47804,0 2.680209,1.20217 2.680209,2.68019 0,1.47804 -1.202169,2.68024 -2.680209,2.68024"
         id="path6488"
         inkscape:connector-curvature="0" />
      <path
         style="fill:#212121;fill-opacity:1;fill-rule:nonzero;stroke:none;stroke-width:0.323954"
         d="m 94.100282,123.03504 c 0,0.91239 -0.740286,1.65269 -1.65267,1.65269 -0.912386,0 -1.652672,-0.7403 -1.652672,-1.65269 0,-0.91237 0.740286,-1.65264 1.652672,-1.65264 0.912384,0 1.65267,0.74027 1.65267,1.65264"
         id="path6490"
         inkscape:connector-curvature="0" />
    </g>
    <circle
       r="1"
       cy="92.682549"
       cx="3.5066128"
       id="circle6494"
       style="fill:#fafafa;fill-opacity:1;stroke:none;stroke-width:0.5" />
    <g
       transform="translate(11.923896,0.0370432)"
       id="g6508">
      <g
         inkscape:label="Layer 1"
         id="g6504"
         transform="translate(-85.39954,-99.273614)"
         style="display:inline">
        <path
           inkscape:connector-curvature="0"
           id="path6498"
           d="m 92.447612,126.75672 c -2.052551,0 -3.721671,-1.66911 -3.721671,-3.72168 0,-2.05252 1.66912,-3.72166 3.721671,-3.72166 2.052549,0 3.721672,1.66914 3.721672,3.72166 0,2.05257 -1.669123,3.72168 -3.721672,3.72168"
           style="fill:#eeeeee;fill-opacity:1;fill-rule:nonzero;stroke:#424242;stroke-width:0.229573;stroke-miterlimit:4;stroke-dasharray:none;stroke-opacity:1" />
        <path
           inkscape:connector-curvature="0"
           id="path6500"
           d="m 92.447612,125.71528 c -1.478038,0 -2.680211,-1.2022 -2.680211,-2.68024 0,-1.47802 1.202173,-2.68019 2.680211,-2.68019 1.47804,0 2.680209,1.20217 2.680209,2.68019 0,1.47804 -1.202169,2.68024 -2.680209,2.68024"
           style="fill:#f5f5f5;fill-opacity:1;fill-rule:nonzero;stroke:#424242;stroke-width:0.229573;stroke-miterlimit:4;stroke-dasharray:none;stroke-opacity:1" />
        <path
           inkscape:connector-curvature="0"
           id="path6502"
           d="m 94.100282,123.03504 c 0,0.91239 -0.740286,1.65269 -1.65267,1.65269 -0.912386,0 -1.652672,-0.7403 -1.652672,-1.65269 0,-0.91237 0.740286,-1.65264 1.652672,-1.65264 0.912384,0 1.65267,0.74027 1.65267,1.65264"
           style="fill:#212121;fill-opacity:1;fill-rule:nonzero;stroke:none;stroke-width:0.323954" />
      </g>
      <circle
         style="fill:#fafafa;fill-opacity:1;stroke:none;stroke-width:0.5"
         id="circle6506"
         cx="2.6603954"
         cy="19.965269"
         r="1" />
    </g>
    <g
       transform="translate(11.923896,10.419934)"
       id="g6520">
      <g
         style="display:inline"
         transform="translate(-85.39954,-99.273614)"
         id="g6516"
         inkscape:label="Layer 1">
        <path
           style="fill:#eeeeee;fill-opacity:1;fill-rule:nonzero;stroke:#424242;stroke-width:0.229573;stroke-miterlimit:4;stroke-dasharray:none;stroke-opacity:1"
           d="m 92.447612,126.75672 c -2.052551,0 -3.721671,-1.66911 -3.721671,-3.72168 0,-2.05252 1.66912,-3.72166 3.721671,-3.72166 2.052549,0 3.721672,1.66914 3.721672,3.72166 0,2.05257 -1.669123,3.72168 -3.721672,3.72168"
           id="path6510"
           inkscape:connector-curvature="0" />
        <path
           style="fill:#f5f5f5;fill-opacity:1;fill-rule:nonzero;stroke:#424242;stroke-width:0.229573;stroke-miterlimit:4;stroke-dasharray:none;stroke-opacity:1"
           d="m 92.447612,125.71528 c -1.478038,0 -2.680211,-1.2022 -2.680211,-2.68024 0,-1.47802 1.202173,-2.68019 2.680211,-2.68019 1.47804,0 2.680209,1.20217 2.680209,2.68019 0,1.47804 -1.202169,2.68024 -2.680209,2.68024"
           id="path6512"
           inkscape:connector-curvature="0" />
        <path
           style="fill:#212121;fill-opacity:1;fill-rule:nonzero;stroke:none;stroke-width:0.323954"
           d="m 94.100282,123.03504 c 0,0.91239 -0.740286,1.65269 -1.65267,1.65269 -0.912386,0 -1.652672,-0.7403 -1.652672,-1.65269 0,-0.91237 0.740286,-1.65264 1.652672,-1.65264 0.912384,0 1.65267,0.74027 1.65267,1.65264"
           id="path6514"
           inkscape:connector-curvature="0" />
      </g>
      <circle
         r="1"
         cy="19.965269"
         cx="2.6603954"
         id="circle6518"
         style="fill:#fafafa;fill-opacity:1;stroke:none;stroke-width:0.5" />
    </g>
    <g
       id="g6532"
       transform="translate(11.923896,20.802826)">
      <g
         inkscape:label="Layer 1"
         id="g6528"
         transform="translate(-85.39954,-99.273614)"
         style="display:inline">
        <path
           inkscape:connector-curvature="0"
           id="path6522"
           d="m 92.447612,126.75672 c -2.052551,0 -3.721671,-1.66911 -3.721671,-3.72168 0,-2.05252 1.66912,-3.72166 3.721671,-3.72166 2.052549,0 3.721672,1.66914 3.721672,3.72166 0,2.05257 -1.669123,3.72168 -3.721672,3.72168"
           style="fill:#eeeeee;fill-opacity:1;fill-rule:nonzero;stroke:#424242;stroke-width:0.229573;stroke-miterlimit:4;stroke-dasharray:none;stroke-opacity:1" />
        <path
           inkscape:connector-curvature="0"
           id="path6524"
           d="m 92.447612,125.71528 c -1.478038,0 -2.680211,-1.2022 -2.680211,-2.68024 0,-1.47802 1.202173,-2.68019 2.680211,-2.68019 1.47804,0 2.680209,1.20217 2.680209,2.68019 0,1.47804 -1.202169,2.68024 -2.680209,2.68024"
           style="fill:#f5f5f5;fill-opacity:1;fill-rule:nonzero;stroke:#424242;stroke-width:0.229573;stroke-miterlimit:4;stroke-dasharray:none;stroke-opacity:1" />
        <path
           inkscape:connector-curvature="0"
           id="path6526"
           d="m 94.100282,123.03504 c 0,0.91239 -0.740286,1.65269 -1.65267,1.65269 -0.912386,0 -1.652672,-0.7403 -1.652672,-1.65269 0,-0.91237 0.740286,-1.65264 1.652672,-1.65264 0.912384,0 1.65267,0.74027 1.65267,1.65264"
           style="fill:#212121;fill-opacity:1;fill-rule:nonzero;stroke:none;stroke-width:0.323954" />
      </g>
      <circle
         style="fill:#fafafa;fill-opacity:1;stroke:none;stroke-width:0.5"
         id="circle6530"
         cx="2.6603954"
         cy="19.965269"
         r="1" />
    </g>
    <g
       transform="translate(11.923896,31.185714)"
       id="g6544">
      <g
         style="display:inline"
         transform="translate(-85.39954,-99.273614)"
         id="g6540"
         inkscape:label="Layer 1">
        <path
           style="fill:#eeeeee;fill-opacity:1;fill-rule:nonzero;stroke:#424242;stroke-width:0.229573;stroke-miterlimit:4;stroke-dasharray:none;stroke-opacity:1"
           d="m 92.447612,126.75672 c -2.052551,0 -3.721671,-1.66911 -3.721671,-3.72168 0,-2.05252 1.66912,-3.72166 3.721671,-3.72166 2.052549,0 3.721672,1.66914 3.721672,3.72166 0,2.05257 -1.669123,3.72168 -3.721672,3.72168"
           id="path6534"
           inkscape:connector-curvature="0" />
        <path
           style="fill:#f5f5f5;fill-opacity:1;fill-rule:nonzero;stroke:#424242;stroke-width:0.229573;stroke-miterlimit:4;stroke-dasharray:none;stroke-opacity:1"
           d="m 92.447612,125.71528 c -1.478038,0 -2.680211,-1.2022 -2.680211,-2.68024 0,-1.47802 1.202173,-2.68019 2.680211,-2.68019 1.47804,0 2.680209,1.20217 2.680209,2.68019 0,1.47804 -1.202169,2.68024 -2.680209,2.68024"
           id="path6536"
           inkscape:connector-curvature="0" />
        <path
           style="fill:#212121;fill-opacity:1;fill-rule:nonzero;stroke:none;stroke-width:0.323954"
           d="m 94.100282,123.03504 c 0,0.91239 -0.740286,1.65269 -1.65267,1.65269 -0.912386,0 -1.652672,-0.7403 -1.652672,-1.65269 0,-0.91237 0.740286,-1.65264 1.652672,-1.65264 0.912384,0 1.65267,0.74027 1.65267,1.65264"
           id="path6538"
           inkscape:connector-curvature="0" />
      </g>
      <circle
         r="1"
         cy="19.965269"
         cx="2.6603954"
         id="circle6542"
         style="fill:#fafafa;fill-opacity:1;stroke:none;stroke-width:0.5" />
    </g>
    <g
       id="g6556"
       transform="translate(11.923896,41.568607)">
      <g
         inkscape:label="Layer 1"
         id="g6552"
         transform="translate(-85.39954,-99.273614)"
         style="display:inline">
        <path
           inkscape:connector-curvature="0"
           id="path6546"
           d="m 92.447612,126.75672 c -2.052551,0 -3.721671,-1.66911 -3.721671,-3.72168 0,-2.05252 1.66912,-3.72166 3.721671,-3.72166 2.052549,0 3.721672,1.66914 3.721672,3.72166 0,2.05257 -1.669123,3.72168 -3.721672,3.72168"
           style="fill:#eeeeee;fill-opacity:1;fill-rule:nonzero;stroke:#424242;stroke-width:0.229573;stroke-miterlimit:4;stroke-dasharray:none;stroke-opacity:1" />
        <path
           inkscape:connector-curvature="0"
           id="path6548"
           d="m 92.447612,125.71528 c -1.478038,0 -2.680211,-1.2022 -2.680211,-2.68024 0,-1.47802 1.202173,-2.68019 2.680211,-2.68019 1.47804,0 2.680209,1.20217 2.680209,2.68019 0,1.47804 -1.202169,2.68024 -2.680209,2.68024"
           style="fill:#f5f5f5;fill-opacity:1;fill-rule:nonzero;stroke:#424242;stroke-width:0.229573;stroke-miterlimit:4;stroke-dasharray:none;stroke-opacity:1" />
        <path
           inkscape:connector-curvature="0"
           id="path6550"
           d="m 94.100282,123.03504 c 0,0.91239 -0.740286,1.65269 -1.65267,1.65269 -0.912386,0 -1.652672,-0.7403 -1.652672,-1.65269 0,-0.91237 0.740286,-1.65264 1.652672,-1.65264 0.912384,0 1.65267,0.74027 1.65267,1.65264"
           style="fill:#212121;fill-opacity:1;fill-rule:nonzero;stroke:none;stroke-width:0.323954" />
      </g>
      <circle
         style="fill:#fafafa;fill-opacity:1;stroke:none;stroke-width:0.5"
         id="circle6554"
         cx="2.6603954"
         cy="19.965269"
         r="1" />
    </g>
    <g
       transform="translate(11.923896,51.951504)"
       id="g6568">
      <g
         style="display:inline"
         transform="translate(-85.39954,-99.273614)"
         id="g6564"
         inkscape:label="Layer 1">
        <path
           style="fill:#eeeeee;fill-opacity:1;fill-rule:nonzero;stroke:#424242;stroke-width:0.229573;stroke-miterlimit:4;stroke-dasharray:none;stroke-opacity:1"
           d="m 92.447612,126.75672 c -2.052551,0 -3.721671,-1.66911 -3.721671,-3.72168 0,-2.05252 1.66912,-3.72166 3.721671,-3.72166 2.052549,0 3.721672,1.66914 3.721672,3.72166 0,2.05257 -1.669123,3.72168 -3.721672,3.72168"
           id="path6558"
           inkscape:connector-curvature="0" />
        <path
           style="fill:#f5f5f5;fill-opacity:1;fill-rule:nonzero;stroke:#424242;stroke-width:0.229573;stroke-miterlimit:4;stroke-dasharray:none;stroke-opacity:1"
           d="m 92.447612,125.71528 c -1.478038,0 -2.680211,-1.2022 -2.680211,-2.68024 0,-1.47802 1.202173,-2.68019 2.680211,-2.68019 1.47804,0 2.680209,1.20217 2.680209,2.68019 0,1.47804 -1.202169,2.68024 -2.680209,2.68024"
           id="path6560"
           inkscape:connector-curvature="0" />
        <path
           style="fill:#212121;fill-opacity:1;fill-rule:nonzero;stroke:none;stroke-width:0.323954"
           d="m 94.100282,123.03504 c 0,0.91239 -0.740286,1.65269 -1.65267,1.65269 -0.912386,0 -1.652672,-0.7403 -1.652672,-1.65269 0,-0.91237 0.740286,-1.65264 1.652672,-1.65264 0.912384,0 1.65267,0.74027 1.65267,1.65264"
           id="path6562"
           inkscape:connector-curvature="0" />
      </g>
      <circle
         r="1"
         cy="19.965269"
         cx="2.6603954"
         id="circle6566"
         style="fill:#fafafa;fill-opacity:1;stroke:none;stroke-width:0.5" />
    </g>
    <g
       id="g6580"
       transform="translate(11.923896,62.334394)">
      <g
         inkscape:label="Layer 1"
         id="g6576"
         transform="translate(-85.39954,-99.273614)"
         style="display:inline">
        <path
           inkscape:connector-curvature="0"
           id="path6570"
           d="m 92.447612,126.75672 c -2.052551,0 -3.721671,-1.66911 -3.721671,-3.72168 0,-2.05252 1.66912,-3.72166 3.721671,-3.72166 2.052549,0 3.721672,1.66914 3.721672,3.72166 0,2.05257 -1.669123,3.72168 -3.721672,3.72168"
           style="fill:#eeeeee;fill-opacity:1;fill-rule:nonzero;stroke:#424242;stroke-width:0.229573;stroke-miterlimit:4;stroke-dasharray:none;stroke-opacity:1" />
        <path
           inkscape:connector-curvature="0"
           id="path6572"
           d="m 92.447612,125.71528 c -1.478038,0 -2.680211,-1.2022 -2.680211,-2.68024 0,-1.47802 1.202173,-2.68019 2.680211,-2.68019 1.47804,0 2.680209,1.20217 2.680209,2.68019 0,1.47804 -1.202169,2.68024 -2.680209,2.68024"
           style="fill:#f5f5f5;fill-opacity:1;fill-rule:nonzero;stroke:#424242;stroke-width:0.229573;stroke-miterlimit:4;stroke-dasharray:none;stroke-opacity:1" />
        <path
           inkscape:connector-curvature="0"
           id="path6574"
           d="m 94.100282,123.03504 c 0,0.91239 -0.740286,1.65269 -1.65267,1.65269 -0.912386,0 -1.652672,-0.7403 -1.652672,-1.65269 0,-0.91237 0.740286,-1.65264 1.652672,-1.65264 0.912384,0 1.65267,0.74027 1.65267,1.65264"
           style="fill:#212121;fill-opacity:1;fill-rule:nonzero;stroke:none;stroke-width:0.323954" />
      </g>
      <circle
         style="fill:#fafafa;fill-opacity:1;stroke:none;stroke-width:0.5"
         id="circle6578"
         cx="2.6603954"
         cy="19.965269"
         r="1" />
    </g>
    <g
       inkscape:label="Layer 1"
       id="g6588"
       transform="translate(-73.475644,-26.556331)"
       style="display:inline">
      <path
         inkscape:connector-curvature="0"
         id="path6582"
         d="m 92.447612,126.75672 c -2.052551,0 -3.721671,-1.66911 -3.721671,-3.72168 0,-2.05252 1.66912,-3.72166 3.721671,-3.72166 2.052549,0 3.721672,1.66914 3.721672,3.72166 0,2.05257 -1.669123,3.72168 -3.721672,3.72168"
         style="fill:#eeeeee;fill-opacity:1;fill-rule:nonzero;stroke:#424242;stroke-width:0.229573;stroke-miterlimit:4;stroke-dasharray:none;stroke-opacity:1" />
      <path
         inkscape:connector-curvature="0"
         id="path6584"
         d="m 92.447612,125.71528 c -1.478038,0 -2.680211,-1.2022 -2.680211,-2.68024 0,-1.47802 1.202173,-2.68019 2.680211,-2.68019 1.47804,0 2.680209,1.20217 2.680209,2.68019 0,1.47804 -1.202169,2.68024 -2.680209,2.68024"
         style="fill:#f5f5f5;fill-opacity:1;fill-rule:nonzero;stroke:#424242;stroke-width:0.229573;stroke-miterlimit:4;stroke-dasharray:none;stroke-opacity:1" />
      <path
         inkscape:connector-curvature="0"
         id="path6586"
         d="m 94.100282,123.03504 c 0,0.91239 -0.740286,1.65269 -1.65267,1.65269 -0.912386,0 -1.652672,-0.7403 -1.652672,-1.65269 0,-0.91237 0.740286,-1.65264 1.652672,-1.65264 0.912384,0 1.65267,0.74027 1.65267,1.65264"
         style="fill:#212121;fill-opacity:1;fill-rule:nonzero;stroke:none;stroke-width:0.323954" />
    </g>
    <circle
       style="fill:#fafafa;fill-opacity:1;stroke:none;stroke-width:0.5"
       id="circle6590"
       cx="14.584291"
       cy="92.682549"
       r="1" />
    <g
       style="display:inline"
       inkscape:label="Layer 1"
       id="layer1-8"
       transform="matrix(0.69271052,0,0,0.69270957,-28.553232,43.708582)">
      <path
         inkscape:connector-curvature="0"
         id="path7597"
         d="m 58.154134,91.365603 c 0,3.059246 -2.479075,5.538336 -5.538328,5.538336 -3.057878,0 -5.538329,-2.47909 -5.538329,-5.538336 0,-3.057867 2.480451,-5.538336 5.538329,-5.538336 3.059253,0 5.538328,2.480469 5.538328,5.538336"
         style="fill:#212121;fill-opacity:1;fill-rule:nonzero;stroke:none;stroke-width:0.352778" />
      <path
         inkscape:connector-curvature="0"
         id="path7599"
         d="m 56.566634,91.364911 c 0,2.182813 -1.768016,3.950836 -3.950828,3.950836 -2.181437,0 -3.950829,-1.768023 -3.950829,-3.950836 0,-2.181433 1.769392,-3.949456 3.950829,-3.949456 2.182812,0 3.950828,1.768023 3.950828,3.949456"
         style="fill:#bdbdbd;fill-opacity:1;fill-rule:nonzero;stroke:none;stroke-width:0.352778" />
      <path
         inkscape:connector-curvature="0"
         id="path7603"
         d="m 53.321361,85.876878 c -0.231493,-0.02893 -0.465772,-0.04961 -0.705555,-0.04961 -0.239783,0 -0.474028,0.02067 -0.705556,0.04961 v 1.701878 h 1.411111 z m 0,0"
         style="fill:#bdbdbd;fill-opacity:1;fill-rule:nonzero;stroke:none;stroke-width:0.352778" />
    </g>
  </g>
</svg>
