<?xml version="1.0" encoding="UTF-8" standalone="no"?>
<svg
   xmlns:dc="http://purl.org/dc/elements/1.1/"
   xmlns:cc="http://creativecommons.org/ns#"
   xmlns:rdf="http://www.w3.org/1999/02/22-rdf-syntax-ns#"
   xmlns:svg="http://www.w3.org/2000/svg"
   xmlns="http://www.w3.org/2000/svg"
   xmlns:sodipodi="http://sodipodi.sourceforge.net/DTD/sodipodi-0.dtd"
   xmlns:inkscape="http://www.inkscape.org/namespaces/inkscape"
   sodipodi:docname="switch_1.svg"
   inkscape:version="1.0 (4035a4fb49, 2020-05-01)"
   id="svg56722"
   version="1.1"
   viewBox="0 0 2.4993677 4.4218581"
   height="16.712534"
   width="9.4464293">
  <defs
     id="defs56716" />
  <sodipodi:namedview
     inkscape:document-rotation="0"
     units="px"
     inkscape:window-maximized="0"
     inkscape:window-y="232"
     inkscape:window-x="553"
     inkscape:window-height="882"
     inkscape:window-width="1600"
     fit-margin-bottom="0"
     fit-margin-right="0"
     fit-margin-left="0"
     fit-margin-top="0"
     showgrid="false"
     inkscape:current-layer="g56702"
     inkscape:document-units="mm"
     inkscape:cy="1.6738044"
     inkscape:cx="7.7939119"
     inkscape:zoom="11.2"
     inkscape:pageshadow="2"
     inkscape:pageopacity="0.0"
     borderopacity="1.0"
     bordercolor="#666666"
     pagecolor="#ffffff"
     id="base" />
  <metadata
     id="metadata56719">
    <rdf:RDF>
      <cc:Work
         rdf:about="">
        <dc:format>image/svg+xml</dc:format>
        <dc:type
           rdf:resource="http://purl.org/dc/dcmitype/StillImage" />
        <dc:title />
      </cc:Work>
    </rdf:RDF>
  </metadata>
  <g
     transform="translate(-30.167868,-65.374453)"
     id="layer1"
     inkscape:groupmode="layer"
     inkscape:label="Layer 1">
    <g
       style="stroke-width:1.28171"
       id="g56702"
       transform="matrix(0.18571613,0,0,-0.27523902,-111.44213,387.0692)">
      <g
         style="fill:#00838f;stroke-width:1.28171"
         id="g5827"
         transform="matrix(1,0,0,0.80967244,762.5078,1167.6351)">
        <path
           d="M 0,0 C 0,0.779 0.639,1.418 1.418,1.418 H 12.04 c 0.779,0 1.418,-0.639 1.418,-1.418 v -17.007 c 0,-0.779 -0.639,-1.417 -1.418,-1.417 H 1.418 C 0.639,-18.424 0,-17.786 0,-17.007 Z"
           style="fill:#00838f;fill-opacity:1;fill-rule:nonzero;stroke:none;stroke-width:1.28171"
           id="path5829"
           inkscape:connector-curvature="0" />
      </g>
      <g
         transform="matrix(1,0,0,0.78819797,0,247.2793)"
         id="g5839"
         style="fill:#00acc1;fill-opacity:1;stroke-width:1.28171">
        <g
           id="g5841"
           style="fill:#00acc1;fill-opacity:1;stroke-width:1.28171">
          <path
             d="m 764.617,1167.502 c -0.468,0 -0.852,-0.382 -0.852,-0.85 v 0 -15.724 c 0,-0.468 0.384,-0.851 0.852,-0.851 v 0 h 9.239 c 0.467,0 0.85,0.383 0.85,0.851 v 0 15.724 c 0,0.468 -0.383,0.85 -0.85,0.85 v 0 z"
             style="fill:#00acc1;fill-opacity:1;stroke:none;stroke-width:1.28171"
             id="path5849"
             inkscape:connector-curvature="0" />
        </g>
      </g>
      <path
         d="m 763.767,1167.503 h 10.94 v -6.613 h -10.94 z"
         style="fill:#80deea;fill-opacity:1;fill-rule:nonzero;stroke:none;stroke-width:1.13026"
         id="path5859"
         inkscape:connector-curvature="0" />
      <path
         d="m 763.767,1163.719 h 10.94 v -0.936 h -10.94 z"
         style="fill:#e0f7fa;fill-opacity:1;fill-rule:nonzero;stroke:none;stroke-width:1.28171"
         id="path5861"
         inkscape:connector-curvature="0" />
      <path
         d="m 763.767,1161.826 h 10.94 v -0.936 h -10.94 z"
         style="fill:#e0f7fa;fill-opacity:1;fill-rule:nonzero;stroke:none;stroke-width:1.28171"
         id="path5865"
         inkscape:connector-curvature="0" />
      <path
         d="m 763.767,1165.611 h 10.94 v -0.936 h -10.94 z"
         style="fill:#e0f7fa;fill-opacity:1;fill-rule:nonzero;stroke:none;stroke-width:1.28171"
         id="path5867"
         inkscape:connector-curvature="0" />
      <path
         d="m 763.767,1167.503 h 10.94 v -0.936 h -10.94 z"
         style="fill:#e0f7fa;fill-opacity:1;fill-rule:nonzero;stroke:none;stroke-width:1.28171"
         id="path5869"
         inkscape:connector-curvature="0" />
    </g>
  </g>
</svg>
