<?xml version="1.0" encoding="UTF-8" standalone="no"?>
<svg
   xmlns:dc="http://purl.org/dc/elements/1.1/"
   xmlns:cc="http://creativecommons.org/ns#"
   xmlns:rdf="http://www.w3.org/1999/02/22-rdf-syntax-ns#"
   xmlns:svg="http://www.w3.org/2000/svg"
   xmlns="http://www.w3.org/2000/svg"
   xmlns:sodipodi="http://sodipodi.sourceforge.net/DTD/sodipodi-0.dtd"
   xmlns:inkscape="http://www.inkscape.org/namespaces/inkscape"
   sodipodi:docname="port.svg"
   inkscape:version="1.0 (4035a4fb49, 2020-05-01)"
   id="svg36329"
   version="1.1"
   viewBox="0 0 7.672916 7.6729131"
   height="7.6729131mm"
   width="7.6729159mm">
  <defs
     id="defs36323" />
  <sodipodi:namedview
     inkscape:window-maximized="0"
     inkscape:window-y="113"
     inkscape:window-x="994"
     inkscape:window-height="1208"
     inkscape:window-width="1541"
     showgrid="false"
     inkscape:document-rotation="0"
     inkscape:current-layer="layer1-4"
     inkscape:document-units="mm"
     inkscape:cy="12.365379"
     inkscape:cx="15.3333"
     inkscape:zoom="15.839192"
     inkscape:pageshadow="2"
     inkscape:pageopacity="0.0"
     borderopacity="1.0"
     bordercolor="#666666"
     pagecolor="#ffffff"
     id="base" />
  <metadata
     id="metadata36326">
    <rdf:RDF>
      <cc:Work
         rdf:about="">
        <dc:format>image/svg+xml</dc:format>
        <dc:type
           rdf:resource="http://purl.org/dc/dcmitype/StillImage" />
        <dc:title></dc:title>
      </cc:Work>
    </rdf:RDF>
  </metadata>
  <g
     transform="translate(-48.738858,-140.20909)"
     id="layer1"
     inkscape:groupmode="layer"
     inkscape:label="Layer 1">
    <g
       style="display:inline"
       transform="translate(-39.872297,21.0105)"
       id="layer1-4"
       inkscape:label="Layer 1">
      <path
         style="fill:#f3e5f5;fill-opacity:1;fill-rule:nonzero;stroke:#8e24aa;stroke-width:0.229573;stroke-miterlimit:4;stroke-dasharray:none;stroke-opacity:1"
         d="m 92.447612,126.75672 c -2.052551,0 -3.721671,-1.66911 -3.721671,-3.72168 0,-2.05252 1.66912,-3.72166 3.721671,-3.72166 2.052549,0 3.721672,1.66914 3.721672,3.72166 0,2.05257 -1.669123,3.72168 -3.721672,3.72168"
         id="path7255"
         inkscape:connector-curvature="0" />
      <path
         style="fill:#f3e5f5;fill-opacity:1;fill-rule:nonzero;stroke:#8e24aa;stroke-width:0.229573;stroke-miterlimit:4;stroke-dasharray:none;stroke-opacity:1"
         d="m 92.447612,125.71528 c -1.478038,0 -2.680211,-1.2022 -2.680211,-2.68024 0,-1.47802 1.202173,-2.68019 2.680211,-2.68019 1.47804,0 2.680209,1.20217 2.680209,2.68019 0,1.47804 -1.202169,2.68024 -2.680209,2.68024"
         id="path7261"
         inkscape:connector-curvature="0" />
      <path
         style="fill:#8e24aa;fill-opacity:1;fill-rule:nonzero;stroke:none;stroke-width:0.323954"
         d="m 94.100282,123.03504 c 0,0.91239 -0.740286,1.65269 -1.65267,1.65269 -0.912386,0 -1.652672,-0.7403 -1.652672,-1.65269 0,-0.91237 0.740286,-1.65264 1.652672,-1.65264 0.912384,0 1.65267,0.74027 1.65267,1.65264"
         id="path7265"
         inkscape:connector-curvature="0" />
    </g>
  </g>
</svg>
